<svg preserveAspectRatio="xMinYMin meet" viewBox="0 0 847 520" width="847" height="520" xmlns="http://www.w3.org/2000/svg" version="1.1"><g transform="translate(0,10)"><g><path class="link" d="M5,215C142.83333333333334,215 142.83333333333334,185 280.6666666666667,185" style="stroke-width: 370; fill: none; stroke: rgb(191, 105, 105); stroke-opacity: 0.4;"><title>37</title></path><path class="link" d="M285.6666666666667,145C423.5,145 423.5,150 561.3333333333334,150" style="stroke-width: 290; fill: none; stroke: rgb(191, 142, 105); stroke-opacity: 0.4;"><title>29</title></path><path class="link" d="M566.3333333333334,120C704.1666666666667,120 704.1666666666667,120 842,120" style="stroke-width: 230; fill: none; stroke: rgb(105, 154, 191); stroke-opacity: 0.4;"><title>23</title></path><path class="link" d="M285.6666666666667,320C423.5,320 423.5,335 561.3333333333334,335" style="stroke-width: 60; fill: none; stroke: rgb(191, 142, 105); stroke-opacity: 0.4;"><title>6</title></path><path class="link" d="M566.3333333333334,335C704.1666666666667,335 704.1666666666667,275 842,275" style="stroke-width: 60; fill: none; stroke: rgb(130, 105, 191); stroke-opacity: 0.4;"><title>6</title></path><path class="link" d="M566.3333333333334,400C704.1666666666667,400 704.1666666666667,330 842,330" style="stroke-width: 50; fill: none; stroke: rgb(105, 117, 191); stroke-opacity: 0.4;"><title>5</title></path><path class="link" d="M566.3333333333334,250C704.1666666666667,250 704.1666666666667,410 842,410" style="stroke-width: 30; fill: none; stroke: rgb(105, 154, 191); stroke-opacity: 0.4;"><title>3</title></path><path class="link" d="M285.6666666666667,360C423.5,360 423.5,445 561.3333333333334,445" style="stroke-width: 20; fill: none; stroke: rgb(191, 142, 105); stroke-opacity: 0.4;"><title>2</title></path><path class="link" d="M285.6666666666667,390C423.5,390 423.5,385 561.3333333333334,385" style="stroke-width: 20; fill: none; stroke: rgb(191, 179, 105); stroke-opacity: 0.4;"><title>2</title></path><path class="link" d="M5,410C142.83333333333334,410 142.83333333333334,390 280.6666666666667,390" style="stroke-width: 20; fill: none; stroke: rgb(191, 105, 105); stroke-opacity: 0.4;"><title>2</title></path><path class="link" d="M566.3333333333334,275C704.1666666666667,275 704.1666666666667,445 842,445" style="stroke-width: 20; fill: none; stroke: rgb(105, 154, 191); stroke-opacity: 0.4;"><title>2</title></path><path class="link" d="M566.3333333333334,445C704.1666666666667,445 704.1666666666667,365 842,365" style="stroke-width: 20; fill: none; stroke: rgb(191, 105, 179); stroke-opacity: 0.4;"><title>2</title></path><path class="link" d="M5,445C142.83333333333334,445 142.83333333333334,455 280.6666666666667,455" style="stroke-width: 10; fill: none; stroke: rgb(191, 105, 105); stroke-opacity: 0.4;"><title>1</title></path><path class="link" d="M285.6666666666667,435C423.5,435 423.5,410 561.3333333333334,410" style="stroke-width: 10; fill: none; stroke: rgb(105, 191, 117); stroke-opacity: 0.4;"><title>1</title></path><path class="link" d="M285.6666666666667,455C423.5,455 423.5,490 561.3333333333334,490" style="stroke-width: 10; fill: none; stroke: rgb(105, 191, 154); stroke-opacity: 0.4;"><title>1</title></path><path class="link" d="M285.6666666666667,415C423.5,415 423.5,400 561.3333333333334,400" style="stroke-width: 10; fill: none; stroke: rgb(105, 191, 191); stroke-opacity: 0.4;"><title>1</title></path><path class="link" d="M5,425C142.83333333333334,425 142.83333333333334,415 280.6666666666667,415" style="stroke-width: 10; fill: none; stroke: rgb(191, 105, 105); stroke-opacity: 0.4;"><title>1</title></path><path class="link" d="M566.3333333333334,490C704.1666666666667,490 704.1666666666667,380 842,380" style="stroke-width: 10; fill: none; stroke: rgb(191, 105, 142); stroke-opacity: 0.4;"><title>1</title></path><path class="link" d="M5,465C142.83333333333334,465 142.83333333333334,495 280.6666666666667,495" style="stroke-width: 10; fill: none; stroke: rgb(191, 105, 105); stroke-opacity: 0.4;"><title>1</title></path><path class="link" d="M566.3333333333334,290C704.1666666666667,290 704.1666666666667,490 842,490" style="stroke-width: 10; fill: none; stroke: rgb(105, 154, 191); stroke-opacity: 0.4;"><title>1</title></path><path class="link" d="M5,455C142.83333333333334,455 142.83333333333334,475 280.6666666666667,475" style="stroke-width: 10; fill: none; stroke: rgb(191, 105, 105); stroke-opacity: 0.4;"><title>1</title></path><path class="link" d="M5,435C142.83333333333334,435 142.83333333333334,435 280.6666666666667,435" style="stroke-width: 10; fill: none; stroke: rgb(191, 105, 105); stroke-opacity: 0.4;"><title>1</title></path><path class="link" d="M566.3333333333334,470C704.1666666666667,470 704.1666666666667,470 842,470" style="stroke-width: 10; fill: none; stroke: rgb(166, 105, 191); stroke-opacity: 0.4;"><title>1</title></path><path class="link" d="M285.6666666666667,495C423.5,495 423.5,470 561.3333333333334,470" style="stroke-width: 10; fill: none; stroke: rgb(166, 191, 105); stroke-opacity: 0.4;"><title>1</title></path><path class="link" d="M285.6666666666667,475C423.5,475 423.5,420 561.3333333333334,420" style="stroke-width: 10; fill: none; stroke: rgb(130, 191, 105); stroke-opacity: 0.4;"><title>1</title></path></g><g><g class="node" transform="translate(0,30)"><rect height="440" width="5"><title>Hashim
44</title></rect><text x="11" y="220" dy=".35em" text-anchor="start" style="font-size: 11px; font-family: Arial, Helvetica; pointer-events: none;">Hashim</text></g><g class="node" transform="translate(561.3333333333334,375)"><rect height="50" width="5"><title>
5</title></rect><text x="-6" y="25" dy=".35em" text-anchor="end" style="font-size: 11px; font-family: Arial, Helvetica; pointer-events: none;"></text></g><g class="node" transform="translate(561.3333333333334,465)"><rect height="10" width="5"><title>Amir b. Sa'sa'a
1</title></rect><text x="-6" y="5" dy=".35em" text-anchor="end" style="font-size: 11px; font-family: Arial, Helvetica; pointer-events: none;">Amir b. Sa'sa'a</text></g><g class="node" transform="translate(561.3333333333334,485)"><rect height="10" width="5"><title>Haritha b. al-Harith
1</title></rect><text x="-6" y="5" dy=".35em" text-anchor="end" style="font-size: 11px; font-family: Arial, Helvetica; pointer-events: none;">Haritha b. al-Harith</text></g><g class="node" transform="translate(561.3333333333334,305)"><rect height="60" width="5"><title>Makhzum
6</title></rect><text x="-6" y="30" dy=".35em" text-anchor="end" style="font-size: 11px; font-family: Arial, Helvetica; pointer-events: none;">Makhzum</text></g><g class="node" transform="translate(561.3333333333334,5)"><rect height="290" width="5"><title>Qusayy
29</title></rect><text x="-6" y="145" dy=".35em" text-anchor="end" style="font-size: 11px; font-family: Arial, Helvetica; pointer-events: none;">Qusayy</text></g><g class="node" transform="translate(561.3333333333334,435)"><rect height="20" width="5"><title>Taym b. Murra
2</title></rect><text x="-6" y="10" dy=".35em" text-anchor="end" style="font-size: 11px; font-family: Arial, Helvetica; pointer-events: none;">Taym b. Murra</text></g><g class="node" transform="translate(842,245)"><rect height="140" width="5" style="fill: rgb(102, 102, 102);"><title>
14</title></rect><text x="-6" y="70" dy=".35em" text-anchor="end" style="font-size: 11px; font-family: Arial, Helvetica; pointer-events: none;"></text></g><g class="node" transform="translate(842,395)"><rect height="30" width="5" style="fill: rgb(102, 102, 102);"><title>Asad
3</title></rect><text x="-6" y="15" dy=".35em" text-anchor="end" style="font-size: 11px; font-family: Arial, Helvetica; pointer-events: none;">Asad</text></g><g class="node" transform="translate(842,5)"><rect height="230" width="5" style="fill: rgb(102, 102, 102);"><title>Hashim
23</title></rect><text x="-6" y="115" dy=".35em" text-anchor="end" style="font-size: 11px; font-family: Arial, Helvetica; pointer-events: none;">Hashim</text></g><g class="node" transform="translate(842,465)"><rect height="10" width="5" style="fill: rgb(102, 102, 102);"><title>Malik of Ja'far of Kilab
1</title></rect><text x="-6" y="5" dy=".35em" text-anchor="end" style="font-size: 11px; font-family: Arial, Helvetica; pointer-events: none;">Malik of Ja'far of Kilab</text></g><g class="node" transform="translate(842,485)"><rect height="10" width="5" style="fill: rgb(102, 102, 102);"><title>Nawfal
1</title></rect><text x="-6" y="5" dy=".35em" text-anchor="end" style="font-size: 11px; font-family: Arial, Helvetica; pointer-events: none;">Nawfal</text></g><g class="node" transform="translate(842,435)"><rect height="20" width="5" style="fill: rgb(102, 102, 102);"><title>Umayyad
2</title></rect><text x="-6" y="10" dy=".35em" text-anchor="end" style="font-size: 11px; font-family: Arial, Helvetica; pointer-events: none;">Umayyad</text></g><g class="node" transform="translate(280.6666666666667,410)"><rect height="10" width="5"><title>Anmar
1</title></rect><text x="11" y="5" dy=".35em" text-anchor="start" style="font-size: 11px; font-family: Arial, Helvetica; pointer-events: none;">Anmar</text></g><g class="node" transform="translate(280.6666666666667,430)"><rect height="10" width="5"><title>Asad
1</title></rect><text x="11" y="5" dy=".35em" text-anchor="start" style="font-size: 11px; font-family: Arial, Helvetica; pointer-events: none;">Asad</text></g><g class="node" transform="translate(280.6666666666667,450)"><rect height="10" width="5"><title>Aws
1</title></rect><text x="11" y="5" dy=".35em" text-anchor="start" style="font-size: 11px; font-family: Arial, Helvetica; pointer-events: none;">Aws</text></g><g class="node" transform="translate(280.6666666666667,470)"><rect height="10" width="5"><title>Azd
1</title></rect><text x="11" y="5" dy=".35em" text-anchor="start" style="font-size: 11px; font-family: Arial, Helvetica; pointer-events: none;">Azd</text></g><g class="node" transform="translate(280.6666666666667,490)"><rect height="10" width="5"><title>Qays Aylan
1</title></rect><text x="11" y="5" dy=".35em" text-anchor="start" style="font-size: 11px; font-family: Arial, Helvetica; pointer-events: none;">Qays Aylan</text></g><g class="node" transform="translate(280.6666666666667,0)"><rect height="370" width="5"><title>Quraysh
37</title></rect><text x="11" y="185" dy=".35em" text-anchor="start" style="font-size: 11px; font-family: Arial, Helvetica; pointer-events: none;">Quraysh</text></g><g class="node" transform="translate(280.6666666666667,380)"><rect height="20" width="5"><title>Thaqif
2</title></rect><text x="11" y="10" dy=".35em" text-anchor="start" style="font-size: 11px; font-family: Arial, Helvetica; pointer-events: none;">Thaqif</text></g></g></g></svg>