<svg preserveAspectRatio="xMinYMin meet" viewBox="0 0 847 520" width="847" height="520" xmlns="http://www.w3.org/2000/svg" version="1.1"><g transform="translate(0,10)"><g><path class="link" d="M5,250C142.83333333333334,250 142.83333333333334,250 280.6666666666667,250" style="stroke-width: 490; fill: none; stroke: rgb(191, 105, 105); stroke-opacity: 0.4;"><title>34</title></path><path class="link" d="M285.6666666666667,250C423.5,250 423.5,250 561.3333333333334,250" style="stroke-width: 490; fill: none; stroke: rgb(105, 191, 105); stroke-opacity: 0.4;"><title>34</title></path><path class="link" d="M566.3333333333334,242.79411764705884C704.1666666666667,242.79411764705884 704.1666666666667,237.7941176470588 842,237.7941176470588" style="stroke-width: 475.588; fill: none; stroke: rgb(105, 105, 191); stroke-opacity: 0.4;"><title>33</title></path><path class="link" d="M566.3333333333334,487.79411764705884C704.1666666666667,487.79411764705884 704.1666666666667,492.79411764705884 842,492.79411764705884" style="stroke-width: 14.4118; fill: none; stroke: rgb(105, 105, 191); stroke-opacity: 0.4;"><title>1</title></path></g><g><g class="node" transform="translate(561.3333333333334,5)"><rect height="490" width="5"><title>Qusayy
34</title></rect><text x="-6" y="245" dy=".35em" text-anchor="end" style="font-size: 11px; font-family: Arial, Helvetica; pointer-events: none;">Qusayy</text></g><g class="node" transform="translate(842,-2.842170943040401e-14)"><rect height="475.5882352941177" width="5" style="fill: rgb(102, 102, 102);"><title>Hashim
33</title></rect><text x="-6" y="237.79411764705884" dy=".35em" text-anchor="end" style="font-size: 11px; font-family: Arial, Helvetica; pointer-events: none;">Hashim</text></g><g class="node" transform="translate(842,485.5882352941177)"><rect height="14.411764705882353" width="5" style="fill: rgb(102, 102, 102);"><title>Umayyad
1</title></rect><text x="-6" y="7.205882352941177" dy=".35em" text-anchor="end" style="font-size: 11px; font-family: Arial, Helvetica; pointer-events: none;">Umayyad</text></g><g class="node" transform="translate(280.6666666666667,5)"><rect height="490" width="5"><title>Quraysh
34</title></rect><text x="11" y="245" dy=".35em" text-anchor="start" style="font-size: 11px; font-family: Arial, Helvetica; pointer-events: none;">Quraysh</text></g><g class="node" transform="translate(0,5)"><rect height="490" width="5"><title>Hashim
34</title></rect><text x="11" y="245" dy=".35em" text-anchor="start" style="font-size: 11px; font-family: Arial, Helvetica; pointer-events: none;">Hashim</text></g></g></g></svg>