<svg preserveAspectRatio="xMinYMin meet" viewBox="0 0 847 520" width="847" height="520" xmlns="http://www.w3.org/2000/svg" version="1.1"><g transform="translate(0,10)"><g><path class="link" d="M5,250C142.83333333333334,250 142.83333333333334,250 280.6666666666667,250" style="stroke-width: 460; fill: none; stroke: rgb(191, 105, 105); stroke-opacity: 0.4;"><title>19</title></path><path class="link" d="M285.6666666666667,189.4736842105263C423.5,189.4736842105263 423.5,169.4736842105263 561.3333333333334,169.4736842105263" style="stroke-width: 338.947; fill: none; stroke: rgb(191, 179, 105); stroke-opacity: 0.4;"><title>14</title></path><path class="link" d="M566.3333333333334,145.26315789473682C704.1666666666667,145.26315789473682 704.1666666666667,155.26315789473685 842,155.26315789473685" style="stroke-width: 290.526; fill: none; stroke: rgb(105, 191, 154); stroke-opacity: 0.4;"><title>12</title></path><path class="link" d="M285.6666666666667,383.1578947368421C423.5,383.1578947368421 423.5,373.1578947368421 561.3333333333334,373.1578947368421" style="stroke-width: 48.4211; fill: none; stroke: rgb(191, 179, 105); stroke-opacity: 0.4;"><title>2</title></path><path class="link" d="M566.3333333333334,314.7368421052631C704.1666666666667,314.7368421052631 704.1666666666667,465.7894736842105 842,465.7894736842105" style="stroke-width: 48.4211; fill: none; stroke: rgb(105, 191, 154); stroke-opacity: 0.4;"><title>2</title></path><path class="link" d="M566.3333333333334,373.1578947368421C704.1666666666667,373.1578947368421 704.1666666666667,334.7368421052631 842,334.7368421052631" style="stroke-width: 48.4211; fill: none; stroke: rgb(105, 154, 191); stroke-opacity: 0.4;"><title>2</title></path><path class="link" d="M285.6666666666667,443.6842105263158C423.5,443.6842105263158 423.5,453.6842105263158 561.3333333333334,453.6842105263158" style="stroke-width: 24.2105; fill: none; stroke: rgb(191, 179, 105); stroke-opacity: 0.4;"><title>1</title></path><path class="link" d="M566.3333333333334,419.4736842105263C704.1666666666667,419.4736842105263 704.1666666666667,371.05263157894734 842,371.05263157894734" style="stroke-width: 24.2105; fill: none; stroke: rgb(191, 105, 179); stroke-opacity: 0.4;"><title>1</title></path><path class="link" d="M285.6666666666667,467.89473684210526C423.5,467.89473684210526 423.5,487.89473684210526 561.3333333333334,487.89473684210526" style="stroke-width: 24.2105; fill: none; stroke: rgb(191, 179, 105); stroke-opacity: 0.4;"><title>1</title></path><path class="link" d="M285.6666666666667,419.4736842105263C423.5,419.4736842105263 423.5,419.4736842105263 561.3333333333334,419.4736842105263" style="stroke-width: 24.2105; fill: none; stroke: rgb(191, 179, 105); stroke-opacity: 0.4;"><title>1</title></path><path class="link" d="M566.3333333333334,487.89473684210526C704.1666666666667,487.89473684210526 704.1666666666667,419.4736842105263 842,419.4736842105263" style="stroke-width: 24.2105; fill: none; stroke: rgb(130, 105, 191); stroke-opacity: 0.4;"><title>1</title></path><path class="link" d="M566.3333333333334,453.6842105263158C704.1666666666667,453.6842105263158 704.1666666666667,395.2631578947368 842,395.2631578947368" style="stroke-width: 24.2105; fill: none; stroke: rgb(130, 191, 105); stroke-opacity: 0.4;"><title>1</title></path></g><g><g class="node" transform="translate(561.3333333333334,407.36842105263156)"><rect height="24.210526315789473" width="5"><title>Adi b. Ka'b
1</title></rect><text x="-6" y="12.105263157894736" dy=".35em" text-anchor="end" style="font-size: 11px; font-family: Arial, Helvetica; pointer-events: none;">Adi b. Ka'b</text></g><g class="node" transform="translate(561.3333333333334,441.57894736842104)"><rect height="24.210526315789473" width="5"><title>Makhzum
1</title></rect><text x="-6" y="12.105263157894736" dy=".35em" text-anchor="end" style="font-size: 11px; font-family: Arial, Helvetica; pointer-events: none;">Makhzum</text></g><g class="node" transform="translate(561.3333333333334,0)"><rect height="338.9473684210526" width="5"><title>Qusayy
14</title></rect><text x="-6" y="169.4736842105263" dy=".35em" text-anchor="end" style="font-size: 11px; font-family: Arial, Helvetica; pointer-events: none;">Qusayy</text></g><g class="node" transform="translate(561.3333333333334,348.9473684210526)"><rect height="48.421052631578945" width="5"><title>Taym b. Murra
2</title></rect><text x="-6" y="24.210526315789473" dy=".35em" text-anchor="end" style="font-size: 11px; font-family: Arial, Helvetica; pointer-events: none;">Taym b. Murra</text></g><g class="node" transform="translate(561.3333333333334,475.7894736842105)"><rect height="24.210526315789473" width="5"><title>Zuhra
1</title></rect><text x="-6" y="12.105263157894736" dy=".35em" text-anchor="end" style="font-size: 11px; font-family: Arial, Helvetica; pointer-events: none;">Zuhra</text></g><g class="node" transform="translate(842,310.52631578947364)"><rect height="121.05263157894737" width="5" style="fill: rgb(102, 102, 102);"><title>
5</title></rect><text x="-6" y="60.526315789473685" dy=".35em" text-anchor="end" style="font-size: 11px; font-family: Arial, Helvetica; pointer-events: none;"></text></g><g class="node" transform="translate(842,441.57894736842104)"><rect height="48.421052631578945" width="5" style="fill: rgb(102, 102, 102);"><title>Asad
2</title></rect><text x="-6" y="24.210526315789473" dy=".35em" text-anchor="end" style="font-size: 11px; font-family: Arial, Helvetica; pointer-events: none;">Asad</text></g><g class="node" transform="translate(842,10.000000000000028)"><rect height="290.52631578947364" width="5" style="fill: rgb(102, 102, 102);"><title>Hashim
12</title></rect><text x="-6" y="145.26315789473682" dy=".35em" text-anchor="end" style="font-size: 11px; font-family: Arial, Helvetica; pointer-events: none;">Hashim</text></g><g class="node" transform="translate(280.6666666666667,20)"><rect height="460" width="5"><title>Quraysh
19</title></rect><text x="11" y="230" dy=".35em" text-anchor="start" style="font-size: 11px; font-family: Arial, Helvetica; pointer-events: none;">Quraysh</text></g><g class="node" transform="translate(0,20)"><rect height="460" width="5"><title>Hashim
19</title></rect><text x="11" y="230" dy=".35em" text-anchor="start" style="font-size: 11px; font-family: Arial, Helvetica; pointer-events: none;">Hashim</text></g></g></g></svg>