<svg preserveAspectRatio="xMinYMin meet" viewBox="0 0 847 520" width="847" height="520" xmlns="http://www.w3.org/2000/svg" version="1.1"><g transform="translate(0,10)"><g><path class="link" d="M5,250C142.83333333333334,250 142.83333333333334,250 280.6666666666667,250" style="stroke-width: 460; fill: none; stroke: rgb(191, 105, 105); stroke-opacity: 0.4;"><title>13</title></path><path class="link" d="M285.6666666666667,143.84615384615387C423.5,143.84615384615387 423.5,123.84615384615385 561.3333333333334,123.84615384615385" style="stroke-width: 247.692; fill: none; stroke: rgb(191, 179, 105); stroke-opacity: 0.4;"><title>7</title></path><path class="link" d="M566.3333333333334,310.76923076923083C704.1666666666667,310.76923076923083 704.1666666666667,133.84615384615387 842,133.84615384615387" style="stroke-width: 106.154; fill: none; stroke: rgb(105, 154, 191); stroke-opacity: 0.4;"><title>3</title></path><path class="link" d="M285.6666666666667,320.76923076923083C423.5,320.76923076923083 423.5,310.76923076923083 561.3333333333334,310.76923076923083" style="stroke-width: 106.154; fill: none; stroke: rgb(191, 179, 105); stroke-opacity: 0.4;"><title>3</title></path><path class="link" d="M566.3333333333334,123.84615384615385C704.1666666666667,123.84615384615385 704.1666666666667,356.1538461538462 842,356.1538461538462" style="stroke-width: 106.154; fill: none; stroke: rgb(130, 191, 105); stroke-opacity: 0.4;"><title>3</title></path><path class="link" d="M566.3333333333334,212.30769230769232C704.1666666666667,212.30769230769232 704.1666666666667,454.61538461538464 842,454.61538461538464" style="stroke-width: 70.7692; fill: none; stroke: rgb(130, 191, 105); stroke-opacity: 0.4;"><title>2</title></path><path class="link" d="M566.3333333333334,35.38461538461539C704.1666666666667,35.38461538461539 704.1666666666667,45.38461538461539 842,45.38461538461539" style="stroke-width: 70.7692; fill: none; stroke: rgb(130, 191, 105); stroke-opacity: 0.4;"><title>2</title></path><path class="link" d="M285.6666666666667,426.92307692307696C423.5,426.92307692307696 423.5,436.92307692307696 561.3333333333334,436.92307692307696" style="stroke-width: 35.3846; fill: none; stroke: rgb(191, 179, 105); stroke-opacity: 0.4;"><title>1</title></path><path class="link" d="M285.6666666666667,391.53846153846155C423.5,391.53846153846155 423.5,391.5384615384616 561.3333333333334,391.5384615384616" style="stroke-width: 35.3846; fill: none; stroke: rgb(191, 179, 105); stroke-opacity: 0.4;"><title>1</title></path><path class="link" d="M566.3333333333334,482.3076923076923C704.1666666666667,482.3076923076923 704.1666666666667,275.3846153846154 842,275.3846153846154" style="stroke-width: 35.3846; fill: none; stroke: rgb(105, 191, 154); stroke-opacity: 0.4;"><title>1</title></path><path class="link" d="M285.6666666666667,462.3076923076923C423.5,462.3076923076923 423.5,482.3076923076923 561.3333333333334,482.3076923076923" style="stroke-width: 35.3846; fill: none; stroke: rgb(191, 179, 105); stroke-opacity: 0.4;"><title>1</title></path><path class="link" d="M566.3333333333334,391.5384615384616C704.1666666666667,391.5384615384616 704.1666666666667,204.61538461538464 842,204.61538461538464" style="stroke-width: 35.3846; fill: none; stroke: rgb(130, 105, 191); stroke-opacity: 0.4;"><title>1</title></path><path class="link" d="M566.3333333333334,436.92307692307696C704.1666666666667,436.92307692307696 704.1666666666667,240 842,240" style="stroke-width: 35.3846; fill: none; stroke: rgb(191, 105, 179); stroke-opacity: 0.4;"><title>1</title></path></g><g><g class="node" transform="translate(561.3333333333334,373.8461538461539)"><rect height="35.38461538461539" width="5"><title>Amir b. Lu'ayy
1</title></rect><text x="-6" y="17.692307692307693" dy=".35em" text-anchor="end" style="font-size: 11px; font-family: Arial, Helvetica; pointer-events: none;">Amir b. Lu'ayy</text></g><g class="node" transform="translate(561.3333333333334,257.69230769230774)"><rect height="106.15384615384616" width="5"><title>Makhzum
3</title></rect><text x="-6" y="53.07692307692308" dy=".35em" text-anchor="end" style="font-size: 11px; font-family: Arial, Helvetica; pointer-events: none;">Makhzum</text></g><g class="node" transform="translate(561.3333333333334,0)"><rect height="247.6923076923077" width="5"><title>Qusayy
7</title></rect><text x="-6" y="123.84615384615385" dy=".35em" text-anchor="end" style="font-size: 11px; font-family: Arial, Helvetica; pointer-events: none;">Qusayy</text></g><g class="node" transform="translate(561.3333333333334,419.2307692307693)"><rect height="35.38461538461539" width="5"><title>Sahm
1</title></rect><text x="-6" y="17.692307692307693" dy=".35em" text-anchor="end" style="font-size: 11px; font-family: Arial, Helvetica; pointer-events: none;">Sahm</text></g><g class="node" transform="translate(561.3333333333334,464.61538461538464)"><rect height="35.38461538461539" width="5"><title>Zuhra
1</title></rect><text x="-6" y="17.692307692307693" dy=".35em" text-anchor="end" style="font-size: 11px; font-family: Arial, Helvetica; pointer-events: none;">Zuhra</text></g><g class="node" transform="translate(842,10)"><rect height="283.0769230769231" width="5" style="fill: rgb(102, 102, 102);"><title>
8</title></rect><text x="-6" y="141.53846153846155" dy=".35em" text-anchor="end" style="font-size: 11px; font-family: Arial, Helvetica; pointer-events: none;"></text></g><g class="node" transform="translate(842,419.2307692307693)"><rect height="70.76923076923077" width="5" style="fill: rgb(102, 102, 102);"><title>Asad
2</title></rect><text x="-6" y="35.38461538461539" dy=".35em" text-anchor="end" style="font-size: 11px; font-family: Arial, Helvetica; pointer-events: none;">Asad</text></g><g class="node" transform="translate(842,303.0769230769231)"><rect height="106.15384615384616" width="5" style="fill: rgb(102, 102, 102);"><title>Hashim
3</title></rect><text x="-6" y="53.07692307692308" dy=".35em" text-anchor="end" style="font-size: 11px; font-family: Arial, Helvetica; pointer-events: none;">Hashim</text></g><g class="node" transform="translate(280.6666666666667,20)"><rect height="460" width="5"><title>Quraysh
13</title></rect><text x="11" y="230" dy=".35em" text-anchor="start" style="font-size: 11px; font-family: Arial, Helvetica; pointer-events: none;">Quraysh</text></g><g class="node" transform="translate(0,20)"><rect height="460" width="5"><title>Hashim
13</title></rect><text x="11" y="230" dy=".35em" text-anchor="start" style="font-size: 11px; font-family: Arial, Helvetica; pointer-events: none;">Hashim</text></g></g></g></svg>