<svg width="847" height="520" xmlns="http://www.w3.org/2000/svg" version="1.1"><g transform="translate(0,10)"><g><path class="link" d="M5,190.80357142857144C142.83333333333334,190.80357142857144 142.83333333333334,135.80357142857142 280.6666666666667,135.80357142857142" style="stroke-width: 271.607; fill: none; stroke: rgb(191, 105, 105); stroke-opacity: 0.4;"><title>39</title></path><path class="link" d="M285.6666666666667,118.39285714285711C423.5,118.39285714285711 423.5,128.3928571428571 561.3333333333334,128.3928571428571" style="stroke-width: 236.786; fill: none; stroke: rgb(191, 127, 105); stroke-opacity: 0.4;"><title>34</title></path><path class="link" d="M566.3333333333334,117.94642857142854C704.1666666666667,117.94642857142854 704.1666666666667,142.94642857142856 842,142.94642857142856" style="stroke-width: 215.893; fill: none; stroke: rgb(105, 157, 191); stroke-opacity: 0.4;"><title>31</title></path><path class="link" d="M566.3333333333334,295.08928571428567C704.1666666666667,295.08928571428567 704.1666666666667,306.1607142857143 842,306.1607142857143" style="stroke-width: 76.6071; fill: none; stroke: rgb(105, 113, 191); stroke-opacity: 0.4;"><title>11</title></path><path class="link" d="M566.3333333333334,353.83928571428567C704.1666666666667,353.83928571428567 704.1666666666667,354.9107142857142 842,354.9107142857142" style="stroke-width: 20.8929; fill: none; stroke: rgb(165, 105, 191); stroke-opacity: 0.4;"><title>3</title></path><path class="link" d="M5,337.05357142857144C142.83333333333334,337.05357142857144 142.83333333333334,292.05357142857144 280.6666666666667,292.05357142857144" style="stroke-width: 20.8929; fill: none; stroke: rgb(191, 105, 105); stroke-opacity: 0.4;"><title>3</title></path><path class="link" d="M5,357.9464285714286C142.83333333333334,357.9464285714286 142.83333333333334,322.9464285714286 280.6666666666667,322.9464285714286" style="stroke-width: 20.8929; fill: none; stroke: rgb(191, 105, 105); stroke-opacity: 0.4;"><title>3</title></path><path class="link" d="M285.6666666666667,247.23214285714283C423.5,247.23214285714283 423.5,353.83928571428567 561.3333333333334,353.83928571428567" style="stroke-width: 20.8929; fill: none; stroke: rgb(191, 127, 105); stroke-opacity: 0.4;"><title>3</title></path><path class="link" d="M285.6666666666667,288.5714285714286C423.5,288.5714285714286 423.5,263.74999999999994 561.3333333333334,263.74999999999994" style="stroke-width: 13.9286; fill: none; stroke: rgb(165, 191, 105); stroke-opacity: 0.4;"><title>2</title></path><path class="link" d="M285.6666666666667,319.4642857142858C423.5,319.4642857142858 423.5,381.25 561.3333333333334,381.25" style="stroke-width: 13.9286; fill: none; stroke: rgb(142, 191, 105); stroke-opacity: 0.4;"><title>2</title></path><path class="link" d="M5,375.35714285714295C142.83333333333334,375.35714285714295 142.83333333333334,350.35714285714295 280.6666666666667,350.35714285714295" style="stroke-width: 13.9286; fill: none; stroke: rgb(191, 105, 105); stroke-opacity: 0.4;"><title>2</title></path><path class="link" d="M285.6666666666667,374.2857142857144C423.5,374.2857142857144 423.5,277.6785714285714 561.3333333333334,277.6785714285714" style="stroke-width: 13.9286; fill: none; stroke: rgb(191, 172, 105); stroke-opacity: 0.4;"><title>2</title></path><path class="link" d="M566.3333333333334,381.25C704.1666666666667,381.25 704.1666666666667,372.32142857142856 842,372.32142857142856" style="stroke-width: 13.9286; fill: none; stroke: rgb(142, 105, 191); stroke-opacity: 0.4;"><title>2</title></path><path class="link" d="M5,389.2857142857144C142.83333333333334,389.2857142857144 142.83333333333334,374.2857142857144 280.6666666666667,374.2857142857144" style="stroke-width: 13.9286; fill: none; stroke: rgb(191, 105, 105); stroke-opacity: 0.4;"><title>2</title></path><path class="link" d="M285.6666666666667,394.73214285714295C423.5,394.73214285714295 423.5,288.1249999999999 561.3333333333334,288.1249999999999" style="stroke-width: 6.96429; fill: none; stroke: rgb(105, 191, 180); stroke-opacity: 0.4;"><title>1</title></path><path class="link" d="M285.6666666666667,261.1607142857143C423.5,261.1607142857143 423.5,418.6607142857143 561.3333333333334,418.6607142857143" style="stroke-width: 6.96429; fill: none; stroke: rgb(191, 127, 105); stroke-opacity: 0.4;"><title>1</title></path><path class="link" d="M285.6666666666667,346.87500000000006C423.5,346.87500000000006 423.5,452.5892857142857 561.3333333333334,452.5892857142857" style="stroke-width: 6.96429; fill: none; stroke: rgb(191, 150, 105); stroke-opacity: 0.4;"><title>1</title></path><path class="link" d="M285.6666666666667,353.8392857142858C423.5,353.8392857142858 423.5,469.55357142857144 561.3333333333334,469.55357142857144" style="stroke-width: 6.96429; fill: none; stroke: rgb(191, 150, 105); stroke-opacity: 0.4;"><title>1</title></path><path class="link" d="M5,427.58928571428584C142.83333333333334,427.58928571428584 142.83333333333334,462.58928571428584 280.6666666666667,462.58928571428584" style="stroke-width: 6.96429; fill: none; stroke: rgb(191, 105, 105); stroke-opacity: 0.4;"><title>1</title></path><path class="link" d="M285.6666666666667,428.6607142857144C423.5,428.6607142857144 423.5,302.05357142857133 561.3333333333334,302.05357142857133" style="stroke-width: 6.96429; fill: none; stroke: rgb(187, 191, 105); stroke-opacity: 0.4;"><title>1</title></path><path class="link" d="M285.6666666666667,299.01785714285717C423.5,299.01785714285717 423.5,486.51785714285717 561.3333333333334,486.51785714285717" style="stroke-width: 6.96429; fill: none; stroke: rgb(165, 191, 105); stroke-opacity: 0.4;"><title>1</title></path><path class="link" d="M5,399.73214285714295C142.83333333333334,399.73214285714295 142.83333333333334,394.73214285714295 280.6666666666667,394.73214285714295" style="stroke-width: 6.96429; fill: none; stroke: rgb(191, 105, 105); stroke-opacity: 0.4;"><title>1</title></path><path class="link" d="M5,420.6250000000001C142.83333333333334,420.6250000000001 142.83333333333334,445.6250000000001 280.6666666666667,445.6250000000001" style="stroke-width: 6.96429; fill: none; stroke: rgb(191, 105, 105); stroke-opacity: 0.4;"><title>1</title></path><path class="link" d="M285.6666666666667,329.91071428571433C423.5,329.91071428571433 423.5,401.69642857142856 561.3333333333334,401.69642857142856" style="stroke-width: 6.96429; fill: none; stroke: rgb(142, 191, 105); stroke-opacity: 0.4;"><title>1</title></path><path class="link" d="M285.6666666666667,496.5178571428573C423.5,496.5178571428573 423.5,329.91071428571416 561.3333333333334,329.91071428571416" style="stroke-width: 6.96429; fill: none; stroke: rgb(120, 191, 105); stroke-opacity: 0.4;"><title>1</title></path><path class="link" d="M285.6666666666667,411.69642857142867C423.5,411.69642857142867 423.5,295.0892857142856 561.3333333333334,295.0892857142856" style="stroke-width: 6.96429; fill: none; stroke: rgb(105, 191, 113); stroke-opacity: 0.4;"><title>1</title></path><path class="link" d="M285.6666666666667,479.55357142857156C423.5,479.55357142857156 423.5,322.9464285714285 561.3333333333334,322.9464285714285" style="stroke-width: 6.96429; fill: none; stroke: rgb(105, 191, 135); stroke-opacity: 0.4;"><title>1</title></path><path class="link" d="M285.6666666666667,445.6250000000001C423.5,445.6250000000001 423.5,309.01785714285705 561.3333333333334,309.01785714285705" style="stroke-width: 6.96429; fill: none; stroke: rgb(105, 191, 157); stroke-opacity: 0.4;"><title>1</title></path><path class="link" d="M285.6666666666667,268.12499999999994C423.5,268.12499999999994 423.5,435.625 561.3333333333334,435.625" style="stroke-width: 6.96429; fill: none; stroke: rgb(191, 127, 105); stroke-opacity: 0.4;"><title>1</title></path><path class="link" d="M285.6666666666667,462.58928571428584C423.5,462.58928571428584 423.5,315.9821428571428 561.3333333333334,315.9821428571428" style="stroke-width: 6.96429; fill: none; stroke: rgb(105, 180, 191); stroke-opacity: 0.4;"><title>1</title></path><path class="link" d="M5,434.55357142857156C142.83333333333334,434.55357142857156 142.83333333333334,479.55357142857156 280.6666666666667,479.55357142857156" style="stroke-width: 6.96429; fill: none; stroke: rgb(191, 105, 105); stroke-opacity: 0.4;"><title>1</title></path><path class="link" d="M566.3333333333334,236.3392857142857C704.1666666666667,236.3392857142857 704.1666666666667,427.58928571428567 842,427.58928571428567" style="stroke-width: 6.96429; fill: none; stroke: rgb(105, 157, 191); stroke-opacity: 0.4;"><title>1</title></path><path class="link" d="M566.3333333333334,229.37499999999997C704.1666666666667,229.37499999999997 704.1666666666667,264.37499999999994 842,264.37499999999994" style="stroke-width: 6.96429; fill: none; stroke: rgb(105, 157, 191); stroke-opacity: 0.4;"><title>1</title></path><path class="link" d="M566.3333333333334,243.30357142857142C704.1666666666667,243.30357142857142 704.1666666666667,461.5178571428571 842,461.5178571428571" style="stroke-width: 6.96429; fill: none; stroke: rgb(105, 157, 191); stroke-opacity: 0.4;"><title>1</title></path><path class="link" d="M566.3333333333334,452.5892857142857C704.1666666666667,452.5892857142857 704.1666666666667,444.5535714285714 842,444.5535714285714" style="stroke-width: 6.96429; fill: none; stroke: rgb(105, 135, 191); stroke-opacity: 0.4;"><title>1</title></path><path class="link" d="M5,406.69642857142867C142.83333333333334,406.69642857142867 142.83333333333334,411.69642857142867 280.6666666666667,411.69642857142867" style="stroke-width: 6.96429; fill: none; stroke: rgb(191, 105, 105); stroke-opacity: 0.4;"><title>1</title></path><path class="link" d="M566.3333333333334,486.51785714285717C704.1666666666667,486.51785714285717 704.1666666666667,410.62499999999994 842,410.62499999999994" style="stroke-width: 6.96429; fill: none; stroke: rgb(120, 105, 191); stroke-opacity: 0.4;"><title>1</title></path><path class="link" d="M5,441.5178571428573C142.83333333333334,441.5178571428573 142.83333333333334,496.5178571428573 280.6666666666667,496.5178571428573" style="stroke-width: 6.96429; fill: none; stroke: rgb(191, 105, 105); stroke-opacity: 0.4;"><title>1</title></path><path class="link" d="M5,413.6607142857144C142.83333333333334,413.6607142857144 142.83333333333334,428.6607142857144 280.6666666666667,428.6607142857144" style="stroke-width: 6.96429; fill: none; stroke: rgb(191, 105, 105); stroke-opacity: 0.4;"><title>1</title></path><path class="link" d="M566.3333333333334,469.55357142857144C704.1666666666667,469.55357142857144 704.1666666666667,403.6607142857142 842,403.6607142857142" style="stroke-width: 6.96429; fill: none; stroke: rgb(187, 105, 191); stroke-opacity: 0.4;"><title>1</title></path><path class="link" d="M566.3333333333334,401.69642857142856C704.1666666666667,401.69642857142856 704.1666666666667,382.76785714285705 842,382.76785714285705" style="stroke-width: 6.96429; fill: none; stroke: rgb(191, 105, 172); stroke-opacity: 0.4;"><title>1</title></path><path class="link" d="M566.3333333333334,418.6607142857143C704.1666666666667,418.6607142857143 704.1666666666667,389.7321428571428 842,389.7321428571428" style="stroke-width: 6.96429; fill: none; stroke: rgb(191, 105, 150); stroke-opacity: 0.4;"><title>1</title></path><path class="link" d="M566.3333333333334,435.625C704.1666666666667,435.625 704.1666666666667,396.6964285714285 842,396.6964285714285" style="stroke-width: 6.96429; fill: none; stroke: rgb(191, 105, 127); stroke-opacity: 0.4;"><title>1</title></path></g><g><g class="node" transform="translate(0,55)"><rect height="390" width="5"><title>Hashim
56</title></rect><text x="11" y="195" dy=".35em" text-anchor="start" style="font-size: 11px; font-family: Arial, Helvetica; pointer-events: none;">Hashim</text></g><g class="node" transform="translate(561.3333333333334,256.7857142857142)"><rect height="76.60714285714286" width="5"><title>
11</title></rect><text x="-6" y="38.30357142857143" dy=".35em" text-anchor="end" style="font-size: 11px; font-family: Arial, Helvetica; pointer-events: none;"></text></g><g class="node" transform="translate(561.3333333333334,398.2142857142857)"><rect height="6.964285714285714" width="5"><title>Abs b. Baghid
1</title></rect><text x="-6" y="3.482142857142857" dy=".35em" text-anchor="end" style="font-size: 11px; font-family: Arial, Helvetica; pointer-events: none;">Abs b. Baghid</text></g><g class="node" transform="translate(561.3333333333334,415.17857142857144)"><rect height="6.964285714285714" width="5"><title>Adi b. Ka'b
1</title></rect><text x="-6" y="3.482142857142857" dy=".35em" text-anchor="end" style="font-size: 11px; font-family: Arial, Helvetica; pointer-events: none;">Adi b. Ka'b</text></g><g class="node" transform="translate(561.3333333333334,432.14285714285717)"><rect height="6.964285714285714" width="5"><title>Amir b. Lu'ayy
1</title></rect><text x="-6" y="3.482142857142857" dy=".35em" text-anchor="end" style="font-size: 11px; font-family: Arial, Helvetica; pointer-events: none;">Amir b. Lu'ayy</text></g><g class="node" transform="translate(561.3333333333334,449.1071428571429)"><rect height="6.964285714285714" width="5"><title>Amir b. Sa'sa'a
1</title></rect><text x="-6" y="3.482142857142857" dy=".35em" text-anchor="end" style="font-size: 11px; font-family: Arial, Helvetica; pointer-events: none;">Amir b. Sa'sa'a</text></g><g class="node" transform="translate(561.3333333333334,374.2857142857143)"><rect height="13.928571428571429" width="5"><title>Fazara
2</title></rect><text x="-6" y="6.964285714285714" dy=".35em" text-anchor="end" style="font-size: 11px; font-family: Arial, Helvetica; pointer-events: none;">Fazara</text></g><g class="node" transform="translate(561.3333333333334,466.0714285714286)"><rect height="6.964285714285714" width="5"><title>Mazin b. Mansur
1</title></rect><text x="-6" y="3.482142857142857" dy=".35em" text-anchor="end" style="font-size: 11px; font-family: Arial, Helvetica; pointer-events: none;">Mazin b. Mansur</text></g><g class="node" transform="translate(561.3333333333334,483.03571428571433)"><rect height="6.964285714285714" width="5"><title>Najjar
1</title></rect><text x="-6" y="3.482142857142857" dy=".35em" text-anchor="end" style="font-size: 11px; font-family: Arial, Helvetica; pointer-events: none;">Najjar</text></g><g class="node" transform="translate(561.3333333333334,9.999999999999972)"><rect height="236.78571428571428" width="5"><title>Qusayy
34</title></rect><text x="-6" y="118.39285714285714" dy=".35em" text-anchor="end" style="font-size: 11px; font-family: Arial, Helvetica; pointer-events: none;">Qusayy</text></g><g class="node" transform="translate(561.3333333333334,343.3928571428571)"><rect height="20.892857142857142" width="5"><title>Taym b. Murra
3</title></rect><text x="-6" y="10.446428571428571" dy=".35em" text-anchor="end" style="font-size: 11px; font-family: Arial, Helvetica; pointer-events: none;">Taym b. Murra</text></g><g class="node" transform="translate(842,260.8928571428571)"><rect height="153.21428571428572" width="5" style="fill: rgb(102, 102, 102);"><title>
22</title></rect><text x="-6" y="76.60714285714286" dy=".35em" text-anchor="end" style="font-size: 11px; font-family: Arial, Helvetica; pointer-events: none;"></text></g><g class="node" transform="translate(842,424.10714285714283)"><rect height="6.964285714285714" width="5" style="fill: rgb(102, 102, 102);"><title>Asad
1</title></rect><text x="-6" y="3.482142857142857" dy=".35em" text-anchor="end" style="font-size: 11px; font-family: Arial, Helvetica; pointer-events: none;">Asad</text></g><g class="node" transform="translate(842,35)"><rect height="215.89285714285714" width="5" style="fill: rgb(102, 102, 102);"><title>Hashim
31</title></rect><text x="-6" y="107.94642857142857" dy=".35em" text-anchor="end" style="font-size: 11px; font-family: Arial, Helvetica; pointer-events: none;">Hashim</text></g><g class="node" transform="translate(842,441.07142857142856)"><rect height="6.964285714285714" width="5" style="fill: rgb(102, 102, 102);"><title>Ka'b
1</title></rect><text x="-6" y="3.482142857142857" dy=".35em" text-anchor="end" style="font-size: 11px; font-family: Arial, Helvetica; pointer-events: none;">Ka'b</text></g><g class="node" transform="translate(842,458.0357142857143)"><rect height="6.964285714285714" width="5" style="fill: rgb(102, 102, 102);"><title>Umayyad
1</title></rect><text x="-6" y="3.482142857142857" dy=".35em" text-anchor="end" style="font-size: 11px; font-family: Arial, Helvetica; pointer-events: none;">Umayyad</text></g><g class="node" transform="translate(280.6666666666667,442.1428571428573)"><rect height="6.964285714285714" width="5"><title>Bakr b. Wa'il
1</title></rect><text x="11" y="3.482142857142857" dy=".35em" text-anchor="start" style="font-size: 11px; font-family: Arial, Helvetica; pointer-events: none;">Bakr b. Wa'il</text></g><g class="node" transform="translate(280.6666666666667,408.21428571428584)"><rect height="6.964285714285714" width="5"><title>Bali
1</title></rect><text x="11" y="3.482142857142857" dy=".35em" text-anchor="start" style="font-size: 11px; font-family: Arial, Helvetica; pointer-events: none;">Bali</text></g><g class="node" transform="translate(280.6666666666667,312.50000000000006)"><rect height="20.892857142857142" width="5"><title>Ghatafan
3</title></rect><text x="11" y="10.446428571428571" dy=".35em" text-anchor="start" style="font-size: 11px; font-family: Arial, Helvetica; pointer-events: none;">Ghatafan</text></g><g class="node" transform="translate(280.6666666666667,459.107142857143)"><rect height="6.964285714285714" width="5"><title>Hamdan
1</title></rect><text x="11" y="3.482142857142857" dy=".35em" text-anchor="start" style="font-size: 11px; font-family: Arial, Helvetica; pointer-events: none;">Hamdan</text></g><g class="node" transform="translate(280.6666666666667,476.0714285714287)"><rect height="6.964285714285714" width="5"><title>Kalbi
1</title></rect><text x="11" y="3.482142857142857" dy=".35em" text-anchor="start" style="font-size: 11px; font-family: Arial, Helvetica; pointer-events: none;">Kalbi</text></g><g class="node" transform="translate(280.6666666666667,391.2500000000001)"><rect height="6.964285714285714" width="5"><title>Khatham
1</title></rect><text x="11" y="3.482142857142857" dy=".35em" text-anchor="start" style="font-size: 11px; font-family: Arial, Helvetica; pointer-events: none;">Khatham</text></g><g class="node" transform="translate(280.6666666666667,281.6071428571429)"><rect height="20.892857142857142" width="5"><title>Khazraj
3</title></rect><text x="11" y="10.446428571428571" dy=".35em" text-anchor="start" style="font-size: 11px; font-family: Arial, Helvetica; pointer-events: none;">Khazraj</text></g><g class="node" transform="translate(280.6666666666667,425.17857142857156)"><rect height="6.964285714285714" width="5"><title>Kinda
1</title></rect><text x="11" y="3.482142857142857" dy=".35em" text-anchor="start" style="font-size: 11px; font-family: Arial, Helvetica; pointer-events: none;">Kinda</text></g><g class="node" transform="translate(280.6666666666667,343.3928571428572)"><rect height="13.928571428571429" width="5"><title>Qays Aylan
2</title></rect><text x="11" y="6.964285714285714" dy=".35em" text-anchor="start" style="font-size: 11px; font-family: Arial, Helvetica; pointer-events: none;">Qays Aylan</text></g><g class="node" transform="translate(280.6666666666667,-2.842170943040401e-14)"><rect height="271.6071428571429" width="5"><title>Quraysh
39</title></rect><text x="11" y="135.80357142857144" dy=".35em" text-anchor="start" style="font-size: 11px; font-family: Arial, Helvetica; pointer-events: none;">Quraysh</text></g><g class="node" transform="translate(280.6666666666667,367.32142857142867)"><rect height="13.928571428571429" width="5"><title>Tamim
2</title></rect><text x="11" y="6.964285714285714" dy=".35em" text-anchor="start" style="font-size: 11px; font-family: Arial, Helvetica; pointer-events: none;">Tamim</text></g><g class="node" transform="translate(280.6666666666667,493.03571428571445)"><rect height="6.964285714285714" width="5"><title>Thaqif
1</title></rect><text x="11" y="3.482142857142857" dy=".35em" text-anchor="start" style="font-size: 11px; font-family: Arial, Helvetica; pointer-events: none;">Thaqif</text></g></g></g></svg>