<svg width="847" height="520" xmlns="http://www.w3.org/2000/svg" version="1.1"><g transform="translate(0,10)"><g><path class="link" d="M5,156C107.75,156 107.75,146 210.5,146" style="stroke-width: 282; fill: none; stroke: rgb(191, 105, 105); stroke-opacity: 0.4;"><title>3</title></path><path class="link" d="M426,94C528.75,94 528.75,297 631.5,297" style="stroke-width: 188; fill: none; stroke: rgb(105, 191, 139); stroke-opacity: 0.4;"><title>2</title></path><path class="link" d="M636.5,99C739.25,99 739.25,104 842,104" style="stroke-width: 188; fill: none; stroke: rgb(255, 255, 255); stroke-opacity: 0.4;"><title>2</title></path><path class="link" d="M215.5,99C318.25,99 318.25,94 421,94" style="stroke-width: 188; fill: none; stroke: rgb(191, 156, 105); stroke-opacity: 0.4;"><title>2</title></path><path class="link" d="M426,349C528.75,349 528.75,448 631.5,448" style="stroke-width: 94; fill: none; stroke: rgb(105, 139, 191); stroke-opacity: 0.4;"><title>1</title></path><path class="link" d="M215.5,240C318.25,240 318.25,453 421,453" style="stroke-width: 94; fill: none; stroke: rgb(191, 156, 105); stroke-opacity: 0.4;"><title>1</title></path><path class="link" d="M215.5,448C318.25,448 318.25,349 421,349" style="stroke-width: 94; fill: none; stroke: rgb(122, 191, 105); stroke-opacity: 0.4;"><title>1</title></path><path class="link" d="M5,344C107.75,344 107.75,344 210.5,344" style="stroke-width: 94; fill: none; stroke: rgb(191, 105, 105); stroke-opacity: 0.4;"><title>1</title></path><path class="link" d="M426,245C528.75,245 528.75,52 631.5,52" style="stroke-width: 94; fill: none; stroke: rgb(255, 255, 255); stroke-opacity: 0.4;"><title>1</title></path><path class="link" d="M215.5,344C318.25,344 318.25,245 421,245" style="stroke-width: 94; fill: none; stroke: rgb(174, 191, 105); stroke-opacity: 0.4;"><title>1</title></path><path class="link" d="M426,453C528.75,453 528.75,146 631.5,146" style="stroke-width: 94; fill: none; stroke: rgb(122, 105, 191); stroke-opacity: 0.4;"><title>1</title></path><path class="link" d="M636.5,344C739.25,344 739.25,443 842,443" style="stroke-width: 94; fill: none; stroke: rgb(174, 105, 191); stroke-opacity: 0.4;"><title>1</title></path><path class="link" d="M636.5,250C739.25,250 739.25,245 842,245" style="stroke-width: 94; fill: none; stroke: rgb(174, 105, 191); stroke-opacity: 0.4;"><title>1</title></path><path class="link" d="M5,438C107.75,438 107.75,448 210.5,448" style="stroke-width: 94; fill: none; stroke: rgb(191, 105, 105); stroke-opacity: 0.4;"><title>1</title></path><path class="link" d="M636.5,448C739.25,448 739.25,339 842,339" style="stroke-width: 94; fill: none; stroke: rgb(191, 105, 156); stroke-opacity: 0.4;"><title>1</title></path></g><g><g class="node" transform="translate(0,15)"><rect height="470" width="5"><title>Marwanid
5</title></rect><text x="11" y="235" dy=".35em" text-anchor="start" style="font-size: 11px; font-family: Arial, Helvetica; pointer-events: none;">Marwanid</text></g><g class="node" transform="translate(421,198)"><rect height="94" width="5"><title>
1</title></rect><text x="11" y="47" dy=".35em" text-anchor="start" style="font-size: 11px; font-family: Arial, Helvetica; pointer-events: none;"></text></g><g class="node" transform="translate(421,302)"><rect height="94" width="5"><title>Amir b. Sa'sa'a
1</title></rect><text x="11" y="47" dy=".35em" text-anchor="start" style="font-size: 11px; font-family: Arial, Helvetica; pointer-events: none;">Amir b. Sa'sa'a</text></g><g class="node" transform="translate(421,406)"><rect height="94" width="5"><title>Makhzum
1</title></rect><text x="11" y="47" dy=".35em" text-anchor="start" style="font-size: 11px; font-family: Arial, Helvetica; pointer-events: none;">Makhzum</text></g><g class="node" transform="translate(421,0)"><rect height="188" width="5"><title>Qusayy
2</title></rect><text x="11" y="94" dy=".35em" text-anchor="start" style="font-size: 11px; font-family: Arial, Helvetica; pointer-events: none;">Qusayy</text></g><g class="node" transform="translate(631.5,5)"><rect height="188" width="5"><title>
2</title></rect><text x="-6" y="94" dy=".35em" text-anchor="end" style="font-size: 11px; font-family: Arial, Helvetica; pointer-events: none;"></text></g><g class="node" transform="translate(631.5,401)"><rect height="94" width="5"><title>Malik of Ja'far of Kilab
1</title></rect><text x="-6" y="47" dy=".35em" text-anchor="end" style="font-size: 11px; font-family: Arial, Helvetica; pointer-events: none;">Malik of Ja'far of Kilab</text></g><g class="node" transform="translate(631.5,203)"><rect height="188" width="5"><title>Umayyad
2</title></rect><text x="-6" y="94" dy=".35em" text-anchor="end" style="font-size: 11px; font-family: Arial, Helvetica; pointer-events: none;">Umayyad</text></g><g class="node" transform="translate(842,10)"><rect height="376" width="5" style="fill: rgb(102, 102, 102);"><title>
4</title></rect><text x="-6" y="188" dy=".35em" text-anchor="end" style="font-size: 11px; font-family: Arial, Helvetica; pointer-events: none;"></text></g><g class="node" transform="translate(842,396)"><rect height="94" width="5" style="fill: rgb(102, 102, 102);"><title>Uthmanid
1</title></rect><text x="-6" y="47" dy=".35em" text-anchor="end" style="font-size: 11px; font-family: Arial, Helvetica; pointer-events: none;">Uthmanid</text></g><g class="node" transform="translate(210.5,297)"><rect height="94" width="5"><title>Kalb
1</title></rect><text x="11" y="47" dy=".35em" text-anchor="start" style="font-size: 11px; font-family: Arial, Helvetica; pointer-events: none;">Kalb</text></g><g class="node" transform="translate(210.5,401)"><rect height="94" width="5"><title>Qays Aylan
1</title></rect><text x="11" y="47" dy=".35em" text-anchor="start" style="font-size: 11px; font-family: Arial, Helvetica; pointer-events: none;">Qays Aylan</text></g><g class="node" transform="translate(210.5,5)"><rect height="282" width="5"><title>Quraysh
3</title></rect><text x="11" y="141" dy=".35em" text-anchor="start" style="font-size: 11px; font-family: Arial, Helvetica; pointer-events: none;">Quraysh</text></g></g></g></svg>