<svg width="847" height="520" xmlns="http://www.w3.org/2000/svg" version="1.1"><g transform="translate(0,10)"><g><path class="link" d="M5,250C107.75,250 107.75,250 210.5,250" style="stroke-width: 480; fill: none; stroke: rgb(191, 105, 105); stroke-opacity: 0.4;"><title>9</title></path><path class="link" d="M215.5,250C318.25,250 318.25,250 421,250" style="stroke-width: 480; fill: none; stroke: rgb(148, 191, 105); stroke-opacity: 0.4;"><title>9</title></path><path class="link" d="M426,250C528.75,250 528.75,250 631.5,250" style="stroke-width: 480; fill: none; stroke: rgb(105, 191, 191); stroke-opacity: 0.4;"><title>9</title></path><path class="link" d="M636.5,196.66666666666669C739.25,196.66666666666669 739.25,186.66666666666669 842,186.66666666666669" style="stroke-width: 373.333; fill: none; stroke: rgb(148, 105, 191); stroke-opacity: 0.4;"><title>7</title></path><path class="link" d="M636.5,463.33333333333337C739.25,463.33333333333337 739.25,473.33333333333337 842,473.33333333333337" style="stroke-width: 53.3333; fill: none; stroke: rgb(148, 105, 191); stroke-opacity: 0.4;"><title>1</title></path><path class="link" d="M636.5,410.00000000000006C739.25,410.00000000000006 739.25,410.00000000000006 842,410.00000000000006" style="stroke-width: 53.3333; fill: none; stroke: rgb(148, 105, 191); stroke-opacity: 0.4;"><title>1</title></path></g><g><g class="node" transform="translate(421,10)"><rect height="480" width="5"><title>Qusayy
9</title></rect><text x="11" y="240" dy=".35em" text-anchor="start" style="font-size: 11px; font-family: Arial, Helvetica; pointer-events: none;">Qusayy</text></g><g class="node" transform="translate(631.5,10)"><rect height="480" width="5"><title>Umayyad
9</title></rect><text x="-6" y="240" dy=".35em" text-anchor="end" style="font-size: 11px; font-family: Arial, Helvetica; pointer-events: none;">Umayyad</text></g><g class="node" transform="translate(842,383.33333333333337)"><rect height="53.333333333333336" width="5" style="fill: rgb(102, 102, 102);"><title>
1</title></rect><text x="-6" y="26.666666666666668" dy=".35em" text-anchor="end" style="font-size: 11px; font-family: Arial, Helvetica; pointer-events: none;"></text></g><g class="node" transform="translate(842,0)"><rect height="373.33333333333337" width="5" style="fill: rgb(102, 102, 102);"><title>Marwanid
7</title></rect><text x="-6" y="186.66666666666669" dy=".35em" text-anchor="end" style="font-size: 11px; font-family: Arial, Helvetica; pointer-events: none;">Marwanid</text></g><g class="node" transform="translate(842,446.6666666666667)"><rect height="53.333333333333336" width="5" style="fill: rgb(102, 102, 102);"><title>Sufyanid
1</title></rect><text x="-6" y="26.666666666666668" dy=".35em" text-anchor="end" style="font-size: 11px; font-family: Arial, Helvetica; pointer-events: none;">Sufyanid</text></g><g class="node" transform="translate(210.5,10)"><rect height="480" width="5"><title>Quraysh
9</title></rect><text x="11" y="240" dy=".35em" text-anchor="start" style="font-size: 11px; font-family: Arial, Helvetica; pointer-events: none;">Quraysh</text></g><g class="node" transform="translate(0,10)"><rect height="480" width="5"><title>Marwanid
9</title></rect><text x="11" y="240" dy=".35em" text-anchor="start" style="font-size: 11px; font-family: Arial, Helvetica; pointer-events: none;">Marwanid</text></g></g></g></svg>