<svg width="847" height="520" xmlns="http://www.w3.org/2000/svg" version="1.1"><g transform="translate(0,10)"><g><path class="link" d="M5,226.5C142.83333333333334,226.5 142.83333333333334,221.5 280.6666666666667,221.5" style="stroke-width: 423; fill: none; stroke: rgb(191, 105, 105); stroke-opacity: 0.4;"><title>18</title></path><path class="link" d="M285.6666666666667,186.25C423.5,186.25 423.5,176.25 561.3333333333334,176.25" style="stroke-width: 352.5; fill: none; stroke: rgb(191, 179, 105); stroke-opacity: 0.4;"><title>15</title></path><path class="link" d="M566.3333333333334,105.75C704.1666666666667,105.75 704.1666666666667,105.75 842,105.75" style="stroke-width: 211.5; fill: none; stroke: rgb(105, 191, 154); stroke-opacity: 0.4;"><title>9</title></path><path class="link" d="M566.3333333333334,258.5C704.1666666666667,258.5 704.1666666666667,396 842,396" style="stroke-width: 94; fill: none; stroke: rgb(105, 191, 154); stroke-opacity: 0.4;"><title>4</title></path><path class="link" d="M566.3333333333334,386C704.1666666666667,386 704.1666666666667,245 842,245" style="stroke-width: 47; fill: none; stroke: rgb(130, 105, 191); stroke-opacity: 0.4;"><title>2</title></path><path class="link" d="M285.6666666666667,466.5C423.5,466.5 423.5,386 561.3333333333334,386" style="stroke-width: 47; fill: none; stroke: rgb(130, 191, 105); stroke-opacity: 0.4;"><title>2</title></path><path class="link" d="M5,461.5C142.83333333333334,461.5 142.83333333333334,466.5 280.6666666666667,466.5" style="stroke-width: 47; fill: none; stroke: rgb(191, 105, 105); stroke-opacity: 0.4;"><title>2</title></path><path class="link" d="M566.3333333333334,329C704.1666666666667,329 704.1666666666667,476.5 842,476.5" style="stroke-width: 47; fill: none; stroke: rgb(105, 191, 154); stroke-opacity: 0.4;"><title>2</title></path><path class="link" d="M285.6666666666667,386C423.5,386 423.5,443 561.3333333333334,443" style="stroke-width: 47; fill: none; stroke: rgb(191, 179, 105); stroke-opacity: 0.4;"><title>2</title></path><path class="link" d="M566.3333333333334,443C704.1666666666667,443 704.1666666666667,292 842,292" style="stroke-width: 47; fill: none; stroke: rgb(105, 154, 191); stroke-opacity: 0.4;"><title>2</title></path><path class="link" d="M285.6666666666667,421.25C423.5,421.25 423.5,488.25 561.3333333333334,488.25" style="stroke-width: 23.5; fill: none; stroke: rgb(191, 179, 105); stroke-opacity: 0.4;"><title>1</title></path><path class="link" d="M566.3333333333334,488.25C704.1666666666667,488.25 704.1666666666667,327.25 842,327.25" style="stroke-width: 23.5; fill: none; stroke: rgb(191, 105, 179); stroke-opacity: 0.4;"><title>1</title></path></g><g><g class="node" transform="translate(0,15)"><rect height="470" width="5"><title>Sufyanid
20</title></rect><text x="11" y="235" dy=".35em" text-anchor="start" style="font-size: 11px; font-family: Arial, Helvetica; pointer-events: none;">Sufyanid</text></g><g class="node" transform="translate(561.3333333333334,362.5)"><rect height="47" width="5"><title>
2</title></rect><text x="-6" y="23.5" dy=".35em" text-anchor="end" style="font-size: 11px; font-family: Arial, Helvetica; pointer-events: none;"></text></g><g class="node" transform="translate(561.3333333333334,476.5)"><rect height="23.5" width="5"><title>Adi b. Ka'b
1</title></rect><text x="-6" y="11.75" dy=".35em" text-anchor="end" style="font-size: 11px; font-family: Arial, Helvetica; pointer-events: none;">Adi b. Ka'b</text></g><g class="node" transform="translate(561.3333333333334,419.5)"><rect height="47" width="5"><title>Makhzum
2</title></rect><text x="-6" y="23.5" dy=".35em" text-anchor="end" style="font-size: 11px; font-family: Arial, Helvetica; pointer-events: none;">Makhzum</text></g><g class="node" transform="translate(561.3333333333334,0)"><rect height="352.5" width="5"><title>Qusayy
15</title></rect><text x="-6" y="176.25" dy=".35em" text-anchor="end" style="font-size: 11px; font-family: Arial, Helvetica; pointer-events: none;">Qusayy</text></g><g class="node" transform="translate(842,221.5)"><rect height="117.5" width="5" style="fill: rgb(102, 102, 102);"><title>
5</title></rect><text x="-6" y="58.75" dy=".35em" text-anchor="end" style="font-size: 11px; font-family: Arial, Helvetica; pointer-events: none;"></text></g><g class="node" transform="translate(842,349)"><rect height="94" width="5" style="fill: rgb(102, 102, 102);"><title>Abd Shams
4</title></rect><text x="-6" y="47" dy=".35em" text-anchor="end" style="font-size: 11px; font-family: Arial, Helvetica; pointer-events: none;">Abd Shams</text></g><g class="node" transform="translate(842,453)"><rect height="47" width="5" style="fill: rgb(102, 102, 102);"><title>Hashim
2</title></rect><text x="-6" y="23.5" dy=".35em" text-anchor="end" style="font-size: 11px; font-family: Arial, Helvetica; pointer-events: none;">Hashim</text></g><g class="node" transform="translate(842,0)"><rect height="211.5" width="5" style="fill: rgb(102, 102, 102);"><title>Umayyad
9</title></rect><text x="-6" y="105.75" dy=".35em" text-anchor="end" style="font-size: 11px; font-family: Arial, Helvetica; pointer-events: none;">Umayyad</text></g><g class="node" transform="translate(280.6666666666667,10)"><rect height="423" width="5"><title>Quraysh
18</title></rect><text x="11" y="211.5" dy=".35em" text-anchor="start" style="font-size: 11px; font-family: Arial, Helvetica; pointer-events: none;">Quraysh</text></g><g class="node" transform="translate(280.6666666666667,443)"><rect height="47" width="5"><title>Thaqif/Quraysh (by adoption)
2</title></rect><text x="11" y="23.5" dy=".35em" text-anchor="start" style="font-size: 11px; font-family: Arial, Helvetica; pointer-events: none;">Thaqif/Quraysh (by adoption)</text></g></g></g></svg>