<svg width="847" height="520" xmlns="http://www.w3.org/2000/svg" version="1.1"><g transform="translate(0,10)"><g><path class="link" d="M5,173.90243902439022C142.83333333333334,173.90243902439022 142.83333333333334,118.90243902439029 280.6666666666667,118.90243902439029" style="stroke-width: 237.805; fill: none; stroke: rgb(191, 105, 105); stroke-opacity: 0.4;"><title>25</title></path><path class="link" d="M285.6666666666667,76.09756097560981C423.5,76.09756097560981 423.5,76.09756097560981 561.3333333333334,76.09756097560981" style="stroke-width: 152.195; fill: none; stroke: rgb(191, 126, 105); stroke-opacity: 0.4;"><title>16</title></path><path class="link" d="M566.3333333333334,205.00000000000006C704.1666666666667,205.00000000000006 704.1666666666667,67.8048780487805 842,67.8048780487805" style="stroke-width: 85.6098; fill: none; stroke: rgb(112, 105, 191); stroke-opacity: 0.4;"><title>9</title></path><path class="link" d="M566.3333333333334,38.04878048780493C704.1666666666667,38.04878048780493 704.1666666666667,301.3414634146341 842,301.3414634146341" style="stroke-width: 76.0976; fill: none; stroke: rgb(105, 180, 191); stroke-opacity: 0.4;"><title>8</title></path><path class="link" d="M566.3333333333334,286.34146341463423C704.1666666666667,286.34146341463423 704.1666666666667,139.14634146341464 842,139.14634146341464" style="stroke-width: 57.0732; fill: none; stroke: rgb(191, 105, 167); stroke-opacity: 0.4;"><title>6</title></path><path class="link" d="M285.6666666666667,180.73170731707322C423.5,180.73170731707322 423.5,286.34146341463423 561.3333333333334,286.34146341463423" style="stroke-width: 57.0732; fill: none; stroke: rgb(191, 126, 105); stroke-opacity: 0.4;"><title>6</title></path><path class="link" d="M5,335.60975609756093C142.83333333333334,335.60975609756093 142.83333333333334,300.609756097561 280.6666666666667,300.609756097561" style="stroke-width: 28.5366; fill: none; stroke: rgb(191, 105, 105); stroke-opacity: 0.4;"><title>3</title></path><path class="link" d="M566.3333333333334,90.36585365853664C704.1666666666667,90.36585365853664 704.1666666666667,363.6585365853658 842,363.6585365853658" style="stroke-width: 28.5366; fill: none; stroke: rgb(105, 180, 191); stroke-opacity: 0.4;"><title>3</title></path><path class="link" d="M285.6666666666667,262.07317073170736C423.5,262.07317073170736 423.5,176.4634146341464 561.3333333333334,176.4634146341464" style="stroke-width: 28.5366; fill: none; stroke: rgb(174, 191, 105); stroke-opacity: 0.4;"><title>3</title></path><path class="link" d="M5,307.07317073170725C142.83333333333334,307.07317073170725 142.83333333333334,262.07317073170736 280.6666666666667,262.07317073170736" style="stroke-width: 28.5366; fill: none; stroke: rgb(191, 105, 105); stroke-opacity: 0.4;"><title>3</title></path><path class="link" d="M285.6666666666667,300.609756097561C423.5,300.609756097561 423.5,205.00000000000006 561.3333333333334,205.00000000000006" style="stroke-width: 28.5366; fill: none; stroke: rgb(132, 191, 105); stroke-opacity: 0.4;"><title>3</title></path><path class="link" d="M285.6666666666667,218.78048780487808C423.5,218.78048780487808 423.5,334.39024390243907 561.3333333333334,334.39024390243907" style="stroke-width: 19.0244; fill: none; stroke: rgb(191, 126, 105); stroke-opacity: 0.4;"><title>2</title></path><path class="link" d="M5,359.390243902439C142.83333333333334,359.390243902439 142.83333333333334,334.390243902439 280.6666666666667,334.390243902439" style="stroke-width: 19.0244; fill: none; stroke: rgb(191, 105, 105); stroke-opacity: 0.4;"><title>2</title></path><path class="link" d="M566.3333333333334,133.17073170731712C704.1666666666667,133.17073170731712 704.1666666666667,426.46341463414626 842,426.46341463414626" style="stroke-width: 19.0244; fill: none; stroke: rgb(105, 180, 191); stroke-opacity: 0.4;"><title>2</title></path><path class="link" d="M566.3333333333334,114.14634146341469C704.1666666666667,114.14634146341469 704.1666666666667,397.43902439024384 842,397.43902439024384" style="stroke-width: 19.0244; fill: none; stroke: rgb(105, 180, 191); stroke-opacity: 0.4;"><title>2</title></path><path class="link" d="M566.3333333333334,334.39024390243907C704.1666666666667,334.39024390243907 704.1666666666667,177.1951219512195 842,177.1951219512195" style="stroke-width: 19.0244; fill: none; stroke: rgb(153, 105, 191); stroke-opacity: 0.4;"><title>2</title></path><path class="link" d="M285.6666666666667,475.7317073170731C423.5,475.7317073170731 423.5,495.24390243902434 561.3333333333334,495.24390243902434" style="stroke-width: 9.5122; fill: none; stroke: rgb(105, 191, 180); stroke-opacity: 0.4;"><title>1</title></path><path class="link" d="M285.6666666666667,329.6341463414634C423.5,329.6341463414634 423.5,436.7073170731707 561.3333333333334,436.7073170731707" style="stroke-width: 9.5122; fill: none; stroke: rgb(191, 146, 105); stroke-opacity: 0.4;"><title>1</title></path><path class="link" d="M285.6666666666667,397.68292682926824C423.5,397.68292682926824 423.5,475.73170731707313 561.3333333333334,475.73170731707313" style="stroke-width: 9.5122; fill: none; stroke: rgb(191, 167, 105); stroke-opacity: 0.4;"><title>1</title></path><path class="link" d="M285.6666666666667,417.19512195121945C423.5,417.19512195121945 423.5,358.6585365853659 561.3333333333334,358.6585365853659" style="stroke-width: 9.5122; fill: none; stroke: rgb(191, 187, 105); stroke-opacity: 0.4;"><title>1</title></path><path class="link" d="M5,411.70731707317066C142.83333333333334,411.70731707317066 142.83333333333334,436.70731707317066 280.6666666666667,436.70731707317066" style="stroke-width: 9.5122; fill: none; stroke: rgb(191, 105, 105); stroke-opacity: 0.4;"><title>1</title></path><path class="link" d="M285.6666666666667,378.17073170731703C423.5,378.17073170731703 423.5,378.1707317073171 561.3333333333334,378.1707317073171" style="stroke-width: 9.5122; fill: none; stroke: rgb(153, 191, 105); stroke-opacity: 0.4;"><title>1</title></path><path class="link" d="M5,430.7317073170731C142.83333333333334,430.7317073170731 142.83333333333334,475.7317073170731 280.6666666666667,475.7317073170731" style="stroke-width: 9.5122; fill: none; stroke: rgb(191, 105, 105); stroke-opacity: 0.4;"><title>1</title></path><path class="link" d="M285.6666666666667,456.21951219512187C423.5,456.21951219512187 423.5,233.53658536585368 561.3333333333334,233.53658536585368" style="stroke-width: 9.5122; fill: none; stroke: rgb(112, 191, 105); stroke-opacity: 0.4;"><title>1</title></path><path class="link" d="M285.6666666666667,436.70731707317066C423.5,436.70731707317066 423.5,397.6829268292683 561.3333333333334,397.6829268292683" style="stroke-width: 9.5122; fill: none; stroke: rgb(105, 191, 119); stroke-opacity: 0.4;"><title>1</title></path><path class="link" d="M285.6666666666667,358.6585365853658C423.5,358.6585365853658 423.5,224.02439024390247 561.3333333333334,224.02439024390247" style="stroke-width: 9.5122; fill: none; stroke: rgb(105, 191, 139); stroke-opacity: 0.4;"><title>1</title></path><path class="link" d="M285.6666666666667,495.2439024390243C423.5,495.2439024390243 423.5,243.04878048780492 561.3333333333334,243.04878048780492" style="stroke-width: 9.5122; fill: none; stroke: rgb(105, 191, 160); stroke-opacity: 0.4;"><title>1</title></path><path class="link" d="M5,440.2439024390243C142.83333333333334,440.2439024390243 142.83333333333334,495.2439024390243 280.6666666666667,495.2439024390243" style="stroke-width: 9.5122; fill: none; stroke: rgb(191, 105, 105); stroke-opacity: 0.4;"><title>1</title></path><path class="link" d="M5,421.21951219512187C142.83333333333334,421.21951219512187 142.83333333333334,456.21951219512187 280.6666666666667,456.21951219512187" style="stroke-width: 9.5122; fill: none; stroke: rgb(191, 105, 105); stroke-opacity: 0.4;"><title>1</title></path><path class="link" d="M5,383.17073170731703C142.83333333333334,383.17073170731703 142.83333333333334,378.17073170731703 280.6666666666667,378.17073170731703" style="stroke-width: 9.5122; fill: none; stroke: rgb(191, 105, 105); stroke-opacity: 0.4;"><title>1</title></path><path class="link" d="M5,373.6585365853658C142.83333333333334,373.6585365853658 142.83333333333334,358.6585365853658 280.6666666666667,358.6585365853658" style="stroke-width: 9.5122; fill: none; stroke: rgb(191, 105, 105); stroke-opacity: 0.4;"><title>1</title></path><path class="link" d="M566.3333333333334,147.43902439024396C704.1666666666667,147.43902439024396 704.1666666666667,450.7317073170731 842,450.7317073170731" style="stroke-width: 9.5122; fill: none; stroke: rgb(105, 180, 191); stroke-opacity: 0.4;"><title>1</title></path><path class="link" d="M285.6666666666667,233.04878048780492C423.5,233.04878048780492 423.5,417.1951219512195 561.3333333333334,417.1951219512195" style="stroke-width: 9.5122; fill: none; stroke: rgb(191, 126, 105); stroke-opacity: 0.4;"><title>1</title></path><path class="link" d="M566.3333333333334,456.2195121951219C704.1666666666667,456.2195121951219 704.1666666666667,229.51219512195118 842,229.51219512195118" style="stroke-width: 9.5122; fill: none; stroke: rgb(105, 160, 191); stroke-opacity: 0.4;"><title>1</title></path><path class="link" d="M566.3333333333334,475.73170731707313C704.1666666666667,475.73170731707313 704.1666666666667,239.0243902439024 842,239.0243902439024" style="stroke-width: 9.5122; fill: none; stroke: rgb(105, 139, 191); stroke-opacity: 0.4;"><title>1</title></path><path class="link" d="M566.3333333333334,358.6585365853659C704.1666666666667,358.6585365853659 704.1666666666667,191.46341463414635 842,191.46341463414635" style="stroke-width: 9.5122; fill: none; stroke: rgb(105, 119, 191); stroke-opacity: 0.4;"><title>1</title></path><path class="link" d="M5,402.19512195121945C142.83333333333334,402.19512195121945 142.83333333333334,417.19512195121945 280.6666666666667,417.19512195121945" style="stroke-width: 9.5122; fill: none; stroke: rgb(191, 105, 105); stroke-opacity: 0.4;"><title>1</title></path><path class="link" d="M566.3333333333334,378.1707317073171C704.1666666666667,378.1707317073171 704.1666666666667,200.97560975609755 842,200.97560975609755" style="stroke-width: 9.5122; fill: none; stroke: rgb(132, 105, 191); stroke-opacity: 0.4;"><title>1</title></path><path class="link" d="M285.6666666666667,339.1463414634146C423.5,339.1463414634146 423.5,456.2195121951219 561.3333333333334,456.2195121951219" style="stroke-width: 9.5122; fill: none; stroke: rgb(191, 146, 105); stroke-opacity: 0.4;"><title>1</title></path><path class="link" d="M566.3333333333334,436.7073170731707C704.1666666666667,436.7073170731707 704.1666666666667,470.2439024390243 842,470.2439024390243" style="stroke-width: 9.5122; fill: none; stroke: rgb(174, 105, 191); stroke-opacity: 0.4;"><title>1</title></path><path class="link" d="M566.3333333333334,397.6829268292683C704.1666666666667,397.6829268292683 704.1666666666667,210.48780487804876 842,210.48780487804876" style="stroke-width: 9.5122; fill: none; stroke: rgb(191, 105, 187); stroke-opacity: 0.4;"><title>1</title></path><path class="link" d="M5,392.68292682926824C142.83333333333334,392.68292682926824 142.83333333333334,397.68292682926824 280.6666666666667,397.68292682926824" style="stroke-width: 9.5122; fill: none; stroke: rgb(191, 105, 105); stroke-opacity: 0.4;"><title>1</title></path><path class="link" d="M566.3333333333334,495.24390243902434C704.1666666666667,495.24390243902434 704.1666666666667,248.5365853658536 842,248.5365853658536" style="stroke-width: 9.5122; fill: none; stroke: rgb(191, 105, 146); stroke-opacity: 0.4;"><title>1</title></path><path class="link" d="M566.3333333333334,417.1951219512195C704.1666666666667,417.1951219512195 704.1666666666667,219.99999999999997 842,219.99999999999997" style="stroke-width: 9.5122; fill: none; stroke: rgb(191, 105, 126); stroke-opacity: 0.4;"><title>1</title></path></g><g><g class="node" transform="translate(0,55)"><rect height="390" width="5"><title>Umayyad
41</title></rect><text x="11" y="195" dy=".35em" text-anchor="start" style="font-size: 11px; font-family: Arial, Helvetica; pointer-events: none;">Umayyad</text></g><g class="node" transform="translate(561.3333333333334,162.19512195121956)"><rect height="85.60975609756098" width="5"><title>
9</title></rect><text x="-6" y="42.80487804878049" dy=".35em" text-anchor="end" style="font-size: 11px; font-family: Arial, Helvetica; pointer-events: none;"></text></g><g class="node" transform="translate(561.3333333333334,324.87804878048786)"><rect height="19.024390243902438" width="5"><title>Amir b. Lu'ayy
2</title></rect><text x="-6" y="9.512195121951219" dy=".35em" text-anchor="end" style="font-size: 11px; font-family: Arial, Helvetica; pointer-events: none;">Amir b. Lu'ayy</text></g><g class="node" transform="translate(561.3333333333334,431.9512195121951)"><rect height="9.512195121951219" width="5"><title>Amir b. Sa'sa'a
1</title></rect><text x="-6" y="4.7560975609756095" dy=".35em" text-anchor="end" style="font-size: 11px; font-family: Arial, Helvetica; pointer-events: none;">Amir b. Sa'sa'a</text></g><g class="node" transform="translate(561.3333333333334,470.9756097560975)"><rect height="9.512195121951219" width="5"><title>Azd
1</title></rect><text x="-6" y="4.7560975609756095" dy=".35em" text-anchor="end" style="font-size: 11px; font-family: Arial, Helvetica; pointer-events: none;">Azd</text></g><g class="node" transform="translate(561.3333333333334,353.9024390243903)"><rect height="9.512195121951219" width="5"><title>Fazara
1</title></rect><text x="-6" y="4.7560975609756095" dy=".35em" text-anchor="end" style="font-size: 11px; font-family: Arial, Helvetica; pointer-events: none;">Fazara</text></g><g class="node" transform="translate(561.3333333333334,373.4146341463415)"><rect height="9.512195121951219" width="5"><title>Firas b. Ghanam
1</title></rect><text x="-6" y="4.7560975609756095" dy=".35em" text-anchor="end" style="font-size: 11px; font-family: Arial, Helvetica; pointer-events: none;">Firas b. Ghanam</text></g><g class="node" transform="translate(561.3333333333334,490.48780487804873)"><rect height="9.512195121951219" width="5"><title>Harith
1</title></rect><text x="-6" y="4.7560975609756095" dy=".35em" text-anchor="end" style="font-size: 11px; font-family: Arial, Helvetica; pointer-events: none;">Harith</text></g><g class="node" transform="translate(561.3333333333334,412.4390243902439)"><rect height="9.512195121951219" width="5"><title>Jumah
1</title></rect><text x="-6" y="4.7560975609756095" dy=".35em" text-anchor="end" style="font-size: 11px; font-family: Arial, Helvetica; pointer-events: none;">Jumah</text></g><g class="node" transform="translate(561.3333333333334,257.80487804878055)"><rect height="57.073170731707314" width="5"><title>Makhzum
6</title></rect><text x="-6" y="28.536585365853657" dy=".35em" text-anchor="end" style="font-size: 11px; font-family: Arial, Helvetica; pointer-events: none;">Makhzum</text></g><g class="node" transform="translate(561.3333333333334,451.4634146341463)"><rect height="9.512195121951219" width="5"><title>Mazin b. Mansur
1</title></rect><text x="-6" y="4.7560975609756095" dy=".35em" text-anchor="end" style="font-size: 11px; font-family: Arial, Helvetica; pointer-events: none;">Mazin b. Mansur</text></g><g class="node" transform="translate(561.3333333333334,5.684341886080802e-14)"><rect height="152.1951219512195" width="5"><title>Qusayy
16</title></rect><text x="-6" y="76.09756097560975" dy=".35em" text-anchor="end" style="font-size: 11px; font-family: Arial, Helvetica; pointer-events: none;">Qusayy</text></g><g class="node" transform="translate(561.3333333333334,392.9268292682927)"><rect height="9.512195121951219" width="5"><title>Zayd Mana'a
1</title></rect><text x="-6" y="4.7560975609756095" dy=".35em" text-anchor="end" style="font-size: 11px; font-family: Arial, Helvetica; pointer-events: none;">Zayd Mana'a</text></g><g class="node" transform="translate(842,25)"><rect height="228.29268292682926" width="5" style="fill: rgb(102, 102, 102);"><title>
24</title></rect><text x="-6" y="114.14634146341463" dy=".35em" text-anchor="end" style="font-size: 11px; font-family: Arial, Helvetica; pointer-events: none;"></text></g><g class="node" transform="translate(842,387.92682926829264)"><rect height="19.024390243902438" width="5" style="fill: rgb(102, 102, 102);"><title>Abd Shams
2</title></rect><text x="-6" y="9.512195121951219" dy=".35em" text-anchor="end" style="font-size: 11px; font-family: Arial, Helvetica; pointer-events: none;">Abd Shams</text></g><g class="node" transform="translate(842,445.97560975609747)"><rect height="9.512195121951219" width="5" style="fill: rgb(102, 102, 102);"><title>Asad
1</title></rect><text x="-6" y="4.7560975609756095" dy=".35em" text-anchor="end" style="font-size: 11px; font-family: Arial, Helvetica; pointer-events: none;">Asad</text></g><g class="node" transform="translate(842,349.390243902439)"><rect height="28.536585365853657" width="5" style="fill: rgb(102, 102, 102);"><title>Hashim
3</title></rect><text x="-6" y="14.268292682926829" dy=".35em" text-anchor="end" style="font-size: 11px; font-family: Arial, Helvetica; pointer-events: none;">Hashim</text></g><g class="node" transform="translate(842,465.4878048780487)"><rect height="9.512195121951219" width="5" style="fill: rgb(102, 102, 102);"><title>Malik of Ja'far of Kilab
1</title></rect><text x="-6" y="4.7560975609756095" dy=".35em" text-anchor="end" style="font-size: 11px; font-family: Arial, Helvetica; pointer-events: none;">Malik of Ja'far of Kilab</text></g><g class="node" transform="translate(842,416.95121951219505)"><rect height="19.024390243902438" width="5" style="fill: rgb(102, 102, 102);"><title>Nawfal
2</title></rect><text x="-6" y="9.512195121951219" dy=".35em" text-anchor="end" style="font-size: 11px; font-family: Arial, Helvetica; pointer-events: none;">Nawfal</text></g><g class="node" transform="translate(842,263.29268292682923)"><rect height="76.09756097560975" width="5" style="fill: rgb(102, 102, 102);"><title>Umayyad
8</title></rect><text x="-6" y="38.048780487804876" dy=".35em" text-anchor="end" style="font-size: 11px; font-family: Arial, Helvetica; pointer-events: none;">Umayyad</text></g><g class="node" transform="translate(280.6666666666667,470.97560975609747)"><rect height="9.512195121951219" width="5"><title>Aws
1</title></rect><text x="11" y="4.7560975609756095" dy=".35em" text-anchor="start" style="font-size: 11px; font-family: Arial, Helvetica; pointer-events: none;">Aws</text></g><g class="node" transform="translate(280.6666666666667,392.92682926829264)"><rect height="9.512195121951219" width="5"><title>Daws
1</title></rect><text x="11" y="4.7560975609756095" dy=".35em" text-anchor="start" style="font-size: 11px; font-family: Arial, Helvetica; pointer-events: none;">Daws</text></g><g class="node" transform="translate(280.6666666666667,412.43902439024384)"><rect height="9.512195121951219" width="5"><title>Ghatafan
1</title></rect><text x="11" y="4.7560975609756095" dy=".35em" text-anchor="start" style="font-size: 11px; font-family: Arial, Helvetica; pointer-events: none;">Ghatafan</text></g><g class="node" transform="translate(280.6666666666667,247.80487804878052)"><rect height="28.536585365853657" width="5"><title>Kalb
3</title></rect><text x="11" y="14.268292682926829" dy=".35em" text-anchor="start" style="font-size: 11px; font-family: Arial, Helvetica; pointer-events: none;">Kalb</text></g><g class="node" transform="translate(280.6666666666667,353.9024390243902)"><rect height="9.512195121951219" width="5"><title>Khuza'a 
1</title></rect><text x="11" y="4.7560975609756095" dy=".35em" text-anchor="start" style="font-size: 11px; font-family: Arial, Helvetica; pointer-events: none;">Khuza'a </text></g><g class="node" transform="translate(280.6666666666667,373.4146341463414)"><rect height="9.512195121951219" width="5"><title>Kinana
1</title></rect><text x="11" y="4.7560975609756095" dy=".35em" text-anchor="start" style="font-size: 11px; font-family: Arial, Helvetica; pointer-events: none;">Kinana</text></g><g class="node" transform="translate(280.6666666666667,324.8780487804878)"><rect height="19.024390243902438" width="5"><title>Qays Aylan
2</title></rect><text x="11" y="9.512195121951219" dy=".35em" text-anchor="start" style="font-size: 11px; font-family: Arial, Helvetica; pointer-events: none;">Qays Aylan</text></g><g class="node" transform="translate(280.6666666666667,5.684341886080802e-14)"><rect height="237.80487804878047" width="5"><title>Quraysh
25</title></rect><text x="11" y="118.90243902439023" dy=".35em" text-anchor="start" style="font-size: 11px; font-family: Arial, Helvetica; pointer-events: none;">Quraysh</text></g><g class="node" transform="translate(280.6666666666667,431.95121951219505)"><rect height="9.512195121951219" width="5"><title>Tamim
1</title></rect><text x="11" y="4.7560975609756095" dy=".35em" text-anchor="start" style="font-size: 11px; font-family: Arial, Helvetica; pointer-events: none;">Tamim</text></g><g class="node" transform="translate(280.6666666666667,451.46341463414626)"><rect height="9.512195121951219" width="5"><title>Tamim 
1</title></rect><text x="11" y="4.7560975609756095" dy=".35em" text-anchor="start" style="font-size: 11px; font-family: Arial, Helvetica; pointer-events: none;">Tamim </text></g><g class="node" transform="translate(280.6666666666667,286.3414634146342)"><rect height="28.536585365853657" width="5"><title>Thaqif
3</title></rect><text x="11" y="14.268292682926829" dy=".35em" text-anchor="start" style="font-size: 11px; font-family: Arial, Helvetica; pointer-events: none;">Thaqif</text></g><g class="node" transform="translate(280.6666666666667,490.4878048780487)"><rect height="9.512195121951219" width="5"><title>Unknown
1</title></rect><text x="11" y="4.7560975609756095" dy=".35em" text-anchor="start" style="font-size: 11px; font-family: Arial, Helvetica; pointer-events: none;">Unknown</text></g></g></g></svg>