<svg width="847" height="520" xmlns="http://www.w3.org/2000/svg" version="1.1"><g transform="translate(0,10)"><g><path class="link" d="M5,250C142.83333333333334,250 142.83333333333334,250 280.6666666666667,250" style="stroke-width: 460; fill: none; stroke: rgb(191, 105, 105); stroke-opacity: 0.4;"><title>29</title></path><path class="link" d="M285.6666666666667,218.27586206896552C423.5,218.27586206896552 423.5,198.2758620689655 561.3333333333334,198.2758620689655" style="stroke-width: 396.552; fill: none; stroke: rgb(191, 179, 105); stroke-opacity: 0.4;"><title>25</title></path><path class="link" d="M566.3333333333334,111.03448275862067C704.1666666666667,111.03448275862067 704.1666666666667,111.03448275862067 842,111.03448275862067" style="stroke-width: 222.069; fill: none; stroke: rgb(130, 191, 105); stroke-opacity: 0.4;"><title>14</title></path><path class="link" d="M566.3333333333334,285.51724137931035C704.1666666666667,285.51724137931035 704.1666666666667,295.51724137931035 842,295.51724137931035" style="stroke-width: 126.897; fill: none; stroke: rgb(130, 191, 105); stroke-opacity: 0.4;"><title>8</title></path><path class="link" d="M285.6666666666667,472.06896551724145C423.5,472.06896551724145 423.5,492.06896551724145 561.3333333333334,492.06896551724145" style="stroke-width: 15.8621; fill: none; stroke: rgb(191, 179, 105); stroke-opacity: 0.4;"><title>1</title></path><path class="link" d="M285.6666666666667,456.2068965517242C423.5,456.2068965517242 423.5,466.2068965517242 561.3333333333334,466.2068965517242" style="stroke-width: 15.8621; fill: none; stroke: rgb(191, 179, 105); stroke-opacity: 0.4;"><title>1</title></path><path class="link" d="M566.3333333333334,466.2068965517242C704.1666666666667,466.2068965517242 704.1666666666667,424.48275862068965 842,424.48275862068965" style="stroke-width: 15.8621; fill: none; stroke: rgb(191, 105, 179); stroke-opacity: 0.4;"><title>1</title></path><path class="link" d="M285.6666666666667,440.3448275862069C423.5,440.3448275862069 423.5,440.3448275862069 561.3333333333334,440.3448275862069" style="stroke-width: 15.8621; fill: none; stroke: rgb(191, 179, 105); stroke-opacity: 0.4;"><title>1</title></path><path class="link" d="M285.6666666666667,424.48275862068965C423.5,424.48275862068965 423.5,414.48275862068965 561.3333333333334,414.48275862068965" style="stroke-width: 15.8621; fill: none; stroke: rgb(191, 179, 105); stroke-opacity: 0.4;"><title>1</title></path><path class="link" d="M566.3333333333334,388.62068965517244C704.1666666666667,388.62068965517244 704.1666666666667,492.0689655172414 842,492.0689655172414" style="stroke-width: 15.8621; fill: none; stroke: rgb(130, 191, 105); stroke-opacity: 0.4;"><title>1</title></path><path class="link" d="M566.3333333333334,372.7586206896551C704.1666666666667,372.7586206896551 704.1666666666667,466.2068965517241 842,466.2068965517241" style="stroke-width: 15.8621; fill: none; stroke: rgb(130, 191, 105); stroke-opacity: 0.4;"><title>1</title></path><path class="link" d="M566.3333333333334,440.3448275862069C704.1666666666667,440.3448275862069 704.1666666666667,408.6206896551724 842,408.6206896551724" style="stroke-width: 15.8621; fill: none; stroke: rgb(105, 191, 154); stroke-opacity: 0.4;"><title>1</title></path><path class="link" d="M566.3333333333334,414.48275862068965C704.1666666666667,414.48275862068965 704.1666666666667,392.7586206896552 842,392.7586206896552" style="stroke-width: 15.8621; fill: none; stroke: rgb(105, 154, 191); stroke-opacity: 0.4;"><title>1</title></path><path class="link" d="M566.3333333333334,492.06896551724145C704.1666666666667,492.06896551724145 704.1666666666667,440.34482758620686 842,440.34482758620686" style="stroke-width: 15.8621; fill: none; stroke: rgb(130, 105, 191); stroke-opacity: 0.4;"><title>1</title></path><path class="link" d="M566.3333333333334,356.8965517241379C704.1666666666667,356.8965517241379 704.1666666666667,376.8965517241379 842,376.8965517241379" style="stroke-width: 15.8621; fill: none; stroke: rgb(130, 191, 105); stroke-opacity: 0.4;"><title>1</title></path></g><g><g class="node" transform="translate(561.3333333333334,406.55172413793105)"><rect height="15.862068965517242" width="5"><title>Amir b. Lu'ayy
1</title></rect><text x="-6" y="7.931034482758621" dy=".35em" text-anchor="end" style="font-size: 11px; font-family: Arial, Helvetica; pointer-events: none;">Amir b. Lu'ayy</text></g><g class="node" transform="translate(561.3333333333334,432.4137931034483)"><rect height="15.862068965517242" width="5"><title>Jumah
1</title></rect><text x="-6" y="7.931034482758621" dy=".35em" text-anchor="end" style="font-size: 11px; font-family: Arial, Helvetica; pointer-events: none;">Jumah</text></g><g class="node" transform="translate(561.3333333333334,-2.842170943040401e-14)"><rect height="396.55172413793105" width="5"><title>Qusayy
25</title></rect><text x="-6" y="198.27586206896552" dy=".35em" text-anchor="end" style="font-size: 11px; font-family: Arial, Helvetica; pointer-events: none;">Qusayy</text></g><g class="node" transform="translate(561.3333333333334,458.2758620689656)"><rect height="15.862068965517242" width="5"><title>Sahm
1</title></rect><text x="-6" y="7.931034482758621" dy=".35em" text-anchor="end" style="font-size: 11px; font-family: Arial, Helvetica; pointer-events: none;">Sahm</text></g><g class="node" transform="translate(561.3333333333334,484.13793103448285)"><rect height="15.862068965517242" width="5"><title>Taym b. Murra
1</title></rect><text x="-6" y="7.931034482758621" dy=".35em" text-anchor="end" style="font-size: 11px; font-family: Arial, Helvetica; pointer-events: none;">Taym b. Murra</text></g><g class="node" transform="translate(842,368.9655172413793)"><rect height="79.3103448275862" width="5" style="fill: rgb(102, 102, 102);"><title>
5</title></rect><text x="-6" y="39.6551724137931" dy=".35em" text-anchor="end" style="font-size: 11px; font-family: Arial, Helvetica; pointer-events: none;"></text></g><g class="node" transform="translate(842,458.2758620689655)"><rect height="15.862068965517242" width="5" style="fill: rgb(102, 102, 102);"><title>Asad
1</title></rect><text x="-6" y="7.931034482758621" dy=".35em" text-anchor="end" style="font-size: 11px; font-family: Arial, Helvetica; pointer-events: none;">Asad</text></g><g class="node" transform="translate(842,-2.842170943040401e-14)"><rect height="222.0689655172414" width="5" style="fill: rgb(102, 102, 102);"><title>Hashim
14</title></rect><text x="-6" y="111.0344827586207" dy=".35em" text-anchor="end" style="font-size: 11px; font-family: Arial, Helvetica; pointer-events: none;">Hashim</text></g><g class="node" transform="translate(842,232.06896551724137)"><rect height="126.89655172413794" width="5" style="fill: rgb(102, 102, 102);"><title>Umayyad
8</title></rect><text x="-6" y="63.44827586206897" dy=".35em" text-anchor="end" style="font-size: 11px; font-family: Arial, Helvetica; pointer-events: none;">Umayyad</text></g><g class="node" transform="translate(842,484.1379310344828)"><rect height="15.862068965517242" width="5" style="fill: rgb(102, 102, 102);"><title>Zubayrid
1</title></rect><text x="-6" y="7.931034482758621" dy=".35em" text-anchor="end" style="font-size: 11px; font-family: Arial, Helvetica; pointer-events: none;">Zubayrid</text></g><g class="node" transform="translate(280.6666666666667,20)"><rect height="460" width="5"><title>Quraysh
29</title></rect><text x="11" y="230" dy=".35em" text-anchor="start" style="font-size: 11px; font-family: Arial, Helvetica; pointer-events: none;">Quraysh</text></g><g class="node" transform="translate(0,20)"><rect height="460" width="5"><title>Hashim
29</title></rect><text x="11" y="230" dy=".35em" text-anchor="start" style="font-size: 11px; font-family: Arial, Helvetica; pointer-events: none;">Hashim</text></g></g></g></svg>