<svg width="847" height="520" xmlns="http://www.w3.org/2000/svg" version="1.1"><g transform="translate(0,10)"><g><path class="link" d="M5,215.94594594594594C142.83333333333334,215.94594594594594 142.83333333333334,190.94594594594594 280.6666666666667,190.94594594594594" style="stroke-width: 351.892; fill: none; stroke: rgb(191, 105, 105); stroke-opacity: 0.4;"><title>31</title></path><path class="link" d="M285.6666666666667,168.24324324324323C423.5,168.24324324324323 423.5,153.24324324324323 561.3333333333334,153.24324324324323" style="stroke-width: 306.486; fill: none; stroke: rgb(191, 137, 105); stroke-opacity: 0.4;"><title>27</title></path><path class="link" d="M566.3333333333334,147.56756756756755C704.1666666666667,147.56756756756755 704.1666666666667,172.56756756756755 842,172.56756756756755" style="stroke-width: 295.135; fill: none; stroke: rgb(105, 191, 159); stroke-opacity: 0.4;"><title>26</title></path><path class="link" d="M5,403.2432432432432C142.83333333333334,403.2432432432432 142.83333333333334,388.2432432432432 280.6666666666667,388.2432432432432" style="stroke-width: 22.7027; fill: none; stroke: rgb(191, 105, 105); stroke-opacity: 0.4;"><title>2</title></path><path class="link" d="M285.6666666666667,332.8378378378378C423.5,332.8378378378378 423.5,360.5405405405405 561.3333333333334,360.5405405405405" style="stroke-width: 22.7027; fill: none; stroke: rgb(191, 137, 105); stroke-opacity: 0.4;"><title>2</title></path><path class="link" d="M566.3333333333334,360.5405405405405C704.1666666666667,360.5405405405405 704.1666666666667,364.18918918918916 842,364.18918918918916" style="stroke-width: 22.7027; fill: none; stroke: rgb(105, 126, 191); stroke-opacity: 0.4;"><title>2</title></path><path class="link" d="M566.3333333333334,327.8378378378378C704.1666666666667,327.8378378378378 704.1666666666667,341.48648648648646 842,341.48648648648646" style="stroke-width: 22.7027; fill: none; stroke: rgb(116, 105, 191); stroke-opacity: 0.4;"><title>2</title></path><path class="link" d="M285.6666666666667,349.86486486486484C423.5,349.86486486486484 423.5,472.97297297297297 561.3333333333334,472.97297297297297" style="stroke-width: 11.3514; fill: none; stroke: rgb(191, 137, 105); stroke-opacity: 0.4;"><title>1</title></path><path class="link" d="M5,442.97297297297297C142.83333333333334,442.97297297297297 142.83333333333334,457.97297297297297 280.6666666666667,457.97297297297297" style="stroke-width: 11.3514; fill: none; stroke: rgb(191, 105, 105); stroke-opacity: 0.4;"><title>1</title></path><path class="link" d="M285.6666666666667,361.2162162162162C423.5,361.2162162162162 423.5,494.3243243243243 561.3333333333334,494.3243243243243" style="stroke-width: 11.3514; fill: none; stroke: rgb(191, 137, 105); stroke-opacity: 0.4;"><title>1</title></path><path class="link" d="M285.6666666666667,479.3243243243243C423.5,479.3243243243243 423.5,451.6216216216216 561.3333333333334,451.6216216216216" style="stroke-width: 11.3514; fill: none; stroke: rgb(191, 169, 105); stroke-opacity: 0.4;"><title>1</title></path><path class="link" d="M285.6666666666667,415.27027027027026C423.5,415.27027027027026 423.5,322.16216216216213 561.3333333333334,322.16216216216213" style="stroke-width: 11.3514; fill: none; stroke: rgb(180, 191, 105); stroke-opacity: 0.4;"><title>1</title></path><path class="link" d="M285.6666666666667,457.97297297297297C423.5,457.97297297297297 423.5,430.27027027027026 561.3333333333334,430.27027027027026" style="stroke-width: 11.3514; fill: none; stroke: rgb(148, 191, 105); stroke-opacity: 0.4;"><title>1</title></path><path class="link" d="M5,454.3243243243243C142.83333333333334,454.3243243243243 142.83333333333334,479.3243243243243 280.6666666666667,479.3243243243243" style="stroke-width: 11.3514; fill: none; stroke: rgb(191, 105, 105); stroke-opacity: 0.4;"><title>1</title></path><path class="link" d="M285.6666666666667,393.9189189189189C423.5,393.9189189189189 423.5,408.9189189189189 561.3333333333334,408.9189189189189" style="stroke-width: 11.3514; fill: none; stroke: rgb(105, 191, 126); stroke-opacity: 0.4;"><title>1</title></path><path class="link" d="M285.6666666666667,382.56756756756755C423.5,382.56756756756755 423.5,387.56756756756755 561.3333333333334,387.56756756756755" style="stroke-width: 11.3514; fill: none; stroke: rgb(105, 191, 126); stroke-opacity: 0.4;"><title>1</title></path><path class="link" d="M5,431.6216216216216C142.83333333333334,431.6216216216216 142.83333333333334,436.6216216216216 280.6666666666667,436.6216216216216" style="stroke-width: 11.3514; fill: none; stroke: rgb(191, 105, 105); stroke-opacity: 0.4;"><title>1</title></path><path class="link" d="M566.3333333333334,300.8108108108108C704.1666666666667,300.8108108108108 704.1666666666667,447.97297297297297 842,447.97297297297297" style="stroke-width: 11.3514; fill: none; stroke: rgb(105, 191, 159); stroke-opacity: 0.4;"><title>1</title></path><path class="link" d="M566.3333333333334,451.6216216216216C704.1666666666667,451.6216216216216 704.1666666666667,469.3243243243243 842,469.3243243243243" style="stroke-width: 11.3514; fill: none; stroke: rgb(105, 191, 191); stroke-opacity: 0.4;"><title>1</title></path><path class="link" d="M566.3333333333334,472.97297297297297C704.1666666666667,472.97297297297297 704.1666666666667,415.27027027027026 842,415.27027027027026" style="stroke-width: 11.3514; fill: none; stroke: rgb(105, 159, 191); stroke-opacity: 0.4;"><title>1</title></path><path class="link" d="M566.3333333333334,494.3243243243243C704.1666666666667,494.3243243243243 704.1666666666667,426.6216216216216 842,426.6216216216216" style="stroke-width: 11.3514; fill: none; stroke: rgb(191, 105, 137); stroke-opacity: 0.4;"><title>1</title></path><path class="link" d="M5,420.27027027027026C142.83333333333334,420.27027027027026 142.83333333333334,415.27027027027026 280.6666666666667,415.27027027027026" style="stroke-width: 11.3514; fill: none; stroke: rgb(191, 105, 105); stroke-opacity: 0.4;"><title>1</title></path><path class="link" d="M566.3333333333334,430.27027027027026C704.1666666666667,430.27027027027026 704.1666666666667,403.9189189189189 842,403.9189189189189" style="stroke-width: 11.3514; fill: none; stroke: rgb(148, 105, 191); stroke-opacity: 0.4;"><title>1</title></path><path class="link" d="M566.3333333333334,408.9189189189189C704.1666666666667,408.9189189189189 704.1666666666667,392.56756756756755 842,392.56756756756755" style="stroke-width: 11.3514; fill: none; stroke: rgb(180, 105, 191); stroke-opacity: 0.4;"><title>1</title></path><path class="link" d="M566.3333333333334,387.56756756756755C704.1666666666667,387.56756756756755 704.1666666666667,381.2162162162162 842,381.2162162162162" style="stroke-width: 11.3514; fill: none; stroke: rgb(191, 105, 169); stroke-opacity: 0.4;"><title>1</title></path><path class="link" d="M285.6666666666667,436.6216216216216C423.5,436.6216216216216 423.5,333.5135135135135 561.3333333333334,333.5135135135135" style="stroke-width: 11.3514; fill: none; stroke: rgb(116, 191, 105); stroke-opacity: 0.4;"><title>1</title></path></g><g><g class="node" transform="translate(0,40)"><rect height="420" width="5"><title>Hashim
37</title></rect><text x="11" y="210" dy=".35em" text-anchor="start" style="font-size: 11px; font-family: Arial, Helvetica; pointer-events: none;">Hashim</text></g><g class="node" transform="translate(561.3333333333334,316.48648648648646)"><rect height="22.7027027027027" width="5"><title>
2</title></rect><text x="-6" y="11.35135135135135" dy=".35em" text-anchor="end" style="font-size: 11px; font-family: Arial, Helvetica; pointer-events: none;"></text></g><g class="node" transform="translate(561.3333333333334,381.8918918918919)"><rect height="11.35135135135135" width="5"><title>Abd al-Ashhal
1</title></rect><text x="-6" y="5.675675675675675" dy=".35em" text-anchor="end" style="font-size: 11px; font-family: Arial, Helvetica; pointer-events: none;">Abd al-Ashhal</text></g><g class="node" transform="translate(561.3333333333334,349.18918918918916)"><rect height="22.7027027027027" width="5"><title>Adi b. Ka'b
2</title></rect><text x="-6" y="11.35135135135135" dy=".35em" text-anchor="end" style="font-size: 11px; font-family: Arial, Helvetica; pointer-events: none;">Adi b. Ka'b</text></g><g class="node" transform="translate(561.3333333333334,403.2432432432432)"><rect height="11.35135135135135" width="5"><title>Ghanam b. al-Salam
1</title></rect><text x="-6" y="5.675675675675675" dy=".35em" text-anchor="end" style="font-size: 11px; font-family: Arial, Helvetica; pointer-events: none;">Ghanam b. al-Salam</text></g><g class="node" transform="translate(561.3333333333334,424.5945945945946)"><rect height="11.35135135135135" width="5"><title>Ghifar
1</title></rect><text x="-6" y="5.675675675675675" dy=".35em" text-anchor="end" style="font-size: 11px; font-family: Arial, Helvetica; pointer-events: none;">Ghifar</text></g><g class="node" transform="translate(561.3333333333334,445.94594594594594)"><rect height="11.35135135135135" width="5"><title>Madhhij
1</title></rect><text x="-6" y="5.675675675675675" dy=".35em" text-anchor="end" style="font-size: 11px; font-family: Arial, Helvetica; pointer-events: none;">Madhhij</text></g><g class="node" transform="translate(561.3333333333334,0)"><rect height="306.48648648648646" width="5"><title>Qusayy
27</title></rect><text x="-6" y="153.24324324324323" dy=".35em" text-anchor="end" style="font-size: 11px; font-family: Arial, Helvetica; pointer-events: none;">Qusayy</text></g><g class="node" transform="translate(561.3333333333334,467.2972972972973)"><rect height="11.35135135135135" width="5"><title>Sahm
1</title></rect><text x="-6" y="5.675675675675675" dy=".35em" text-anchor="end" style="font-size: 11px; font-family: Arial, Helvetica; pointer-events: none;">Sahm</text></g><g class="node" transform="translate(561.3333333333334,488.64864864864865)"><rect height="11.35135135135135" width="5"><title>Taym b. Murra
1</title></rect><text x="-6" y="5.675675675675675" dy=".35em" text-anchor="end" style="font-size: 11px; font-family: Arial, Helvetica; pointer-events: none;">Taym b. Murra</text></g><g class="node" transform="translate(842,330.1351351351351)"><rect height="102.16216216216216" width="5" style="fill: rgb(102, 102, 102);"><title>
9</title></rect><text x="-6" y="51.08108108108108" dy=".35em" text-anchor="end" style="font-size: 11px; font-family: Arial, Helvetica; pointer-events: none;"></text></g><g class="node" transform="translate(842,442.2972972972973)"><rect height="11.35135135135135" width="5" style="fill: rgb(102, 102, 102);"><title>Asad
1</title></rect><text x="-6" y="5.675675675675675" dy=".35em" text-anchor="end" style="font-size: 11px; font-family: Arial, Helvetica; pointer-events: none;">Asad</text></g><g class="node" transform="translate(842,463.64864864864865)"><rect height="11.35135135135135" width="5" style="fill: rgb(102, 102, 102);"><title>Harith b. Ka'b
1</title></rect><text x="-6" y="5.675675675675675" dy=".35em" text-anchor="end" style="font-size: 11px; font-family: Arial, Helvetica; pointer-events: none;">Harith b. Ka'b</text></g><g class="node" transform="translate(842,25)"><rect height="295.1351351351351" width="5" style="fill: rgb(102, 102, 102);"><title>Hashim
26</title></rect><text x="-6" y="147.56756756756755" dy=".35em" text-anchor="end" style="font-size: 11px; font-family: Arial, Helvetica; pointer-events: none;">Hashim</text></g><g class="node" transform="translate(280.6666666666667,376.8918918918919)"><rect height="22.7027027027027" width="5"><title>Aws
2</title></rect><text x="11" y="11.35135135135135" dy=".35em" text-anchor="start" style="font-size: 11px; font-family: Arial, Helvetica; pointer-events: none;">Aws</text></g><g class="node" transform="translate(280.6666666666667,409.5945945945946)"><rect height="11.35135135135135" width="5"><title>Azd
1</title></rect><text x="11" y="5.675675675675675" dy=".35em" text-anchor="start" style="font-size: 11px; font-family: Arial, Helvetica; pointer-events: none;">Azd</text></g><g class="node" transform="translate(280.6666666666667,430.94594594594594)"><rect height="11.35135135135135" width="5"><title>Bali
1</title></rect><text x="11" y="5.675675675675675" dy=".35em" text-anchor="start" style="font-size: 11px; font-family: Arial, Helvetica; pointer-events: none;">Bali</text></g><g class="node" transform="translate(280.6666666666667,452.2972972972973)"><rect height="11.35135135135135" width="5"><title>Kinana
1</title></rect><text x="11" y="5.675675675675675" dy=".35em" text-anchor="start" style="font-size: 11px; font-family: Arial, Helvetica; pointer-events: none;">Kinana</text></g><g class="node" transform="translate(280.6666666666667,15)"><rect height="351.8918918918919" width="5"><title>Quraysh
31</title></rect><text x="11" y="175.94594594594594" dy=".35em" text-anchor="start" style="font-size: 11px; font-family: Arial, Helvetica; pointer-events: none;">Quraysh</text></g><g class="node" transform="translate(280.6666666666667,473.64864864864865)"><rect height="11.35135135135135" width="5"><title>Yemen
1</title></rect><text x="11" y="5.675675675675675" dy=".35em" text-anchor="start" style="font-size: 11px; font-family: Arial, Helvetica; pointer-events: none;">Yemen</text></g></g></g></svg>