<svg width="847" height="520" xmlns="http://www.w3.org/2000/svg" version="1.1"><g transform="translate(0,10)"><g><path class="link" d="M5,151.8181818181818C142.83333333333334,151.8181818181818 142.83333333333334,81.81818181818178 280.6666666666667,81.81818181818178" style="stroke-width: 163.636; fill: none; stroke: rgb(191, 105, 105); stroke-opacity: 0.4;"><title>20</title></path><path class="link" d="M285.6666666666667,53.18181818181815C423.5,53.18181818181815 423.5,53.18181818181815 561.3333333333334,53.18181818181815" style="stroke-width: 106.364; fill: none; stroke: rgb(191, 139, 105); stroke-opacity: 0.4;"><title>13</title></path><path class="link" d="M566.3333333333334,153.18181818181816C704.1666666666667,153.18181818181816 704.1666666666667,51.81818181818179 842,51.81818181818179" style="stroke-width: 73.6364; fill: none; stroke: rgb(105, 174, 191); stroke-opacity: 0.4;"><title>9</title></path><path class="link" d="M566.3333333333334,36.81818181818179C704.1666666666667,36.81818181818179 704.1666666666667,249.99999999999997 842,249.99999999999997" style="stroke-width: 73.6364; fill: none; stroke: rgb(105, 156, 191); stroke-opacity: 0.4;"><title>9</title></path><path class="link" d="M5,262.27272727272725C142.83333333333334,262.27272727272725 142.83333333333334,202.27272727272722 280.6666666666667,202.27272727272722" style="stroke-width: 57.2727; fill: none; stroke: rgb(191, 105, 105); stroke-opacity: 0.4;"><title>7</title></path><path class="link" d="M285.6666666666667,194.09090909090907C423.5,194.09090909090907 423.5,220.45454545454544 561.3333333333334,220.45454545454544" style="stroke-width: 40.9091; fill: none; stroke: rgb(174, 191, 105); stroke-opacity: 0.4;"><title>5</title></path><path class="link" d="M285.6666666666667,253.18181818181816C423.5,253.18181818181816 423.5,263.18181818181813 561.3333333333334,263.18181818181813" style="stroke-width: 24.5455; fill: none; stroke: rgb(191, 174, 105); stroke-opacity: 0.4;"><title>3</title></path><path class="link" d="M5,303.18181818181813C142.83333333333334,303.18181818181813 142.83333333333334,253.18181818181816 280.6666666666667,253.18181818181816" style="stroke-width: 24.5455; fill: none; stroke: rgb(191, 105, 105); stroke-opacity: 0.4;"><title>3</title></path><path class="link" d="M566.3333333333334,212.27272727272725C704.1666666666667,212.27272727272725 704.1666666666667,100.90909090909088 842,100.90909090909088" style="stroke-width: 24.5455; fill: none; stroke: rgb(105, 122, 191); stroke-opacity: 0.4;"><title>3</title></path><path class="link" d="M285.6666666666667,222.7272727272727C423.5,222.7272727272727 423.5,293.6363636363636 561.3333333333334,293.6363636363636" style="stroke-width: 16.3636; fill: none; stroke: rgb(174, 191, 105); stroke-opacity: 0.4;"><title>2</title></path><path class="link" d="M285.6666666666667,114.54545454545452C423.5,114.54545454545452 423.5,346.3636363636364 561.3333333333334,346.3636363636364" style="stroke-width: 16.3636; fill: none; stroke: rgb(191, 139, 105); stroke-opacity: 0.4;"><title>2</title></path><path class="link" d="M285.6666666666667,283.6363636363636C423.5,283.6363636363636 423.5,320 561.3333333333334,320" style="stroke-width: 16.3636; fill: none; stroke: rgb(105, 191, 139); stroke-opacity: 0.4;"><title>2</title></path><path class="link" d="M5,340C142.83333333333334,340 142.83333333333334,310 280.6666666666667,310" style="stroke-width: 16.3636; fill: none; stroke: rgb(191, 105, 105); stroke-opacity: 0.4;"><title>2</title></path><path class="link" d="M5,323.6363636363636C142.83333333333334,323.6363636363636 142.83333333333334,283.6363636363636 280.6666666666667,283.6363636363636" style="stroke-width: 16.3636; fill: none; stroke: rgb(191, 105, 105); stroke-opacity: 0.4;"><title>2</title></path><path class="link" d="M566.3333333333334,259.09090909090907C704.1666666666667,259.09090909090907 704.1666666666667,331.3636363636364 842,331.3636363636364" style="stroke-width: 16.3636; fill: none; stroke: rgb(105, 139, 191); stroke-opacity: 0.4;"><title>2</title></path><path class="link" d="M566.3333333333334,346.3636363636364C704.1666666666667,346.3636363636364 704.1666666666667,137.7272727272727 842,137.7272727272727" style="stroke-width: 16.3636; fill: none; stroke: rgb(191, 105, 156); stroke-opacity: 0.4;"><title>2</title></path><path class="link" d="M566.3333333333334,232.7272727272727C704.1666666666667,232.7272727272727 704.1666666666667,305 842,305" style="stroke-width: 16.3636; fill: none; stroke: rgb(105, 122, 191); stroke-opacity: 0.4;"><title>2</title></path><path class="link" d="M566.3333333333334,320C704.1666666666667,320 704.1666666666667,121.36363636363635 842,121.36363636363635" style="stroke-width: 16.3636; fill: none; stroke: rgb(139, 105, 191); stroke-opacity: 0.4;"><title>2</title></path><path class="link" d="M285.6666666666667,386.8181818181818C423.5,386.8181818181818 423.5,144.99999999999997 561.3333333333334,144.99999999999997" style="stroke-width: 8.18182; fill: none; stroke: rgb(139, 191, 105); stroke-opacity: 0.4;"><title>1</title></path><path class="link" d="M285.6666666666667,159.54545454545453C423.5,159.54545454545453 423.5,477.72727272727275 561.3333333333334,477.72727272727275" style="stroke-width: 8.18182; fill: none; stroke: rgb(191, 139, 105); stroke-opacity: 0.4;"><title>1</title></path><path class="link" d="M5,368.6363636363636C142.83333333333334,368.6363636363636 142.83333333333334,368.6363636363636 280.6666666666667,368.6363636363636" style="stroke-width: 8.18182; fill: none; stroke: rgb(191, 105, 105); stroke-opacity: 0.4;"><title>1</title></path><path class="link" d="M285.6666666666667,151.36363636363635C423.5,151.36363636363635 423.5,441.3636363636364 561.3333333333334,441.3636363636364" style="stroke-width: 8.18182; fill: none; stroke: rgb(191, 139, 105); stroke-opacity: 0.4;"><title>1</title></path><path class="link" d="M285.6666666666667,134.99999999999997C423.5,134.99999999999997 423.5,405 561.3333333333334,405" style="stroke-width: 8.18182; fill: none; stroke: rgb(191, 139, 105); stroke-opacity: 0.4;"><title>1</title></path><path class="link" d="M285.6666666666667,405C423.5,405 423.5,153.18181818181816 561.3333333333334,153.18181818181816" style="stroke-width: 8.18182; fill: none; stroke: rgb(191, 156, 105); stroke-opacity: 0.4;"><title>1</title></path><path class="link" d="M5,376.8181818181818C142.83333333333334,376.8181818181818 142.83333333333334,386.8181818181818 280.6666666666667,386.8181818181818" style="stroke-width: 8.18182; fill: none; stroke: rgb(191, 105, 105); stroke-opacity: 0.4;"><title>1</title></path><path class="link" d="M285.6666666666667,495.90909090909093C423.5,495.90909090909093 423.5,185.90909090909088 561.3333333333334,185.90909090909088" style="stroke-width: 8.18182; fill: none; stroke: rgb(191, 191, 105); stroke-opacity: 0.4;"><title>1</title></path><path class="link" d="M5,360.45454545454544C142.83333333333334,360.45454545454544 142.83333333333334,350.45454545454544 280.6666666666667,350.45454545454544" style="stroke-width: 8.18182; fill: none; stroke: rgb(191, 105, 105); stroke-opacity: 0.4;"><title>1</title></path><path class="link" d="M5,352.27272727272725C142.83333333333334,352.27272727272725 142.83333333333334,332.27272727272725 280.6666666666667,332.27272727272725" style="stroke-width: 8.18182; fill: none; stroke: rgb(191, 105, 105); stroke-opacity: 0.4;"><title>1</title></path><path class="link" d="M285.6666666666667,305.9090909090909C423.5,305.9090909090909 423.5,368.6363636363636 561.3333333333334,368.6363636363636" style="stroke-width: 8.18182; fill: none; stroke: rgb(156, 191, 105); stroke-opacity: 0.4;"><title>1</title></path><path class="link" d="M285.6666666666667,314.09090909090907C423.5,314.09090909090907 423.5,495.90909090909093 561.3333333333334,495.90909090909093" style="stroke-width: 8.18182; fill: none; stroke: rgb(156, 191, 105); stroke-opacity: 0.4;"><title>1</title></path><path class="link" d="M5,401.3636363636364C142.83333333333334,401.3636363636364 142.83333333333334,441.3636363636364 280.6666666666667,441.3636363636364" style="stroke-width: 8.18182; fill: none; stroke: rgb(191, 105, 105); stroke-opacity: 0.4;"><title>1</title></path><path class="link" d="M285.6666666666667,350.45454545454544C423.5,350.45454545454544 423.5,128.6363636363636 561.3333333333334,128.6363636363636" style="stroke-width: 8.18182; fill: none; stroke: rgb(122, 191, 105); stroke-opacity: 0.4;"><title>1</title></path><path class="link" d="M285.6666666666667,332.27272727272725C423.5,332.27272727272725 423.5,120.45454545454542 561.3333333333334,120.45454545454542" style="stroke-width: 8.18182; fill: none; stroke: rgb(105, 191, 105); stroke-opacity: 0.4;"><title>1</title></path><path class="link" d="M285.6666666666667,441.3636363636364C423.5,441.3636363636364 423.5,161.36363636363635 561.3333333333334,161.36363636363635" style="stroke-width: 8.18182; fill: none; stroke: rgb(105, 191, 122); stroke-opacity: 0.4;"><title>1</title></path><path class="link" d="M5,425.90909090909093C142.83333333333334,425.90909090909093 142.83333333333334,495.90909090909093 280.6666666666667,495.90909090909093" style="stroke-width: 8.18182; fill: none; stroke: rgb(191, 105, 105); stroke-opacity: 0.4;"><title>1</title></path><path class="link" d="M285.6666666666667,477.72727272727275C423.5,477.72727272727275 423.5,177.7272727272727 561.3333333333334,177.7272727272727" style="stroke-width: 8.18182; fill: none; stroke: rgb(105, 191, 156); stroke-opacity: 0.4;"><title>1</title></path><path class="link" d="M285.6666666666667,459.54545454545456C423.5,459.54545454545456 423.5,169.5454545454545 561.3333333333334,169.5454545454545" style="stroke-width: 8.18182; fill: none; stroke: rgb(105, 191, 174); stroke-opacity: 0.4;"><title>1</title></path><path class="link" d="M285.6666666666667,423.1818181818182C423.5,423.1818181818182 423.5,459.54545454545456 561.3333333333334,459.54545454545456" style="stroke-width: 8.18182; fill: none; stroke: rgb(105, 191, 191); stroke-opacity: 0.4;"><title>1</title></path><path class="link" d="M5,417.72727272727275C142.83333333333334,417.72727272727275 142.83333333333334,477.72727272727275 280.6666666666667,477.72727272727275" style="stroke-width: 8.18182; fill: none; stroke: rgb(191, 105, 105); stroke-opacity: 0.4;"><title>1</title></path><path class="link" d="M566.3333333333334,85.90909090909089C704.1666666666667,85.90909090909089 704.1666666666667,390 842,390" style="stroke-width: 8.18182; fill: none; stroke: rgb(105, 156, 191); stroke-opacity: 0.4;"><title>1</title></path><path class="link" d="M566.3333333333334,77.7272727272727C704.1666666666667,77.7272727272727 704.1666666666667,353.6363636363636 842,353.6363636363636" style="stroke-width: 8.18182; fill: none; stroke: rgb(105, 156, 191); stroke-opacity: 0.4;"><title>1</title></path><path class="link" d="M5,409.54545454545456C142.83333333333334,409.54545454545456 142.83333333333334,459.54545454545456 280.6666666666667,459.54545454545456" style="stroke-width: 8.18182; fill: none; stroke: rgb(191, 105, 105); stroke-opacity: 0.4;"><title>1</title></path><path class="link" d="M566.3333333333334,102.27272727272727C704.1666666666667,102.27272727272727 704.1666666666667,462.72727272727275 842,462.72727272727275" style="stroke-width: 8.18182; fill: none; stroke: rgb(105, 156, 191); stroke-opacity: 0.4;"><title>1</title></path><path class="link" d="M566.3333333333334,94.09090909090908C704.1666666666667,94.09090909090908 704.1666666666667,426.3636363636364 842,426.3636363636364" style="stroke-width: 8.18182; fill: none; stroke: rgb(105, 156, 191); stroke-opacity: 0.4;"><title>1</title></path><path class="link" d="M566.3333333333334,271.3636363636363C704.1666666666667,271.3636363636363 704.1666666666667,480.90909090909093 842,480.90909090909093" style="stroke-width: 8.18182; fill: none; stroke: rgb(105, 139, 191); stroke-opacity: 0.4;"><title>1</title></path><path class="link" d="M5,393.1818181818182C142.83333333333334,393.1818181818182 142.83333333333334,423.1818181818182 280.6666666666667,423.1818181818182" style="stroke-width: 8.18182; fill: none; stroke: rgb(191, 105, 105); stroke-opacity: 0.4;"><title>1</title></path><path class="link" d="M285.6666666666667,368.6363636363636C423.5,368.6363636363636 423.5,136.81818181818178 561.3333333333334,136.81818181818178" style="stroke-width: 8.18182; fill: none; stroke: rgb(191, 122, 105); stroke-opacity: 0.4;"><title>1</title></path><path class="link" d="M5,385C142.83333333333334,385 142.83333333333334,405 280.6666666666667,405" style="stroke-width: 8.18182; fill: none; stroke: rgb(191, 105, 105); stroke-opacity: 0.4;"><title>1</title></path><path class="link" d="M566.3333333333334,368.6363636363636C704.1666666666667,368.6363636363636 704.1666666666667,371.8181818181818 842,371.8181818181818" style="stroke-width: 8.18182; fill: none; stroke: rgb(105, 105, 191); stroke-opacity: 0.4;"><title>1</title></path><path class="link" d="M566.3333333333334,386.8181818181818C704.1666666666667,386.8181818181818 704.1666666666667,149.99999999999997 842,149.99999999999997" style="stroke-width: 8.18182; fill: none; stroke: rgb(122, 105, 191); stroke-opacity: 0.4;"><title>1</title></path><path class="link" d="M285.6666666666667,126.81818181818178C423.5,126.81818181818178 423.5,386.8181818181818 561.3333333333334,386.8181818181818" style="stroke-width: 8.18182; fill: none; stroke: rgb(191, 139, 105); stroke-opacity: 0.4;"><title>1</title></path><path class="link" d="M566.3333333333334,297.7272727272727C704.1666666666667,297.7272727272727 704.1666666666667,444.54545454545456 842,444.54545454545456" style="stroke-width: 8.18182; fill: none; stroke: rgb(156, 105, 191); stroke-opacity: 0.4;"><title>1</title></path><path class="link" d="M566.3333333333334,289.5454545454545C704.1666666666667,289.5454545454545 704.1666666666667,408.1818181818182 842,408.1818181818182" style="stroke-width: 8.18182; fill: none; stroke: rgb(156, 105, 191); stroke-opacity: 0.4;"><title>1</title></path><path class="link" d="M566.3333333333334,459.54545454545456C704.1666666666667,459.54545454545456 704.1666666666667,182.72727272727272 842,182.72727272727272" style="stroke-width: 8.18182; fill: none; stroke: rgb(105, 191, 191); stroke-opacity: 0.4;"><title>1</title></path><path class="link" d="M566.3333333333334,423.1818181818182C704.1666666666667,423.1818181818182 704.1666666666667,166.36363636363635 842,166.36363636363635" style="stroke-width: 8.18182; fill: none; stroke: rgb(174, 105, 191); stroke-opacity: 0.4;"><title>1</title></path><path class="link" d="M566.3333333333334,495.90909090909093C704.1666666666667,495.90909090909093 704.1666666666667,199.0909090909091 842,199.0909090909091" style="stroke-width: 8.18182; fill: none; stroke: rgb(191, 105, 191); stroke-opacity: 0.4;"><title>1</title></path><path class="link" d="M566.3333333333334,477.72727272727275C704.1666666666667,477.72727272727275 704.1666666666667,190.9090909090909 842,190.9090909090909" style="stroke-width: 8.18182; fill: none; stroke: rgb(191, 105, 174); stroke-opacity: 0.4;"><title>1</title></path><path class="link" d="M285.6666666666667,143.18181818181816C423.5,143.18181818181816 423.5,423.1818181818182 561.3333333333334,423.1818181818182" style="stroke-width: 8.18182; fill: none; stroke: rgb(191, 139, 105); stroke-opacity: 0.4;"><title>1</title></path><path class="link" d="M566.3333333333334,441.3636363636364C704.1666666666667,441.3636363636364 704.1666666666667,174.54545454545453 842,174.54545454545453" style="stroke-width: 8.18182; fill: none; stroke: rgb(191, 105, 139); stroke-opacity: 0.4;"><title>1</title></path><path class="link" d="M566.3333333333334,405C704.1666666666667,405 704.1666666666667,158.18181818181816 842,158.18181818181816" style="stroke-width: 8.18182; fill: none; stroke: rgb(191, 105, 122); stroke-opacity: 0.4;"><title>1</title></path></g><g><g class="node" transform="translate(0,70)"><rect height="360" width="5"><title>Hashim
44</title></rect><text x="11" y="180" dy=".35em" text-anchor="start" style="font-size: 11px; font-family: Arial, Helvetica; pointer-events: none;">Hashim</text></g><g class="node" transform="translate(561.3333333333334,116.36363636363633)"><rect height="73.63636363636364" width="5"><title>
9</title></rect><text x="-6" y="36.81818181818182" dy=".35em" text-anchor="end" style="font-size: 11px; font-family: Arial, Helvetica; pointer-events: none;"></text></g><g class="node" transform="translate(561.3333333333334,364.54545454545456)"><rect height="8.181818181818182" width="5"><title>Abd Mana'a
1</title></rect><text x="-6" y="4.090909090909091" dy=".35em" text-anchor="end" style="font-size: 11px; font-family: Arial, Helvetica; pointer-events: none;">Abd Mana'a</text></g><g class="node" transform="translate(561.3333333333334,437.2727272727273)"><rect height="8.181818181818182" width="5"><title>Adi b. Ka'b
1</title></rect><text x="-6" y="4.090909090909091" dy=".35em" text-anchor="end" style="font-size: 11px; font-family: Arial, Helvetica; pointer-events: none;">Adi b. Ka'b</text></g><g class="node" transform="translate(561.3333333333334,400.90909090909093)"><rect height="8.181818181818182" width="5"><title>Amir b. Lu'ayy
1</title></rect><text x="-6" y="4.090909090909091" dy=".35em" text-anchor="end" style="font-size: 11px; font-family: Arial, Helvetica; pointer-events: none;">Amir b. Lu'ayy</text></g><g class="node" transform="translate(561.3333333333334,285.45454545454544)"><rect height="16.363636363636363" width="5"><title>Amir b. Sa'sa'
2</title></rect><text x="-6" y="8.181818181818182" dy=".35em" text-anchor="end" style="font-size: 11px; font-family: Arial, Helvetica; pointer-events: none;">Amir b. Sa'sa'</text></g><g class="node" transform="translate(561.3333333333334,199.99999999999997)"><rect height="40.90909090909091" width="5"><title>Amir b. Sa'sa'a
5</title></rect><text x="-6" y="20.454545454545453" dy=".35em" text-anchor="end" style="font-size: 11px; font-family: Arial, Helvetica; pointer-events: none;">Amir b. Sa'sa'a</text></g><g class="node" transform="translate(561.3333333333334,455.4545454545455)"><rect height="8.181818181818182" width="5"><title>Azd
1</title></rect><text x="-6" y="4.090909090909091" dy=".35em" text-anchor="end" style="font-size: 11px; font-family: Arial, Helvetica; pointer-events: none;">Azd</text></g><g class="node" transform="translate(561.3333333333334,491.81818181818187)"><rect height="8.181818181818182" width="5"><title>Harith b. Abd Mana'a
1</title></rect><text x="-6" y="4.090909090909091" dy=".35em" text-anchor="end" style="font-size: 11px; font-family: Arial, Helvetica; pointer-events: none;">Harith b. Abd Mana'a</text></g><g class="node" transform="translate(561.3333333333334,382.72727272727275)"><rect height="8.181818181818182" width="5"><title>Harith b. Fihr
1</title></rect><text x="-6" y="4.090909090909091" dy=".35em" text-anchor="end" style="font-size: 11px; font-family: Arial, Helvetica; pointer-events: none;">Harith b. Fihr</text></g><g class="node" transform="translate(561.3333333333334,311.8181818181818)"><rect height="16.363636363636363" width="5"><title>Khatham
2</title></rect><text x="-6" y="8.181818181818182" dy=".35em" text-anchor="end" style="font-size: 11px; font-family: Arial, Helvetica; pointer-events: none;">Khatham</text></g><g class="node" transform="translate(561.3333333333334,250.90909090909088)"><rect height="24.545454545454547" width="5"><title>Madhhij
3</title></rect><text x="-6" y="12.272727272727273" dy=".35em" text-anchor="end" style="font-size: 11px; font-family: Arial, Helvetica; pointer-events: none;">Madhhij</text></g><g class="node" transform="translate(561.3333333333334,338.1818181818182)"><rect height="16.363636363636363" width="5"><title>Makhzum
2</title></rect><text x="-6" y="8.181818181818182" dy=".35em" text-anchor="end" style="font-size: 11px; font-family: Arial, Helvetica; pointer-events: none;">Makhzum</text></g><g class="node" transform="translate(561.3333333333334,-2.842170943040401e-14)"><rect height="106.36363636363636" width="5"><title>Qusayy
13</title></rect><text x="-6" y="53.18181818181818" dy=".35em" text-anchor="end" style="font-size: 11px; font-family: Arial, Helvetica; pointer-events: none;">Qusayy</text></g><g class="node" transform="translate(561.3333333333334,473.6363636363637)"><rect height="8.181818181818182" width="5"><title>Taym b. Murra
1</title></rect><text x="-6" y="4.090909090909091" dy=".35em" text-anchor="end" style="font-size: 11px; font-family: Arial, Helvetica; pointer-events: none;">Taym b. Murra</text></g><g class="node" transform="translate(561.3333333333334,419.0909090909091)"><rect height="8.181818181818182" width="5"><title>Zuhra
1</title></rect><text x="-6" y="4.090909090909091" dy=".35em" text-anchor="end" style="font-size: 11px; font-family: Arial, Helvetica; pointer-events: none;">Zuhra</text></g><g class="node" transform="translate(842,14.999999999999972)"><rect height="188.1818181818182" width="5" style="fill: rgb(102, 102, 102);"><title>
23</title></rect><text x="-6" y="94.0909090909091" dy=".35em" text-anchor="end" style="font-size: 11px; font-family: Arial, Helvetica; pointer-events: none;"></text></g><g class="node" transform="translate(842,385.90909090909093)"><rect height="8.181818181818182" width="5" style="fill: rgb(102, 102, 102);"><title>Abd al-Dar
1</title></rect><text x="-6" y="4.090909090909091" dy=".35em" text-anchor="end" style="font-size: 11px; font-family: Arial, Helvetica; pointer-events: none;">Abd al-Dar</text></g><g class="node" transform="translate(842,422.2727272727273)"><rect height="8.181818181818182" width="5" style="fill: rgb(102, 102, 102);"><title>Abd Shams
1</title></rect><text x="-6" y="4.090909090909091" dy=".35em" text-anchor="end" style="font-size: 11px; font-family: Arial, Helvetica; pointer-events: none;">Abd Shams</text></g><g class="node" transform="translate(842,404.0909090909091)"><rect height="8.181818181818182" width="5" style="fill: rgb(102, 102, 102);"><title>Abu Bakr b. Kilab b. Rabi'a
1</title></rect><text x="-6" y="4.090909090909091" dy=".35em" text-anchor="end" style="font-size: 11px; font-family: Arial, Helvetica; pointer-events: none;">Abu Bakr b. Kilab b. Rabi'a</text></g><g class="node" transform="translate(842,349.54545454545456)"><rect height="8.181818181818182" width="5" style="fill: rgb(102, 102, 102);"><title>Asad
1</title></rect><text x="-6" y="4.090909090909091" dy=".35em" text-anchor="end" style="font-size: 11px; font-family: Arial, Helvetica; pointer-events: none;">Asad</text></g><g class="node" transform="translate(842,367.72727272727275)"><rect height="8.181818181818182" width="5" style="fill: rgb(102, 102, 102);"><title>Harith  
1</title></rect><text x="-6" y="4.090909090909091" dy=".35em" text-anchor="end" style="font-size: 11px; font-family: Arial, Helvetica; pointer-events: none;">Harith  </text></g><g class="node" transform="translate(842,323.1818181818182)"><rect height="16.363636363636363" width="5" style="fill: rgb(102, 102, 102);"><title>Harith b. Ka'b
2</title></rect><text x="-6" y="8.181818181818182" dy=".35em" text-anchor="end" style="font-size: 11px; font-family: Arial, Helvetica; pointer-events: none;">Harith b. Ka'b</text></g><g class="node" transform="translate(842,213.18181818181816)"><rect height="73.63636363636364" width="5" style="fill: rgb(102, 102, 102);"><title>Hashim
9</title></rect><text x="-6" y="36.81818181818182" dy=".35em" text-anchor="end" style="font-size: 11px; font-family: Arial, Helvetica; pointer-events: none;">Hashim</text></g><g class="node" transform="translate(842,296.8181818181818)"><rect height="16.363636363636363" width="5" style="fill: rgb(102, 102, 102);"><title>Hilal
2</title></rect><text x="-6" y="8.181818181818182" dy=".35em" text-anchor="end" style="font-size: 11px; font-family: Arial, Helvetica; pointer-events: none;">Hilal</text></g><g class="node" transform="translate(842,440.4545454545455)"><rect height="8.181818181818182" width="5" style="fill: rgb(102, 102, 102);"><title>Nufayl b. Amru b. Kilab
1</title></rect><text x="-6" y="4.090909090909091" dy=".35em" text-anchor="end" style="font-size: 11px; font-family: Arial, Helvetica; pointer-events: none;">Nufayl b. Amru b. Kilab</text></g><g class="node" transform="translate(842,458.6363636363637)"><rect height="8.181818181818182" width="5" style="fill: rgb(102, 102, 102);"><title>Umayyad
1</title></rect><text x="-6" y="4.090909090909091" dy=".35em" text-anchor="end" style="font-size: 11px; font-family: Arial, Helvetica; pointer-events: none;">Umayyad</text></g><g class="node" transform="translate(842,476.81818181818187)"><rect height="8.181818181818182" width="5" style="fill: rgb(102, 102, 102);"><title>Zubaidi
1</title></rect><text x="-6" y="4.090909090909091" dy=".35em" text-anchor="end" style="font-size: 11px; font-family: Arial, Helvetica; pointer-events: none;">Zubaidi</text></g><g class="node" transform="translate(280.6666666666667,275.45454545454544)"><rect height="16.363636363636363" width="5"><title>Anmar
2</title></rect><text x="11" y="8.181818181818182" dy=".35em" text-anchor="start" style="font-size: 11px; font-family: Arial, Helvetica; pointer-events: none;">Anmar</text></g><g class="node" transform="translate(280.6666666666667,364.54545454545456)"><rect height="8.181818181818182" width="5"><title>Asad b. Khuzayma
1</title></rect><text x="11" y="4.090909090909091" dy=".35em" text-anchor="start" style="font-size: 11px; font-family: Arial, Helvetica; pointer-events: none;">Asad b. Khuzayma</text></g><g class="node" transform="translate(280.6666666666667,419.0909090909091)"><rect height="8.181818181818182" width="5"><title>Azd
1</title></rect><text x="11" y="4.090909090909091" dy=".35em" text-anchor="start" style="font-size: 11px; font-family: Arial, Helvetica; pointer-events: none;">Azd</text></g><g class="node" transform="translate(280.6666666666667,400.90909090909093)"><rect height="8.181818181818182" width="5"><title>Egyptian
1</title></rect><text x="11" y="4.090909090909091" dy=".35em" text-anchor="start" style="font-size: 11px; font-family: Arial, Helvetica; pointer-events: none;">Egyptian</text></g><g class="node" transform="translate(280.6666666666667,346.3636363636364)"><rect height="8.181818181818182" width="5"><title>Hadrami
1</title></rect><text x="11" y="4.090909090909091" dy=".35em" text-anchor="start" style="font-size: 11px; font-family: Arial, Helvetica; pointer-events: none;">Hadrami</text></g><g class="node" transform="translate(280.6666666666667,328.1818181818182)"><rect height="8.181818181818182" width="5"><title>Hanifa
1</title></rect><text x="11" y="4.090909090909091" dy=".35em" text-anchor="start" style="font-size: 11px; font-family: Arial, Helvetica; pointer-events: none;">Hanifa</text></g><g class="node" transform="translate(280.6666666666667,301.8181818181818)"><rect height="16.363636363636363" width="5"><title>Kinana
2</title></rect><text x="11" y="8.181818181818182" dy=".35em" text-anchor="start" style="font-size: 11px; font-family: Arial, Helvetica; pointer-events: none;">Kinana</text></g><g class="node" transform="translate(280.6666666666667,491.81818181818187)"><rect height="8.181818181818182" width="5"><title>Kinda
1</title></rect><text x="11" y="4.090909090909091" dy=".35em" text-anchor="start" style="font-size: 11px; font-family: Arial, Helvetica; pointer-events: none;">Kinda</text></g><g class="node" transform="translate(280.6666666666667,382.72727272727275)"><rect height="8.181818181818182" width="5"><title>Look up - possibly Himyar
1</title></rect><text x="11" y="4.090909090909091" dy=".35em" text-anchor="start" style="font-size: 11px; font-family: Arial, Helvetica; pointer-events: none;">Look up - possibly Himyar</text></g><g class="node" transform="translate(280.6666666666667,173.6363636363636)"><rect height="57.27272727272727" width="5"><title>Qays Aylan
7</title></rect><text x="11" y="28.636363636363637" dy=".35em" text-anchor="start" style="font-size: 11px; font-family: Arial, Helvetica; pointer-events: none;">Qays Aylan</text></g><g class="node" transform="translate(280.6666666666667,-2.842170943040401e-14)"><rect height="163.63636363636363" width="5"><title>Quraysh
20</title></rect><text x="11" y="81.81818181818181" dy=".35em" text-anchor="start" style="font-size: 11px; font-family: Arial, Helvetica; pointer-events: none;">Quraysh</text></g><g class="node" transform="translate(280.6666666666667,437.2727272727273)"><rect height="8.181818181818182" width="5"><title>Taghlib
1</title></rect><text x="11" y="4.090909090909091" dy=".35em" text-anchor="start" style="font-size: 11px; font-family: Arial, Helvetica; pointer-events: none;">Taghlib</text></g><g class="node" transform="translate(280.6666666666667,455.4545454545455)"><rect height="8.181818181818182" width="5"><title>Tamim 
1</title></rect><text x="11" y="4.090909090909091" dy=".35em" text-anchor="start" style="font-size: 11px; font-family: Arial, Helvetica; pointer-events: none;">Tamim </text></g><g class="node" transform="translate(280.6666666666667,473.6363636363637)"><rect height="8.181818181818182" width="5"><title>Thaqif
1</title></rect><text x="11" y="4.090909090909091" dy=".35em" text-anchor="start" style="font-size: 11px; font-family: Arial, Helvetica; pointer-events: none;">Thaqif</text></g><g class="node" transform="translate(280.6666666666667,240.90909090909088)"><rect height="24.545454545454547" width="5"><title>Yemen
3</title></rect><text x="11" y="12.272727272727273" dy=".35em" text-anchor="start" style="font-size: 11px; font-family: Arial, Helvetica; pointer-events: none;">Yemen</text></g></g></g></svg>