<svg width="847" height="520" xmlns="http://www.w3.org/2000/svg" version="1.1"><g transform="translate(0,10)"><g><path class="link" d="M5,238.46153846153845C107.75,238.46153846153845 107.75,228.46153846153845 210.5,228.46153846153845" style="stroke-width: 426.923; fill: none; stroke: rgb(191, 105, 105); stroke-opacity: 0.4;"><title>37</title></path><path class="link" d="M215.5,205.3846153846154C318.25,205.3846153846154 318.25,190.3846153846154 421,190.3846153846154" style="stroke-width: 380.769; fill: none; stroke: rgb(191, 184, 105); stroke-opacity: 0.4;"><title>33</title></path><path class="link" d="M426,167.3076923076923C528.75,167.3076923076923 528.75,177.3076923076923 631.5,177.3076923076923" style="stroke-width: 334.615; fill: none; stroke: rgb(105, 191, 131); stroke-opacity: 0.4;"><title>29</title></path><path class="link" d="M636.5,142.69230769230768C739.25,142.69230769230768 739.25,216.9230769230769 842,216.9230769230769" style="stroke-width: 103.846; fill: none; stroke: rgb(191, 105, 145); stroke-opacity: 0.4;"><title>9</title></path><path class="link" d="M636.5,240.76923076923077C739.25,240.76923076923077 739.25,324.99999999999994 842,324.99999999999994" style="stroke-width: 92.3077; fill: none; stroke: rgb(191, 105, 145); stroke-opacity: 0.4;"><title>8</title></path><path class="link" d="M636.5,50.38461538461539C739.25,50.38461538461539 739.25,45.38461538461539 842,45.38461538461539" style="stroke-width: 80.7692; fill: none; stroke: rgb(191, 105, 145); stroke-opacity: 0.4;"><title>7</title></path><path class="link" d="M636.5,383.46153846153845C739.25,383.46153846153845 739.25,114.61538461538461 842,114.61538461538461" style="stroke-width: 57.6923; fill: none; stroke: rgb(105, 191, 171); stroke-opacity: 0.4;"><title>5</title></path><path class="link" d="M636.5,315.7692307692308C739.25,315.7692307692308 739.25,410 842,410" style="stroke-width: 57.6923; fill: none; stroke: rgb(191, 105, 145); stroke-opacity: 0.4;"><title>5</title></path><path class="link" d="M426,357.6923076923077C528.75,357.6923076923077 528.75,445.38461538461536 631.5,445.38461538461536" style="stroke-width: 46.1538; fill: none; stroke: rgb(105, 191, 131); stroke-opacity: 0.4;"><title>4</title></path><path class="link" d="M636.5,445.38461538461536C739.25,445.38461538461536 739.25,471.9230769230769 842,471.9230769230769" style="stroke-width: 46.1538; fill: none; stroke: rgb(191, 105, 184); stroke-opacity: 0.4;"><title>4</title></path><path class="link" d="M426,402.3076923076923C528.75,402.3076923076923 528.75,366.15384615384613 631.5,366.15384615384613" style="stroke-width: 23.0769; fill: none; stroke: rgb(105, 171, 191); stroke-opacity: 0.4;"><title>2</title></path><path class="link" d="M215.5,407.3076923076923C318.25,407.3076923076923 318.25,402.3076923076923 421,402.3076923076923" style="stroke-width: 23.0769; fill: none; stroke: rgb(191, 184, 105); stroke-opacity: 0.4;"><title>2</title></path><path class="link" d="M426,451.1538461538462C528.75,451.1538461538462 528.75,394.99999999999994 631.5,394.99999999999994" style="stroke-width: 11.5385; fill: none; stroke: rgb(118, 105, 191); stroke-opacity: 0.4;"><title>1</title></path><path class="link" d="M215.5,457.6923076923077C318.25,457.6923076923077 318.25,429.61538461538464 421,429.61538461538464" style="stroke-width: 11.5385; fill: none; stroke: rgb(158, 191, 105); stroke-opacity: 0.4;"><title>1</title></path><path class="link" d="M426,494.2307692307693C528.75,494.2307692307693 528.75,406.5384615384615 631.5,406.5384615384615" style="stroke-width: 11.5385; fill: none; stroke: rgb(105, 131, 191); stroke-opacity: 0.4;"><title>1</title></path><path class="link" d="M426,472.69230769230774C528.75,472.69230769230774 528.75,484.23076923076917 631.5,484.23076923076917" style="stroke-width: 11.5385; fill: none; stroke: rgb(118, 191, 105); stroke-opacity: 0.4;"><title>1</title></path><path class="link" d="M636.5,484.23076923076917C739.25,484.23076923076917 739.25,149.23076923076923 842,149.23076923076923" style="stroke-width: 11.5385; fill: none; stroke: rgb(158, 105, 191); stroke-opacity: 0.4;"><title>1</title></path><path class="link" d="M215.5,424.61538461538464C318.25,424.61538461538464 318.25,451.1538461538462 421,451.1538461538462" style="stroke-width: 11.5385; fill: none; stroke: rgb(191, 184, 105); stroke-opacity: 0.4;"><title>1</title></path><path class="link" d="M215.5,436.1538461538462C318.25,436.1538461538462 318.25,494.2307692307693 421,494.2307692307693" style="stroke-width: 11.5385; fill: none; stroke: rgb(191, 184, 105); stroke-opacity: 0.4;"><title>1</title></path><path class="link" d="M426,429.61538461538464C528.75,429.61538461538464 528.75,383.46153846153845 631.5,383.46153846153845" style="stroke-width: 11.5385; fill: none; stroke: rgb(105, 191, 171); stroke-opacity: 0.4;"><title>1</title></path><path class="link" d="M215.5,479.2307692307692C318.25,479.2307692307692 318.25,472.69230769230774 421,472.69230769230774" style="stroke-width: 11.5385; fill: none; stroke: rgb(191, 145, 105); stroke-opacity: 0.4;"><title>1</title></path><path class="link" d="M5,457.6923076923077C107.75,457.6923076923077 107.75,457.6923076923077 210.5,457.6923076923077" style="stroke-width: 11.5385; fill: none; stroke: rgb(191, 105, 105); stroke-opacity: 0.4;"><title>1</title></path><path class="link" d="M5,469.2307692307692C107.75,469.2307692307692 107.75,479.2307692307692 210.5,479.2307692307692" style="stroke-width: 11.5385; fill: none; stroke: rgb(191, 105, 105); stroke-opacity: 0.4;"><title>1</title></path></g><g><g class="node" transform="translate(0,25)"><rect height="450" width="5"><title>Marwanid
39</title></rect><text x="11" y="225" dy=".35em" text-anchor="start" style="font-size: 11px; font-family: Arial, Helvetica; pointer-events: none;">Marwanid</text></g><g class="node" transform="translate(421,423.84615384615387)"><rect height="11.538461538461538" width="5"><title>
1</title></rect><text x="11" y="5.769230769230769" dy=".35em" text-anchor="start" style="font-size: 11px; font-family: Arial, Helvetica; pointer-events: none;"></text></g><g class="node" transform="translate(421,445.3846153846154)"><rect height="11.538461538461538" width="5"><title>Adi b. Ka'b
1</title></rect><text x="11" y="5.769230769230769" dy=".35em" text-anchor="start" style="font-size: 11px; font-family: Arial, Helvetica; pointer-events: none;">Adi b. Ka'b</text></g><g class="node" transform="translate(421,466.92307692307696)"><rect height="11.538461538461538" width="5"><title>Madhhij
1</title></rect><text x="11" y="5.769230769230769" dy=".35em" text-anchor="start" style="font-size: 11px; font-family: Arial, Helvetica; pointer-events: none;">Madhhij</text></g><g class="node" transform="translate(421,488.4615384615385)"><rect height="11.538461538461538" width="5"><title>Makhzum
1</title></rect><text x="11" y="5.769230769230769" dy=".35em" text-anchor="start" style="font-size: 11px; font-family: Arial, Helvetica; pointer-events: none;">Makhzum</text></g><g class="node" transform="translate(421,0)"><rect height="380.7692307692308" width="5"><title>Qusayy
33</title></rect><text x="11" y="190.3846153846154" dy=".35em" text-anchor="start" style="font-size: 11px; font-family: Arial, Helvetica; pointer-events: none;">Qusayy</text></g><g class="node" transform="translate(421,390.7692307692308)"><rect height="23.076923076923077" width="5"><title>Taym b. Murra
2</title></rect><text x="11" y="11.538461538461538" dy=".35em" text-anchor="start" style="font-size: 11px; font-family: Arial, Helvetica; pointer-events: none;">Taym b. Murra</text></g><g class="node" transform="translate(631.5,354.6153846153846)"><rect height="57.69230769230769" width="5"><title>
5</title></rect><text x="-6" y="28.846153846153847" dy=".35em" text-anchor="end" style="font-size: 11px; font-family: Arial, Helvetica; pointer-events: none;"></text></g><g class="node" transform="translate(631.5,478.4615384615384)"><rect height="11.538461538461538" width="5"><title>Harith b. Ka'b
1</title></rect><text x="-6" y="5.769230769230769" dy=".35em" text-anchor="end" style="font-size: 11px; font-family: Arial, Helvetica; pointer-events: none;">Harith b. Ka'b</text></g><g class="node" transform="translate(631.5,422.30769230769226)"><rect height="46.15384615384615" width="5"><title>Hashim
4</title></rect><text x="-6" y="23.076923076923077" dy=".35em" text-anchor="end" style="font-size: 11px; font-family: Arial, Helvetica; pointer-events: none;">Hashim</text></g><g class="node" transform="translate(631.5,10)"><rect height="334.6153846153846" width="5"><title>Umayyad
29</title></rect><text x="-6" y="167.3076923076923" dy=".35em" text-anchor="end" style="font-size: 11px; font-family: Arial, Helvetica; pointer-events: none;">Umayyad</text></g><g class="node" transform="translate(842,5)"><rect height="150" width="5" style="fill: rgb(102, 102, 102);"><title>
13</title></rect><text x="-6" y="75" dy=".35em" text-anchor="end" style="font-size: 11px; font-family: Arial, Helvetica; pointer-events: none;"></text></g><g class="node" transform="translate(842,448.8461538461538)"><rect height="46.15384615384615" width="5" style="fill: rgb(102, 102, 102);"><title>Alid
4</title></rect><text x="-6" y="23.076923076923077" dy=".35em" text-anchor="end" style="font-size: 11px; font-family: Arial, Helvetica; pointer-events: none;">Alid</text></g><g class="node" transform="translate(842,278.8461538461538)"><rect height="92.3076923076923" width="5" style="fill: rgb(102, 102, 102);"><title>Marwanid
8</title></rect><text x="-6" y="46.15384615384615" dy=".35em" text-anchor="end" style="font-size: 11px; font-family: Arial, Helvetica; pointer-events: none;">Marwanid</text></g><g class="node" transform="translate(842,381.15384615384613)"><rect height="57.69230769230769" width="5" style="fill: rgb(102, 102, 102);"><title>Sufyanid
5</title></rect><text x="-6" y="28.846153846153847" dy=".35em" text-anchor="end" style="font-size: 11px; font-family: Arial, Helvetica; pointer-events: none;">Sufyanid</text></g><g class="node" transform="translate(842,165)"><rect height="103.84615384615384" width="5" style="fill: rgb(102, 102, 102);"><title>Uthmanid
9</title></rect><text x="-6" y="51.92307692307692" dy=".35em" text-anchor="end" style="font-size: 11px; font-family: Arial, Helvetica; pointer-events: none;">Uthmanid</text></g><g class="node" transform="translate(210.5,15)"><rect height="426.9230769230769" width="5"><title>Quraysh
37</title></rect><text x="11" y="213.46153846153845" dy=".35em" text-anchor="start" style="font-size: 11px; font-family: Arial, Helvetica; pointer-events: none;">Quraysh</text></g><g class="node" transform="translate(210.5,451.9230769230769)"><rect height="11.538461538461538" width="5"><title>Thaqif
1</title></rect><text x="11" y="5.769230769230769" dy=".35em" text-anchor="start" style="font-size: 11px; font-family: Arial, Helvetica; pointer-events: none;">Thaqif</text></g><g class="node" transform="translate(210.5,473.46153846153845)"><rect height="11.538461538461538" width="5"><title>Yemen
1</title></rect><text x="11" y="5.769230769230769" dy=".35em" text-anchor="start" style="font-size: 11px; font-family: Arial, Helvetica; pointer-events: none;">Yemen</text></g></g></g></svg>