<svg width="847" height="520" xmlns="http://www.w3.org/2000/svg" version="1.1"><g transform="translate(0,10)"><g><path class="link" d="M5,224.8C107.75,224.8 107.75,214.8 210.5,214.8" style="stroke-width: 369.6; fill: none; stroke: rgb(191, 105, 105); stroke-opacity: 0.4;"><title>22</title></path><path class="link" d="M215.5,139.2C318.25,139.2 318.25,109.19999999999997 421,109.19999999999997" style="stroke-width: 218.4; fill: none; stroke: rgb(191, 132, 105); stroke-opacity: 0.4;"><title>13</title></path><path class="link" d="M636.5,107.39999999999995C739.25,107.39999999999995 739.25,112.4 842,112.4" style="stroke-width: 184.8; fill: none; stroke: rgb(255, 255, 255); stroke-opacity: 0.4;"><title>11</title></path><path class="link" d="M426,75.59999999999998C528.75,75.59999999999998 528.75,285.4 631.5,285.4" style="stroke-width: 151.2; fill: none; stroke: rgb(168, 191, 105); stroke-opacity: 0.4;"><title>9</title></path><path class="link" d="M636.5,260.2C739.25,260.2 739.25,332.40000000000003 842,332.40000000000003" style="stroke-width: 67.2; fill: none; stroke: rgb(141, 105, 191); stroke-opacity: 0.4;"><title>4</title></path><path class="link" d="M426,313.99999999999994C528.75,313.99999999999994 528.75,90.59999999999995 631.5,90.59999999999995" style="stroke-width: 50.4; fill: none; stroke: rgb(114, 191, 105); stroke-opacity: 0.4;"><title>3</title></path><path class="link" d="M215.5,273.6C318.25,273.6 318.25,253.59999999999997 421,253.59999999999997" style="stroke-width: 50.4; fill: none; stroke: rgb(191, 132, 105); stroke-opacity: 0.4;"><title>3</title></path><path class="link" d="M636.5,318.99999999999994C739.25,318.99999999999994 739.25,401.2 842,401.2" style="stroke-width: 50.4; fill: none; stroke: rgb(141, 105, 191); stroke-opacity: 0.4;"><title>3</title></path><path class="link" d="M426,253.59999999999997C528.75,253.59999999999997 528.75,40.199999999999946 631.5,40.199999999999946" style="stroke-width: 50.4; fill: none; stroke: rgb(105, 191, 150); stroke-opacity: 0.4;"><title>3</title></path><path class="link" d="M215.5,324C318.25,324 318.25,313.99999999999994 421,313.99999999999994" style="stroke-width: 50.4; fill: none; stroke: rgb(191, 132, 105); stroke-opacity: 0.4;"><title>3</title></path><path class="link" d="M426,168C528.75,168 528.75,387.8 631.5,387.8" style="stroke-width: 33.6; fill: none; stroke: rgb(168, 191, 105); stroke-opacity: 0.4;"><title>2</title></path><path class="link" d="M5,426.40000000000003C107.75,426.40000000000003 107.75,426.40000000000003 210.5,426.40000000000003" style="stroke-width: 33.6; fill: none; stroke: rgb(191, 105, 105); stroke-opacity: 0.4;"><title>2</title></path><path class="link" d="M426,491.59999999999997C528.75,491.59999999999997 528.75,191.39999999999998 631.5,191.39999999999998" style="stroke-width: 16.8; fill: none; stroke: rgb(105, 150, 191); stroke-opacity: 0.4;"><title>1</title></path><path class="link" d="M215.5,418C318.25,418 318.25,357.5999999999999 421,357.5999999999999" style="stroke-width: 16.8; fill: none; stroke: rgb(191, 159, 105); stroke-opacity: 0.4;"><title>1</title></path><path class="link" d="M426,193.2C528.75,193.2 528.75,423 631.5,423" style="stroke-width: 16.8; fill: none; stroke: rgb(168, 191, 105); stroke-opacity: 0.4;"><title>1</title></path><path class="link" d="M426,210C528.75,210 528.75,449.8 631.5,449.8" style="stroke-width: 16.8; fill: none; stroke: rgb(168, 191, 105); stroke-opacity: 0.4;"><title>1</title></path><path class="link" d="M426,357.5999999999999C528.75,357.5999999999999 528.75,124.19999999999996 631.5,124.19999999999996" style="stroke-width: 16.8; fill: none; stroke: rgb(141, 191, 105); stroke-opacity: 0.4;"><title>1</title></path><path class="link" d="M215.5,434.8C318.25,434.8 318.25,411.19999999999993 421,411.19999999999993" style="stroke-width: 16.8; fill: none; stroke: rgb(191, 159, 105); stroke-opacity: 0.4;"><title>1</title></path><path class="link" d="M426,464.79999999999995C528.75,464.79999999999995 528.75,174.59999999999997 631.5,174.59999999999997" style="stroke-width: 16.8; fill: none; stroke: rgb(105, 191, 123); stroke-opacity: 0.4;"><title>1</title></path><path class="link" d="M215.5,391.20000000000005C318.25,391.20000000000005 318.25,491.59999999999997 421,491.59999999999997" style="stroke-width: 16.8; fill: none; stroke: rgb(191, 132, 105); stroke-opacity: 0.4;"><title>1</title></path><path class="link" d="M426,437.99999999999994C528.75,437.99999999999994 528.75,157.79999999999995 631.5,157.79999999999995" style="stroke-width: 16.8; fill: none; stroke: rgb(105, 191, 177); stroke-opacity: 0.4;"><title>1</title></path><path class="link" d="M426,384.3999999999999C528.75,384.3999999999999 528.75,476.6 631.5,476.6" style="stroke-width: 16.8; fill: none; stroke: rgb(105, 177, 191); stroke-opacity: 0.4;"><title>1</title></path><path class="link" d="M215.5,461.6C318.25,461.6 318.25,384.3999999999999 421,384.3999999999999" style="stroke-width: 16.8; fill: none; stroke: rgb(191, 186, 105); stroke-opacity: 0.4;"><title>1</title></path><path class="link" d="M426,411.19999999999993C528.75,411.19999999999993 528.75,140.99999999999997 631.5,140.99999999999997" style="stroke-width: 16.8; fill: none; stroke: rgb(105, 123, 191); stroke-opacity: 0.4;"><title>1</title></path><path class="link" d="M636.5,396.2C739.25,396.2 739.25,444.79999999999995 842,444.79999999999995" style="stroke-width: 16.8; fill: none; stroke: rgb(114, 105, 191); stroke-opacity: 0.4;"><title>1</title></path><path class="link" d="M636.5,379.4C739.25,379.4 739.25,230.00000000000003 842,230.00000000000003" style="stroke-width: 16.8; fill: none; stroke: rgb(114, 105, 191); stroke-opacity: 0.4;"><title>1</title></path><path class="link" d="M215.5,357.6C318.25,357.6 318.25,437.99999999999994 421,437.99999999999994" style="stroke-width: 16.8; fill: none; stroke: rgb(191, 132, 105); stroke-opacity: 0.4;"><title>1</title></path><path class="link" d="M215.5,374.40000000000003C318.25,374.40000000000003 318.25,464.79999999999995 421,464.79999999999995" style="stroke-width: 16.8; fill: none; stroke: rgb(191, 132, 105); stroke-opacity: 0.4;"><title>1</title></path><path class="link" d="M636.5,352.5999999999999C739.25,352.5999999999999 739.25,471.59999999999997 842,471.59999999999997" style="stroke-width: 16.8; fill: none; stroke: rgb(141, 105, 191); stroke-opacity: 0.4;"><title>1</title></path><path class="link" d="M636.5,218.19999999999996C739.25,218.19999999999996 739.25,213.20000000000002 842,213.20000000000002" style="stroke-width: 16.8; fill: none; stroke: rgb(141, 105, 191); stroke-opacity: 0.4;"><title>1</title></path><path class="link" d="M5,451.6C107.75,451.6 107.75,461.6 210.5,461.6" style="stroke-width: 16.8; fill: none; stroke: rgb(191, 105, 105); stroke-opacity: 0.4;"><title>1</title></path><path class="link" d="M636.5,476.6C739.25,476.6 739.25,280.40000000000003 842,280.40000000000003" style="stroke-width: 16.8; fill: none; stroke: rgb(191, 105, 186); stroke-opacity: 0.4;"><title>1</title></path><path class="link" d="M636.5,423C739.25,423 739.25,246.80000000000004 842,246.80000000000004" style="stroke-width: 16.8; fill: none; stroke: rgb(191, 105, 159); stroke-opacity: 0.4;"><title>1</title></path><path class="link" d="M636.5,449.8C739.25,449.8 739.25,263.6 842,263.6" style="stroke-width: 16.8; fill: none; stroke: rgb(191, 105, 132); stroke-opacity: 0.4;"><title>1</title></path></g><g><g class="node" transform="translate(0,40)"><rect height="420" width="5"><title>Marwanid
25</title></rect><text x="11" y="210" dy=".35em" text-anchor="start" style="font-size: 11px; font-family: Arial, Helvetica; pointer-events: none;">Marwanid</text></g><g class="node" transform="translate(421,349.19999999999993)"><rect height="16.8" width="5"><title>Abs (b. Baghid)
1</title></rect><text x="11" y="8.4" dy=".35em" text-anchor="start" style="font-size: 11px; font-family: Arial, Helvetica; pointer-events: none;">Abs (b. Baghid)</text></g><g class="node" transform="translate(421,228.39999999999998)"><rect height="50.400000000000006" width="5"><title>Adi b. Ka'b
3</title></rect><text x="11" y="25.200000000000003" dy=".35em" text-anchor="start" style="font-size: 11px; font-family: Arial, Helvetica; pointer-events: none;">Adi b. Ka'b</text></g><g class="node" transform="translate(421,375.99999999999994)"><rect height="16.8" width="5"><title>Amir b. Sa'sa'a
1</title></rect><text x="11" y="8.4" dy=".35em" text-anchor="start" style="font-size: 11px; font-family: Arial, Helvetica; pointer-events: none;">Amir b. Sa'sa'a</text></g><g class="node" transform="translate(421,402.79999999999995)"><rect height="16.8" width="5"><title>Fazara  
1</title></rect><text x="11" y="8.4" dy=".35em" text-anchor="start" style="font-size: 11px; font-family: Arial, Helvetica; pointer-events: none;">Fazara  </text></g><g class="node" transform="translate(421,288.79999999999995)"><rect height="50.400000000000006" width="5"><title>Makhzum
3</title></rect><text x="11" y="25.200000000000003" dy=".35em" text-anchor="start" style="font-size: 11px; font-family: Arial, Helvetica; pointer-events: none;">Makhzum</text></g><g class="node" transform="translate(421,-2.842170943040401e-14)"><rect height="218.4" width="5"><title>Qusayy
13</title></rect><text x="11" y="109.2" dy=".35em" text-anchor="start" style="font-size: 11px; font-family: Arial, Helvetica; pointer-events: none;">Qusayy</text></g><g class="node" transform="translate(421,429.59999999999997)"><rect height="16.8" width="5"><title>Sahm
1</title></rect><text x="11" y="8.4" dy=".35em" text-anchor="start" style="font-size: 11px; font-family: Arial, Helvetica; pointer-events: none;">Sahm</text></g><g class="node" transform="translate(421,456.4)"><rect height="16.8" width="5"><title>Taym b. Murra
1</title></rect><text x="11" y="8.4" dy=".35em" text-anchor="start" style="font-size: 11px; font-family: Arial, Helvetica; pointer-events: none;">Taym b. Murra</text></g><g class="node" transform="translate(421,483.2)"><rect height="16.8" width="5"><title>Zuhra
1</title></rect><text x="11" y="8.4" dy=".35em" text-anchor="start" style="font-size: 11px; font-family: Arial, Helvetica; pointer-events: none;">Zuhra</text></g><g class="node" transform="translate(631.5,14.999999999999943)"><rect height="184.8" width="5"><title>
11</title></rect><text x="-6" y="92.4" dy=".35em" text-anchor="end" style="font-size: 11px; font-family: Arial, Helvetica; pointer-events: none;"></text></g><g class="node" transform="translate(631.5,414.6)"><rect height="16.8" width="5"><title>Abd Shams
1</title></rect><text x="-6" y="8.4" dy=".35em" text-anchor="end" style="font-size: 11px; font-family: Arial, Helvetica; pointer-events: none;">Abd Shams</text></g><g class="node" transform="translate(631.5,441.40000000000003)"><rect height="16.8" width="5"><title>Asad
1</title></rect><text x="-6" y="8.4" dy=".35em" text-anchor="end" style="font-size: 11px; font-family: Arial, Helvetica; pointer-events: none;">Asad</text></g><g class="node" transform="translate(631.5,371)"><rect height="33.6" width="5"><title>Hashim
2</title></rect><text x="-6" y="16.8" dy=".35em" text-anchor="end" style="font-size: 11px; font-family: Arial, Helvetica; pointer-events: none;">Hashim</text></g><g class="node" transform="translate(631.5,468.20000000000005)"><rect height="16.8" width="5"><title>Malik of Ja'far of Kilab
1</title></rect><text x="-6" y="8.4" dy=".35em" text-anchor="end" style="font-size: 11px; font-family: Arial, Helvetica; pointer-events: none;">Malik of Ja'far of Kilab</text></g><g class="node" transform="translate(631.5,209.79999999999995)"><rect height="151.20000000000002" width="5"><title>Umayyad
9</title></rect><text x="-6" y="75.60000000000001" dy=".35em" text-anchor="end" style="font-size: 11px; font-family: Arial, Helvetica; pointer-events: none;">Umayyad</text></g><g class="node" transform="translate(842,20)"><rect height="268.8" width="5" style="fill: rgb(102, 102, 102);"><title>
16</title></rect><text x="-6" y="134.4" dy=".35em" text-anchor="end" style="font-size: 11px; font-family: Arial, Helvetica; pointer-events: none;"></text></g><g class="node" transform="translate(842,436.4)"><rect height="16.8" width="5" style="fill: rgb(102, 102, 102);"><title>Alid
1</title></rect><text x="-6" y="8.4" dy=".35em" text-anchor="end" style="font-size: 11px; font-family: Arial, Helvetica; pointer-events: none;">Alid</text></g><g class="node" transform="translate(842,463.2)"><rect height="16.8" width="5" style="fill: rgb(102, 102, 102);"><title>Marwanid
1</title></rect><text x="-6" y="8.4" dy=".35em" text-anchor="end" style="font-size: 11px; font-family: Arial, Helvetica; pointer-events: none;">Marwanid</text></g><g class="node" transform="translate(842,298.8)"><rect height="67.2" width="5" style="fill: rgb(102, 102, 102);"><title>Sufyanid
4</title></rect><text x="-6" y="33.6" dy=".35em" text-anchor="end" style="font-size: 11px; font-family: Arial, Helvetica; pointer-events: none;">Sufyanid</text></g><g class="node" transform="translate(842,376)"><rect height="50.400000000000006" width="5" style="fill: rgb(102, 102, 102);"><title>Uthmanid
3</title></rect><text x="-6" y="25.200000000000003" dy=".35em" text-anchor="end" style="font-size: 11px; font-family: Arial, Helvetica; pointer-events: none;">Uthmanid</text></g><g class="node" transform="translate(210.5,409.6)"><rect height="33.6" width="5"><title>Ghatafan
2</title></rect><text x="11" y="16.8" dy=".35em" text-anchor="start" style="font-size: 11px; font-family: Arial, Helvetica; pointer-events: none;">Ghatafan</text></g><g class="node" transform="translate(210.5,453.20000000000005)"><rect height="16.8" width="5"><title>Qays Aylan
1</title></rect><text x="11" y="8.4" dy=".35em" text-anchor="start" style="font-size: 11px; font-family: Arial, Helvetica; pointer-events: none;">Qays Aylan</text></g><g class="node" transform="translate(210.5,30)"><rect height="369.6" width="5"><title>Quraysh
22</title></rect><text x="11" y="184.8" dy=".35em" text-anchor="start" style="font-size: 11px; font-family: Arial, Helvetica; pointer-events: none;">Quraysh</text></g></g></g></svg>