<svg width="847" height="520" xmlns="http://www.w3.org/2000/svg" version="1.1"><g transform="translate(0,10)"><g><path class="link" d="M5,250C107.75,250 107.75,250 210.5,250" style="stroke-width: 490; fill: none; stroke: rgb(191, 105, 105); stroke-opacity: 0.4;"><title>2</title></path><path class="link" d="M215.5,250C318.25,250 318.25,250 421,250" style="stroke-width: 490; fill: none; stroke: rgb(148, 191, 105); stroke-opacity: 0.4;"><title>2</title></path><path class="link" d="M426,250C528.75,250 528.75,250 631.5,250" style="stroke-width: 490; fill: none; stroke: rgb(105, 191, 191); stroke-opacity: 0.4;"><title>2</title></path><path class="link" d="M636.5,372.5C739.25,372.5 739.25,377.5 842,377.5" style="stroke-width: 245; fill: none; stroke: rgb(148, 105, 191); stroke-opacity: 0.4;"><title>1</title></path><path class="link" d="M636.5,127.5C739.25,127.5 739.25,122.5 842,122.5" style="stroke-width: 245; fill: none; stroke: rgb(148, 105, 191); stroke-opacity: 0.4;"><title>1</title></path></g><g><g class="node" transform="translate(421,5)"><rect height="490" width="5"><title>Qusayy
2</title></rect><text x="11" y="245" dy=".35em" text-anchor="start" style="font-size: 11px; font-family: Arial, Helvetica; pointer-events: none;">Qusayy</text></g><g class="node" transform="translate(631.5,5)"><rect height="490" width="5"><title>Umayyad
2</title></rect><text x="-6" y="245" dy=".35em" text-anchor="end" style="font-size: 11px; font-family: Arial, Helvetica; pointer-events: none;">Umayyad</text></g><g class="node" transform="translate(842,0)"><rect height="245" width="5" style="fill: rgb(102, 102, 102);"><title>Marwanid
1</title></rect><text x="-6" y="122.5" dy=".35em" text-anchor="end" style="font-size: 11px; font-family: Arial, Helvetica; pointer-events: none;">Marwanid</text></g><g class="node" transform="translate(842,255)"><rect height="245" width="5" style="fill: rgb(102, 102, 102);"><title>Uthmanid
1</title></rect><text x="-6" y="122.5" dy=".35em" text-anchor="end" style="font-size: 11px; font-family: Arial, Helvetica; pointer-events: none;">Uthmanid</text></g><g class="node" transform="translate(210.5,5)"><rect height="490" width="5"><title>Quraysh
2</title></rect><text x="11" y="245" dy=".35em" text-anchor="start" style="font-size: 11px; font-family: Arial, Helvetica; pointer-events: none;">Quraysh</text></g><g class="node" transform="translate(0,5)"><rect height="490" width="5"><title>Marwanid
2</title></rect><text x="11" y="245" dy=".35em" text-anchor="start" style="font-size: 11px; font-family: Arial, Helvetica; pointer-events: none;">Marwanid</text></g></g></g></svg>