<svg width="847" height="520" xmlns="http://www.w3.org/2000/svg" version="1.1"><g transform="translate(0,10)"><g><path class="link" d="M5,132.5C142.83333333333334,132.5 142.83333333333334,122.5 280.6666666666667,122.5" style="stroke-width: 235; fill: none; stroke: rgb(191, 105, 105); stroke-opacity: 0.4;"><title>3</title></path><path class="link" d="M285.6666666666667,122.5C423.5,122.5 423.5,117.5 561.3333333333334,117.5" style="stroke-width: 235; fill: none; stroke: rgb(191, 169, 105); stroke-opacity: 0.4;"><title>3</title></path><path class="link" d="M5,328.3333333333333C142.83333333333334,328.3333333333333 142.83333333333334,328.3333333333333 280.6666666666667,328.3333333333333" style="stroke-width: 156.667; fill: none; stroke: rgb(191, 105, 105); stroke-opacity: 0.4;"><title>2</title></path><path class="link" d="M566.3333333333334,78.33333333333333C704.1666666666667,78.33333333333333 704.1666666666667,328.3333333333333 842,328.3333333333333" style="stroke-width: 156.667; fill: none; stroke: rgb(105, 191, 191); stroke-opacity: 0.4;"><title>2</title></path><path class="link" d="M285.6666666666667,367.5C423.5,367.5 423.5,460.8333333333333 561.3333333333334,460.8333333333333" style="stroke-width: 78.3333; fill: none; stroke: rgb(148, 191, 105); stroke-opacity: 0.4;"><title>1</title></path><path class="link" d="M285.6666666666667,289.1666666666667C423.5,289.1666666666667 423.5,372.5 561.3333333333334,372.5" style="stroke-width: 78.3333; fill: none; stroke: rgb(148, 191, 105); stroke-opacity: 0.4;"><title>1</title></path><path class="link" d="M5,445.8333333333333C142.83333333333334,445.8333333333333 142.83333333333334,455.8333333333333 280.6666666666667,455.8333333333333" style="stroke-width: 78.3333; fill: none; stroke: rgb(191, 105, 105); stroke-opacity: 0.4;"><title>1</title></path><path class="link" d="M566.3333333333334,195.83333333333331C704.1666666666667,195.83333333333331 704.1666666666667,455.8333333333333 842,455.8333333333333" style="stroke-width: 78.3333; fill: none; stroke: rgb(105, 191, 191); stroke-opacity: 0.4;"><title>1</title></path><path class="link" d="M566.3333333333334,372.5C704.1666666666667,372.5 704.1666666666667,122.5 842,122.5" style="stroke-width: 78.3333; fill: none; stroke: rgb(191, 105, 169); stroke-opacity: 0.4;"><title>1</title></path><path class="link" d="M566.3333333333334,460.8333333333333C704.1666666666667,460.8333333333333 704.1666666666667,200.83333333333331 842,200.83333333333331" style="stroke-width: 78.3333; fill: none; stroke: rgb(105, 126, 191); stroke-opacity: 0.4;"><title>1</title></path><path class="link" d="M566.3333333333334,284.1666666666667C704.1666666666667,284.1666666666667 704.1666666666667,44.166666666666664 842,44.166666666666664" style="stroke-width: 78.3333; fill: none; stroke: rgb(148, 105, 191); stroke-opacity: 0.4;"><title>1</title></path><path class="link" d="M285.6666666666667,455.8333333333333C423.5,455.8333333333333 423.5,284.1666666666667 561.3333333333334,284.1666666666667" style="stroke-width: 78.3333; fill: none; stroke: rgb(105, 191, 126); stroke-opacity: 0.4;"><title>1</title></path></g><g><g class="node" transform="translate(0,15)"><rect height="470" width="5"><title>Sufyanid
6</title></rect><text x="11" y="235" dy=".35em" text-anchor="start" style="font-size: 11px; font-family: Arial, Helvetica; pointer-events: none;">Sufyanid</text></g><g class="node" transform="translate(561.3333333333334,245)"><rect height="78.33333333333333" width="5"><title>
1</title></rect><text x="-6" y="39.166666666666664" dy=".35em" text-anchor="end" style="font-size: 11px; font-family: Arial, Helvetica; pointer-events: none;"></text></g><g class="node" transform="translate(561.3333333333334,333.3333333333333)"><rect height="78.33333333333333" width="5"><title>Al-Harith b. 'Abd Manaa
1</title></rect><text x="-6" y="39.166666666666664" dy=".35em" text-anchor="end" style="font-size: 11px; font-family: Arial, Helvetica; pointer-events: none;">Al-Harith b. 'Abd Manaa</text></g><g class="node" transform="translate(561.3333333333334,421.66666666666663)"><rect height="78.33333333333333" width="5"><title>Firas b. Ghanam
1</title></rect><text x="-6" y="39.166666666666664" dy=".35em" text-anchor="end" style="font-size: 11px; font-family: Arial, Helvetica; pointer-events: none;">Firas b. Ghanam</text></g><g class="node" transform="translate(561.3333333333334,0)"><rect height="235" width="5"><title>Qusayy
3</title></rect><text x="-6" y="117.5" dy=".35em" text-anchor="end" style="font-size: 11px; font-family: Arial, Helvetica; pointer-events: none;">Qusayy</text></g><g class="node" transform="translate(842,5)"><rect height="235" width="5" style="fill: rgb(102, 102, 102);"><title>
3</title></rect><text x="-6" y="117.5" dy=".35em" text-anchor="end" style="font-size: 11px; font-family: Arial, Helvetica; pointer-events: none;"></text></g><g class="node" transform="translate(842,416.66666666666663)"><rect height="78.33333333333333" width="5" style="fill: rgb(102, 102, 102);"><title>Abd Shams
1</title></rect><text x="-6" y="39.166666666666664" dy=".35em" text-anchor="end" style="font-size: 11px; font-family: Arial, Helvetica; pointer-events: none;">Abd Shams</text></g><g class="node" transform="translate(842,250)"><rect height="156.66666666666666" width="5" style="fill: rgb(102, 102, 102);"><title>Umayyad
2</title></rect><text x="-6" y="78.33333333333333" dy=".35em" text-anchor="end" style="font-size: 11px; font-family: Arial, Helvetica; pointer-events: none;">Umayyad</text></g><g class="node" transform="translate(280.6666666666667,416.66666666666663)"><rect height="78.33333333333333" width="5"><title>Azd
1</title></rect><text x="11" y="39.166666666666664" dy=".35em" text-anchor="start" style="font-size: 11px; font-family: Arial, Helvetica; pointer-events: none;">Azd</text></g><g class="node" transform="translate(280.6666666666667,250)"><rect height="156.66666666666666" width="5"><title>Kinana
2</title></rect><text x="11" y="78.33333333333333" dy=".35em" text-anchor="start" style="font-size: 11px; font-family: Arial, Helvetica; pointer-events: none;">Kinana</text></g><g class="node" transform="translate(280.6666666666667,5)"><rect height="235" width="5"><title>Quraysh
3</title></rect><text x="11" y="117.5" dy=".35em" text-anchor="start" style="font-size: 11px; font-family: Arial, Helvetica; pointer-events: none;">Quraysh</text></g></g></g></svg>