<svg width="847" height="520" xmlns="http://www.w3.org/2000/svg" version="1.1"><g transform="translate(0,10)"><g><path class="link" d="M5,161.53846153846155C142.83333333333334,161.53846153846155 142.83333333333334,141.53846153846152 280.6666666666667,141.53846153846152" style="stroke-width: 283.077; fill: none; stroke: rgb(191, 105, 105); stroke-opacity: 0.4;"><title>8</title></path><path class="link" d="M285.6666666666667,106.15384615384613C423.5,106.15384615384613 423.5,106.15384615384613 561.3333333333334,106.15384615384613" style="stroke-width: 212.308; fill: none; stroke: rgb(183, 191, 105); stroke-opacity: 0.4;"><title>6</title></path><path class="link" d="M566.3333333333334,293.0769230769231C704.1666666666667,293.0769230769231 704.1666666666667,75.76923076923077 842,75.76923076923077" style="stroke-width: 141.538; fill: none; stroke: rgb(136, 105, 191); stroke-opacity: 0.4;"><title>4</title></path><path class="link" d="M566.3333333333334,53.07692307692305C704.1666666666667,53.07692307692305 704.1666666666667,315.76923076923083 842,315.76923076923083" style="stroke-width: 106.154; fill: none; stroke: rgb(105, 121, 191); stroke-opacity: 0.4;"><title>3</title></path><path class="link" d="M5,338.46153846153845C142.83333333333334,338.46153846153845 142.83333333333334,328.46153846153845 280.6666666666667,328.46153846153845" style="stroke-width: 70.7692; fill: none; stroke: rgb(191, 105, 105); stroke-opacity: 0.4;"><title>2</title></path><path class="link" d="M285.6666666666667,328.46153846153845C423.5,328.46153846153845 423.5,257.6923076923077 561.3333333333334,257.6923076923077" style="stroke-width: 70.7692; fill: none; stroke: rgb(105, 191, 121); stroke-opacity: 0.4;"><title>2</title></path><path class="link" d="M566.3333333333334,141.53846153846152C704.1666666666667,141.53846153846152 704.1666666666667,414.2307692307693 842,414.2307692307693" style="stroke-width: 70.7692; fill: none; stroke: rgb(105, 121, 191); stroke-opacity: 0.4;"><title>2</title></path><path class="link" d="M285.6666666666667,391.53846153846155C423.5,391.53846153846155 423.5,310.7692307692308 561.3333333333334,310.7692307692308" style="stroke-width: 35.3846; fill: none; stroke: rgb(136, 191, 105); stroke-opacity: 0.4;"><title>1</title></path><path class="link" d="M285.6666666666667,265.38461538461536C423.5,265.38461538461536 423.5,482.3076923076922 561.3333333333334,482.3076923076922" style="stroke-width: 35.3846; fill: none; stroke: rgb(183, 191, 105); stroke-opacity: 0.4;"><title>1</title></path><path class="link" d="M5,426.92307692307696C142.83333333333334,426.92307692307696 142.83333333333334,436.92307692307696 280.6666666666667,436.92307692307696" style="stroke-width: 35.3846; fill: none; stroke: rgb(191, 105, 105); stroke-opacity: 0.4;"><title>1</title></path><path class="link" d="M5,462.3076923076923C142.83333333333334,462.3076923076923 142.83333333333334,482.3076923076923 280.6666666666667,482.3076923076923" style="stroke-width: 35.3846; fill: none; stroke: rgb(191, 105, 105); stroke-opacity: 0.4;"><title>1</title></path><path class="link" d="M285.6666666666667,482.3076923076923C423.5,482.3076923076923 423.5,346.15384615384613 561.3333333333334,346.15384615384613" style="stroke-width: 35.3846; fill: none; stroke: rgb(105, 191, 167); stroke-opacity: 0.4;"><title>1</title></path><path class="link" d="M566.3333333333334,436.92307692307685C704.1666666666667,436.92307692307685 704.1666666666667,199.61538461538464 842,199.61538461538464" style="stroke-width: 35.3846; fill: none; stroke: rgb(105, 167, 191); stroke-opacity: 0.4;"><title>1</title></path><path class="link" d="M285.6666666666667,436.92307692307696C423.5,436.92307692307696 423.5,436.92307692307685 561.3333333333334,436.92307692307685" style="stroke-width: 35.3846; fill: none; stroke: rgb(191, 152, 105); stroke-opacity: 0.4;"><title>1</title></path><path class="link" d="M5,391.53846153846155C142.83333333333334,391.53846153846155 142.83333333333334,391.53846153846155 280.6666666666667,391.53846153846155" style="stroke-width: 35.3846; fill: none; stroke: rgb(191, 105, 105); stroke-opacity: 0.4;"><title>1</title></path><path class="link" d="M566.3333333333334,194.61538461538458C704.1666666666667,194.61538461538458 704.1666666666667,477.3076923076924 842,477.3076923076924" style="stroke-width: 35.3846; fill: none; stroke: rgb(105, 121, 191); stroke-opacity: 0.4;"><title>1</title></path><path class="link" d="M285.6666666666667,230C423.5,230 423.5,391.5384615384615 561.3333333333334,391.5384615384615" style="stroke-width: 35.3846; fill: none; stroke: rgb(183, 191, 105); stroke-opacity: 0.4;"><title>1</title></path><path class="link" d="M566.3333333333334,391.5384615384615C704.1666666666667,391.5384615384615 704.1666666666667,164.23076923076923 842,164.23076923076923" style="stroke-width: 35.3846; fill: none; stroke: rgb(183, 105, 191); stroke-opacity: 0.4;"><title>1</title></path><path class="link" d="M566.3333333333334,482.3076923076922C704.1666666666667,482.3076923076922 704.1666666666667,235 842,235" style="stroke-width: 35.3846; fill: none; stroke: rgb(191, 105, 152); stroke-opacity: 0.4;"><title>1</title></path></g><g><g class="node" transform="translate(0,20)"><rect height="460" width="5"><title>Sufyanid
13</title></rect><text x="11" y="230" dy=".35em" text-anchor="start" style="font-size: 11px; font-family: Arial, Helvetica; pointer-events: none;">Sufyanid</text></g><g class="node" transform="translate(561.3333333333334,222.3076923076923)"><rect height="141.53846153846155" width="5"><title>
4</title></rect><text x="-6" y="70.76923076923077" dy=".35em" text-anchor="end" style="font-size: 11px; font-family: Arial, Helvetica; pointer-events: none;"></text></g><g class="node" transform="translate(561.3333333333334,373.8461538461538)"><rect height="35.38461538461539" width="5"><title>Amir b. Lu'ayy
1</title></rect><text x="-6" y="17.692307692307693" dy=".35em" text-anchor="end" style="font-size: 11px; font-family: Arial, Helvetica; pointer-events: none;">Amir b. Lu'ayy</text></g><g class="node" transform="translate(561.3333333333334,419.23076923076917)"><rect height="35.38461538461539" width="5"><title>Firas b. Ghanam
1</title></rect><text x="-6" y="17.692307692307693" dy=".35em" text-anchor="end" style="font-size: 11px; font-family: Arial, Helvetica; pointer-events: none;">Firas b. Ghanam</text></g><g class="node" transform="translate(561.3333333333334,464.6153846153845)"><rect height="35.38461538461539" width="5"><title>Makhzum
1</title></rect><text x="-6" y="17.692307692307693" dy=".35em" text-anchor="end" style="font-size: 11px; font-family: Arial, Helvetica; pointer-events: none;">Makhzum</text></g><g class="node" transform="translate(561.3333333333334,-2.842170943040401e-14)"><rect height="212.30769230769232" width="5"><title>Qusayy
6</title></rect><text x="-6" y="106.15384615384616" dy=".35em" text-anchor="end" style="font-size: 11px; font-family: Arial, Helvetica; pointer-events: none;">Qusayy</text></g><g class="node" transform="translate(842,5)"><rect height="247.6923076923077" width="5" style="fill: rgb(102, 102, 102);"><title>
7</title></rect><text x="-6" y="123.84615384615385" dy=".35em" text-anchor="end" style="font-size: 11px; font-family: Arial, Helvetica; pointer-events: none;"></text></g><g class="node" transform="translate(842,459.6153846153847)"><rect height="35.38461538461539" width="5" style="fill: rgb(102, 102, 102);"><title>Asad
1</title></rect><text x="-6" y="17.692307692307693" dy=".35em" text-anchor="end" style="font-size: 11px; font-family: Arial, Helvetica; pointer-events: none;">Asad</text></g><g class="node" transform="translate(842,378.8461538461539)"><rect height="70.76923076923077" width="5" style="fill: rgb(102, 102, 102);"><title>Nawfal
2</title></rect><text x="-6" y="35.38461538461539" dy=".35em" text-anchor="end" style="font-size: 11px; font-family: Arial, Helvetica; pointer-events: none;">Nawfal</text></g><g class="node" transform="translate(842,262.69230769230774)"><rect height="106.15384615384616" width="5" style="fill: rgb(102, 102, 102);"><title>Umayyad
3</title></rect><text x="-6" y="53.07692307692308" dy=".35em" text-anchor="end" style="font-size: 11px; font-family: Arial, Helvetica; pointer-events: none;">Umayyad</text></g><g class="node" transform="translate(280.6666666666667,373.84615384615387)"><rect height="35.38461538461539" width="5"><title>Kalb
1</title></rect><text x="11" y="17.692307692307693" dy=".35em" text-anchor="start" style="font-size: 11px; font-family: Arial, Helvetica; pointer-events: none;">Kalb</text></g><g class="node" transform="translate(280.6666666666667,419.2307692307693)"><rect height="35.38461538461539" width="5"><title>Kinana
1</title></rect><text x="11" y="17.692307692307693" dy=".35em" text-anchor="start" style="font-size: 11px; font-family: Arial, Helvetica; pointer-events: none;">Kinana</text></g><g class="node" transform="translate(280.6666666666667,-2.842170943040401e-14)"><rect height="283.0769230769231" width="5"><title>Quraysh
8</title></rect><text x="11" y="141.53846153846155" dy=".35em" text-anchor="start" style="font-size: 11px; font-family: Arial, Helvetica; pointer-events: none;">Quraysh</text></g><g class="node" transform="translate(280.6666666666667,464.61538461538464)"><rect height="35.38461538461539" width="5"><title>Tamim 
1</title></rect><text x="11" y="17.692307692307693" dy=".35em" text-anchor="start" style="font-size: 11px; font-family: Arial, Helvetica; pointer-events: none;">Tamim </text></g><g class="node" transform="translate(280.6666666666667,293.0769230769231)"><rect height="70.76923076923077" width="5"><title>Thaqif
2</title></rect><text x="11" y="35.38461538461539" dy=".35em" text-anchor="start" style="font-size: 11px; font-family: Arial, Helvetica; pointer-events: none;">Thaqif</text></g></g></g></svg>