<svg width="847" height="520" xmlns="http://www.w3.org/2000/svg" version="1.1"><g transform="translate(0,10)"><g><path class="link" d="M5,250C142.83333333333334,250 142.83333333333334,250 280.6666666666667,250" style="stroke-width: 480; fill: none; stroke: rgb(191, 105, 105); stroke-opacity: 0.4;"><title>34</title></path><path class="link" d="M285.6666666666667,235.88235294117646C423.5,235.88235294117646 423.5,225.88235294117646 561.3333333333334,225.88235294117646" style="stroke-width: 451.765; fill: none; stroke: rgb(174, 191, 105); stroke-opacity: 0.4;"><title>32</title></path><path class="link" d="M566.3333333333334,225.88235294117646C704.1666666666667,225.88235294117646 704.1666666666667,230.88235294117646 842,230.88235294117646" style="stroke-width: 451.765; fill: none; stroke: rgb(105, 191, 139); stroke-opacity: 0.4;"><title>32</title></path><path class="link" d="M285.6666666666667,468.8235294117647C423.5,468.8235294117647 423.5,468.8235294117647 561.3333333333334,468.8235294117647" style="stroke-width: 14.1176; fill: none; stroke: rgb(174, 191, 105); stroke-opacity: 0.4;"><title>1</title></path><path class="link" d="M285.6666666666667,482.94117647058823C423.5,482.94117647058823 423.5,492.94117647058823 561.3333333333334,492.94117647058823" style="stroke-width: 14.1176; fill: none; stroke: rgb(174, 191, 105); stroke-opacity: 0.4;"><title>1</title></path><path class="link" d="M566.3333333333334,468.8235294117647C704.1666666666667,468.8235294117647 704.1666666666667,473.8235294117647 842,473.8235294117647" style="stroke-width: 14.1176; fill: none; stroke: rgb(105, 139, 191); stroke-opacity: 0.4;"><title>1</title></path><path class="link" d="M566.3333333333334,492.94117647058823C704.1666666666667,492.94117647058823 704.1666666666667,487.94117647058823 842,487.94117647058823" style="stroke-width: 14.1176; fill: none; stroke: rgb(174, 105, 191); stroke-opacity: 0.4;"><title>1</title></path></g><g><g class="node" transform="translate(561.3333333333334,461.7647058823529)"><rect height="14.117647058823529" width="5"><title>Amir b. Lu'ayy
1</title></rect><text x="-6" y="7.0588235294117645" dy=".35em" text-anchor="end" style="font-size: 11px; font-family: Arial, Helvetica; pointer-events: none;">Amir b. Lu'ayy</text></g><g class="node" transform="translate(561.3333333333334,485.88235294117646)"><rect height="14.117647058823529" width="5"><title>Makhzum
1</title></rect><text x="-6" y="7.0588235294117645" dy=".35em" text-anchor="end" style="font-size: 11px; font-family: Arial, Helvetica; pointer-events: none;">Makhzum</text></g><g class="node" transform="translate(561.3333333333334,0)"><rect height="451.7647058823529" width="5"><title>Qusayy
32</title></rect><text x="-6" y="225.88235294117646" dy=".35em" text-anchor="end" style="font-size: 11px; font-family: Arial, Helvetica; pointer-events: none;">Qusayy</text></g><g class="node" transform="translate(842,466.7647058823529)"><rect height="28.235294117647058" width="5" style="fill: rgb(102, 102, 102);"><title>
2</title></rect><text x="-6" y="14.117647058823529" dy=".35em" text-anchor="end" style="font-size: 11px; font-family: Arial, Helvetica; pointer-events: none;"></text></g><g class="node" transform="translate(842,5)"><rect height="451.7647058823529" width="5" style="fill: rgb(102, 102, 102);"><title>Umayyad
32</title></rect><text x="-6" y="225.88235294117646" dy=".35em" text-anchor="end" style="font-size: 11px; font-family: Arial, Helvetica; pointer-events: none;">Umayyad</text></g><g class="node" transform="translate(280.6666666666667,10)"><rect height="480" width="5"><title>Quraysh
34</title></rect><text x="11" y="240" dy=".35em" text-anchor="start" style="font-size: 11px; font-family: Arial, Helvetica; pointer-events: none;">Quraysh</text></g><g class="node" transform="translate(0,10)"><rect height="480" width="5"><title>Umayyad
34</title></rect><text x="11" y="240" dy=".35em" text-anchor="start" style="font-size: 11px; font-family: Arial, Helvetica; pointer-events: none;">Umayyad</text></g></g></g></svg>