<svg preserveAspectRatio="xMinYMin meet" viewBox="0 0 847 520" width="847" height="520" xmlns="http://www.w3.org/2000/svg" version="1.1"><g transform="translate(0,10)"><g><path class="link" d="M5,204.29411764705884C142.83333333333334,204.29411764705884 142.83333333333334,139.2941176470588 280.6666666666667,139.2941176470588" style="stroke-width: 278.588; fill: none; stroke: rgb(191, 105, 105); stroke-opacity: 0.4;"><title>64</title></path><path class="link" d="M285.6666666666667,100.11764705882352C423.5,100.11764705882352 423.5,100.11764705882352 561.3333333333334,100.11764705882352" style="stroke-width: 200.235; fill: none; stroke: rgb(191, 123, 105); stroke-opacity: 0.4;"><title>46</title></path><path class="link" d="M566.3333333333334,78.35294117647058C704.1666666666667,78.35294117647058 704.1666666666667,265.70588235294116 842,265.70588235294116" style="stroke-width: 139.294; fill: none; stroke: rgb(105, 182, 191); stroke-opacity: 0.4;"><title>32</title></path><path class="link" d="M566.3333333333334,236.35294117647058C704.1666666666667,236.35294117647058 704.1666666666667,59.8235294117647 842,59.8235294117647" style="stroke-width: 52.2353; fill: none; stroke: rgb(105, 129, 191); stroke-opacity: 0.4;"><title>12</title></path><path class="link" d="M285.6666666666667,217.6470588235294C423.5,217.6470588235294 423.5,289.88235294117646 561.3333333333334,289.88235294117646" style="stroke-width: 34.8235; fill: none; stroke: rgb(191, 123, 105); stroke-opacity: 0.4;"><title>8</title></path><path class="link" d="M566.3333333333334,289.88235294117646C704.1666666666667,289.88235294117646 704.1666666666667,103.35294117647058 842,103.35294117647058" style="stroke-width: 34.8235; fill: none; stroke: rgb(105, 111, 191); stroke-opacity: 0.4;"><title>8</title></path><path class="link" d="M285.6666666666667,248.1176470588235C423.5,248.1176470588235 423.5,330.35294117647055 561.3333333333334,330.35294117647055" style="stroke-width: 26.1176; fill: none; stroke: rgb(191, 123, 105); stroke-opacity: 0.4;"><title>6</title></path><path class="link" d="M566.3333333333334,330.35294117647055C704.1666666666667,330.35294117647055 704.1666666666667,133.8235294117647 842,133.8235294117647" style="stroke-width: 26.1176; fill: none; stroke: rgb(105, 164, 191); stroke-opacity: 0.4;"><title>6</title></path><path class="link" d="M566.3333333333334,158.88235294117646C704.1666666666667,158.88235294117646 704.1666666666667,356.235294117647 842,356.235294117647" style="stroke-width: 21.7647; fill: none; stroke: rgb(105, 182, 191); stroke-opacity: 0.4;"><title>5</title></path><path class="link" d="M5,352.29411764705884C142.83333333333334,352.29411764705884 142.83333333333334,297.2941176470588 280.6666666666667,297.2941176470588" style="stroke-width: 17.4118; fill: none; stroke: rgb(191, 105, 105); stroke-opacity: 0.4;"><title>4</title></path><path class="link" d="M566.3333333333334,178.47058823529412C704.1666666666667,178.47058823529412 704.1666666666667,385.82352941176464 842,385.82352941176464" style="stroke-width: 17.4118; fill: none; stroke: rgb(105, 182, 191); stroke-opacity: 0.4;"><title>4</title></path><path class="link" d="M285.6666666666667,345.5882352941176C423.5,345.5882352941176 423.5,216.76470588235293 561.3333333333334,216.76470588235293" style="stroke-width: 13.0588; fill: none; stroke: rgb(191, 176, 105); stroke-opacity: 0.4;"><title>3</title></path><path class="link" d="M5,367.52941176470586C142.83333333333334,367.52941176470586 142.83333333333334,322.52941176470586 280.6666666666667,322.52941176470586" style="stroke-width: 13.0588; fill: none; stroke: rgb(191, 105, 105); stroke-opacity: 0.4;"><title>3</title></path><path class="link" d="M285.6666666666667,322.52941176470586C423.5,322.52941176470586 423.5,359.9411764705882 561.3333333333334,359.9411764705882" style="stroke-width: 13.0588; fill: none; stroke: rgb(135, 191, 105); stroke-opacity: 0.4;"><title>3</title></path><path class="link" d="M5,380.5882352941177C142.83333333333334,380.5882352941177 142.83333333333334,345.5882352941176 280.6666666666667,345.5882352941176" style="stroke-width: 13.0588; fill: none; stroke: rgb(191, 105, 105); stroke-opacity: 0.4;"><title>3</title></path><path class="link" d="M566.3333333333334,4.352941176470588C704.1666666666667,4.352941176470588 704.1666666666667,29.352941176470587 842,29.352941176470587" style="stroke-width: 8.70588; fill: none; stroke: rgb(105, 182, 191); stroke-opacity: 0.4;"><title>2</title></path><path class="link" d="M566.3333333333334,191.52941176470586C704.1666666666667,191.52941176470586 704.1666666666667,408.88235294117646 842,408.88235294117646" style="stroke-width: 8.70588; fill: none; stroke: rgb(105, 182, 191); stroke-opacity: 0.4;"><title>2</title></path><path class="link" d="M285.6666666666667,366.47058823529414C423.5,366.47058823529414 423.5,227.6470588235294 561.3333333333334,227.6470588235294" style="stroke-width: 8.70588; fill: none; stroke: rgb(188, 191, 105); stroke-opacity: 0.4;"><title>2</title></path><path class="link" d="M5,391.47058823529414C142.83333333333334,391.47058823529414 142.83333333333334,366.47058823529414 280.6666666666667,366.47058823529414" style="stroke-width: 8.70588; fill: none; stroke: rgb(191, 105, 105); stroke-opacity: 0.4;"><title>2</title></path><path class="link" d="M566.3333333333334,357.7647058823529C704.1666666666667,357.7647058823529 704.1666666666667,427.5882352941176 842,427.5882352941176" style="stroke-width: 8.70588; fill: none; stroke: rgb(170, 105, 191); stroke-opacity: 0.4;"><title>2</title></path><path class="link" d="M285.6666666666667,263.35294117647055C423.5,263.35294117647055 423.5,454.764705882353 561.3333333333334,454.764705882353" style="stroke-width: 4.35294; fill: none; stroke: rgb(191, 123, 105); stroke-opacity: 0.4;"><title>1</title></path><path class="link" d="M285.6666666666667,303.8235294117647C423.5,303.8235294117647 423.5,440.4117647058824 561.3333333333334,440.4117647058824" style="stroke-width: 4.35294; fill: none; stroke: rgb(191, 141, 105); stroke-opacity: 0.4;"><title>1</title></path><path class="link" d="M285.6666666666667,295.11764705882354C423.5,295.11764705882354 423.5,411.70588235294116 561.3333333333334,411.70588235294116" style="stroke-width: 4.35294; fill: none; stroke: rgb(191, 141, 105); stroke-opacity: 0.4;"><title>1</title></path><path class="link" d="M285.6666666666667,290.7647058823529C423.5,290.7647058823529 423.5,397.35294117647055 561.3333333333334,397.35294117647055" style="stroke-width: 4.35294; fill: none; stroke: rgb(191, 141, 105); stroke-opacity: 0.4;"><title>1</title></path><path class="link" d="M285.6666666666667,299.4705882352941C423.5,299.4705882352941 423.5,426.05882352941177 561.3333333333334,426.05882352941177" style="stroke-width: 4.35294; fill: none; stroke: rgb(191, 141, 105); stroke-opacity: 0.4;"><title>1</title></path><path class="link" d="M285.6666666666667,454.76470588235304C423.5,454.76470588235304 423.5,255.94117647058823 561.3333333333334,255.94117647058823" style="stroke-width: 4.35294; fill: none; stroke: rgb(191, 158, 105); stroke-opacity: 0.4;"><title>1</title></path><path class="link" d="M566.3333333333334,454.764705882353C704.1666666666667,454.764705882353 704.1666666666667,170.8235294117647 842,170.8235294117647" style="stroke-width: 4.35294; fill: none; stroke: rgb(191, 105, 123); stroke-opacity: 0.4;"><title>1</title></path><path class="link" d="M5,424.1176470588237C142.83333333333334,424.1176470588237 142.83333333333334,469.11764705882365 280.6666666666667,469.11764705882365" style="stroke-width: 4.35294; fill: none; stroke: rgb(191, 105, 105); stroke-opacity: 0.4;"><title>1</title></path><path class="link" d="M285.6666666666667,411.7058823529412C423.5,411.7058823529412 423.5,242.88235294117646 561.3333333333334,242.88235294117646" style="stroke-width: 4.35294; fill: none; stroke: rgb(170, 191, 105); stroke-opacity: 0.4;"><title>1</title></path><path class="link" d="M5,432.8235294117649C142.83333333333334,432.8235294117649 142.83333333333334,497.82352941176487 280.6666666666667,497.82352941176487" style="stroke-width: 4.35294; fill: none; stroke: rgb(191, 105, 105); stroke-opacity: 0.4;"><title>1</title></path><path class="link" d="M5,398.00000000000006C142.83333333333334,398.00000000000006 142.83333333333334,383 280.6666666666667,383" style="stroke-width: 4.35294; fill: none; stroke: rgb(191, 105, 105); stroke-opacity: 0.4;"><title>1</title></path><path class="link" d="M285.6666666666667,469.11764705882365C423.5,469.11764705882365 423.5,260.29411764705884 561.3333333333334,260.29411764705884" style="stroke-width: 4.35294; fill: none; stroke: rgb(117, 191, 105); stroke-opacity: 0.4;"><title>1</title></path><path class="link" d="M285.6666666666667,497.82352941176487C423.5,497.82352941176487 423.5,383 561.3333333333334,383" style="stroke-width: 4.35294; fill: none; stroke: rgb(105, 191, 111); stroke-opacity: 0.4;"><title>1</title></path><path class="link" d="M285.6666666666667,383C423.5,383 423.5,234.1764705882353 561.3333333333334,234.1764705882353" style="stroke-width: 4.35294; fill: none; stroke: rgb(105, 191, 129); stroke-opacity: 0.4;"><title>1</title></path><path class="link" d="M285.6666666666667,397.3529411764706C423.5,397.3529411764706 423.5,238.52941176470588 561.3333333333334,238.52941176470588" style="stroke-width: 4.35294; fill: none; stroke: rgb(105, 191, 146); stroke-opacity: 0.4;"><title>1</title></path><path class="link" d="M285.6666666666667,483.47058823529426C423.5,483.47058823529426 423.5,378.6470588235294 561.3333333333334,378.6470588235294" style="stroke-width: 4.35294; fill: none; stroke: rgb(105, 191, 164); stroke-opacity: 0.4;"><title>1</title></path><path class="link" d="M285.6666666666667,440.41176470588243C423.5,440.41176470588243 423.5,251.58823529411762 561.3333333333334,251.58823529411762" style="stroke-width: 4.35294; fill: none; stroke: rgb(105, 191, 182); stroke-opacity: 0.4;"><title>1</title></path><path class="link" d="M5,402.35294117647067C142.83333333333334,402.35294117647067 142.83333333333334,397.3529411764706 280.6666666666667,397.3529411764706" style="stroke-width: 4.35294; fill: none; stroke: rgb(191, 105, 105); stroke-opacity: 0.4;"><title>1</title></path><path class="link" d="M5,428.4705882352943C142.83333333333334,428.4705882352943 142.83333333333334,483.47058823529426 280.6666666666667,483.47058823529426" style="stroke-width: 4.35294; fill: none; stroke: rgb(191, 105, 105); stroke-opacity: 0.4;"><title>1</title></path><path class="link" d="M5,415.4117647058825C142.83333333333334,415.4117647058825 142.83333333333334,440.41176470588243 280.6666666666667,440.41176470588243" style="stroke-width: 4.35294; fill: none; stroke: rgb(191, 105, 105); stroke-opacity: 0.4;"><title>1</title></path><path class="link" d="M5,419.7647058823531C142.83333333333334,419.7647058823531 142.83333333333334,454.76470588235304 280.6666666666667,454.76470588235304" style="stroke-width: 4.35294; fill: none; stroke: rgb(191, 105, 105); stroke-opacity: 0.4;"><title>1</title></path><path class="link" d="M5,406.7058823529413C142.83333333333334,406.7058823529413 142.83333333333334,411.7058823529412 280.6666666666667,411.7058823529412" style="stroke-width: 4.35294; fill: none; stroke: rgb(191, 105, 105); stroke-opacity: 0.4;"><title>1</title></path><path class="link" d="M566.3333333333334,198.05882352941177C704.1666666666667,198.05882352941177 704.1666666666667,444.1176470588235 842,444.1176470588235" style="stroke-width: 4.35294; fill: none; stroke: rgb(105, 182, 191); stroke-opacity: 0.4;"><title>1</title></path><path class="link" d="M5,411.0588235294119C142.83333333333334,411.0588235294119 142.83333333333334,426.0588235294118 280.6666666666667,426.0588235294118" style="stroke-width: 4.35294; fill: none; stroke: rgb(191, 105, 105); stroke-opacity: 0.4;"><title>1</title></path><path class="link" d="M566.3333333333334,440.4117647058824C704.1666666666667,440.4117647058824 704.1666666666667,166.47058823529412 842,166.47058823529412" style="stroke-width: 4.35294; fill: none; stroke: rgb(105, 146, 191); stroke-opacity: 0.4;"><title>1</title></path><path class="link" d="M285.6666666666667,272.05882352941177C423.5,272.05882352941177 423.5,483.4705882352942 561.3333333333334,483.4705882352942" style="stroke-width: 4.35294; fill: none; stroke: rgb(191, 123, 105); stroke-opacity: 0.4;"><title>1</title></path><path class="link" d="M285.6666666666667,267.70588235294116C423.5,267.70588235294116 423.5,469.1176470588236 561.3333333333334,469.1176470588236" style="stroke-width: 4.35294; fill: none; stroke: rgb(191, 123, 105); stroke-opacity: 0.4;"><title>1</title></path><path class="link" d="M566.3333333333334,411.70588235294116C704.1666666666667,411.70588235294116 704.1666666666667,157.76470588235296 842,157.76470588235296" style="stroke-width: 4.35294; fill: none; stroke: rgb(117, 105, 191); stroke-opacity: 0.4;"><title>1</title></path><path class="link" d="M566.3333333333334,483.4705882352942C704.1666666666667,483.4705882352942 704.1666666666667,179.52941176470586 842,179.52941176470586" style="stroke-width: 4.35294; fill: none; stroke: rgb(135, 105, 191); stroke-opacity: 0.4;"><title>1</title></path><path class="link" d="M566.3333333333334,469.1176470588236C704.1666666666667,469.1176470588236 704.1666666666667,175.17647058823528 842,175.17647058823528" style="stroke-width: 4.35294; fill: none; stroke: rgb(152, 105, 191); stroke-opacity: 0.4;"><title>1</title></path><path class="link" d="M285.6666666666667,276.4117647058824C423.5,276.4117647058824 423.5,497.8235294117648 561.3333333333334,497.8235294117648" style="stroke-width: 4.35294; fill: none; stroke: rgb(191, 123, 105); stroke-opacity: 0.4;"><title>1</title></path><path class="link" d="M566.3333333333334,364.2941176470588C704.1666666666667,364.2941176470588 704.1666666666667,458.4705882352941 842,458.4705882352941" style="stroke-width: 4.35294; fill: none; stroke: rgb(170, 105, 191); stroke-opacity: 0.4;"><title>1</title></path><path class="link" d="M566.3333333333334,497.8235294117648C704.1666666666667,497.8235294117648 704.1666666666667,183.88235294117644 842,183.88235294117644" style="stroke-width: 4.35294; fill: none; stroke: rgb(188, 105, 191); stroke-opacity: 0.4;"><title>1</title></path><path class="link" d="M566.3333333333334,397.35294117647055C704.1666666666667,397.35294117647055 704.1666666666667,153.41176470588238 842,153.41176470588238" style="stroke-width: 4.35294; fill: none; stroke: rgb(191, 105, 176); stroke-opacity: 0.4;"><title>1</title></path><path class="link" d="M566.3333333333334,378.6470588235294C704.1666666666667,378.6470588235294 704.1666666666667,149.05882352941177 842,149.05882352941177" style="stroke-width: 4.35294; fill: none; stroke: rgb(191, 105, 158); stroke-opacity: 0.4;"><title>1</title></path><path class="link" d="M566.3333333333334,383C704.1666666666667,383 704.1666666666667,472.8235294117647 842,472.8235294117647" style="stroke-width: 4.35294; fill: none; stroke: rgb(191, 105, 158); stroke-opacity: 0.4;"><title>1</title></path><path class="link" d="M566.3333333333334,426.05882352941177C704.1666666666667,426.05882352941177 704.1666666666667,162.11764705882354 842,162.11764705882354" style="stroke-width: 4.35294; fill: none; stroke: rgb(191, 105, 141); stroke-opacity: 0.4;"><title>1</title></path><path class="link" d="M285.6666666666667,426.0588235294118C423.5,426.0588235294118 423.5,247.23529411764704 561.3333333333334,247.23529411764704" style="stroke-width: 4.35294; fill: none; stroke: rgb(152, 191, 105); stroke-opacity: 0.4;"><title>1</title></path></g><g><g class="node" transform="translate(0,65.00000000000003)"><rect height="369.99999999999994" width="5"><title>Umayyad
85</title></rect><text x="11" y="184.99999999999997" dy=".35em" text-anchor="start" style="font-size: 11px; font-family: Arial, Helvetica; pointer-events: none;">Umayyad</text></g><g class="node" transform="translate(561.3333333333334,210.23529411764704)"><rect height="52.23529411764706" width="5"><title>
12</title></rect><text x="-6" y="26.11764705882353" dy=".35em" text-anchor="end" style="font-size: 11px; font-family: Arial, Helvetica; pointer-events: none;"></text></g><g class="node" transform="translate(561.3333333333334,409.52941176470586)"><rect height="4.352941176470588" width="5"><title>Abs (b. Baghid)
1</title></rect><text x="-6" y="2.176470588235294" dy=".35em" text-anchor="end" style="font-size: 11px; font-family: Arial, Helvetica; pointer-events: none;">Abs (b. Baghid)</text></g><g class="node" transform="translate(561.3333333333334,317.2941176470588)"><rect height="26.11764705882353" width="5"><title>Adi b. Ka'b
6</title></rect><text x="-6" y="13.058823529411764" dy=".35em" text-anchor="end" style="font-size: 11px; font-family: Arial, Helvetica; pointer-events: none;">Adi b. Ka'b</text></g><g class="node" transform="translate(561.3333333333334,452.5882352941177)"><rect height="4.352941176470588" width="5"><title>Amir b. Lu'ayy
1</title></rect><text x="-6" y="2.176470588235294" dy=".35em" text-anchor="end" style="font-size: 11px; font-family: Arial, Helvetica; pointer-events: none;">Amir b. Lu'ayy</text></g><g class="node" transform="translate(561.3333333333334,353.4117647058823)"><rect height="13.058823529411764" width="5"><title>Amir b. Sa'sa'a
3</title></rect><text x="-6" y="6.529411764705882" dy=".35em" text-anchor="end" style="font-size: 11px; font-family: Arial, Helvetica; pointer-events: none;">Amir b. Sa'sa'a</text></g><g class="node" transform="translate(561.3333333333334,423.88235294117646)"><rect height="4.352941176470588" width="5"><title>Fazara
1</title></rect><text x="-6" y="2.176470588235294" dy=".35em" text-anchor="end" style="font-size: 11px; font-family: Arial, Helvetica; pointer-events: none;">Fazara</text></g><g class="node" transform="translate(561.3333333333334,395.17647058823525)"><rect height="4.352941176470588" width="5"><title>Fazara  
1</title></rect><text x="-6" y="2.176470588235294" dy=".35em" text-anchor="end" style="font-size: 11px; font-family: Arial, Helvetica; pointer-events: none;">Fazara  </text></g><g class="node" transform="translate(561.3333333333334,376.4705882352941)"><rect height="8.705882352941176" width="5"><title>Madhhij
2</title></rect><text x="-6" y="4.352941176470588" dy=".35em" text-anchor="end" style="font-size: 11px; font-family: Arial, Helvetica; pointer-events: none;">Madhhij</text></g><g class="node" transform="translate(561.3333333333334,272.4705882352941)"><rect height="34.8235294117647" width="5"><title>Makhzum
8</title></rect><text x="-6" y="17.41176470588235" dy=".35em" text-anchor="end" style="font-size: 11px; font-family: Arial, Helvetica; pointer-events: none;">Makhzum</text></g><g class="node" transform="translate(561.3333333333334,438.2352941176471)"><rect height="4.352941176470588" width="5"><title>Murra b. Awf
1</title></rect><text x="-6" y="2.176470588235294" dy=".35em" text-anchor="end" style="font-size: 11px; font-family: Arial, Helvetica; pointer-events: none;">Murra b. Awf</text></g><g class="node" transform="translate(561.3333333333334,0)"><rect height="200.23529411764704" width="5"><title>Qusayy
46</title></rect><text x="-6" y="100.11764705882352" dy=".35em" text-anchor="end" style="font-size: 11px; font-family: Arial, Helvetica; pointer-events: none;">Qusayy</text></g><g class="node" transform="translate(561.3333333333334,466.9411764705883)"><rect height="4.352941176470588" width="5"><title>Sahm
1</title></rect><text x="-6" y="2.176470588235294" dy=".35em" text-anchor="end" style="font-size: 11px; font-family: Arial, Helvetica; pointer-events: none;">Sahm</text></g><g class="node" transform="translate(561.3333333333334,481.2941176470589)"><rect height="4.352941176470588" width="5"><title>Taym b. Murra
1</title></rect><text x="-6" y="2.176470588235294" dy=".35em" text-anchor="end" style="font-size: 11px; font-family: Arial, Helvetica; pointer-events: none;">Taym b. Murra</text></g><g class="node" transform="translate(561.3333333333334,495.6470588235295)"><rect height="4.352941176470588" width="5"><title>Zuhra
1</title></rect><text x="-6" y="2.176470588235294" dy=".35em" text-anchor="end" style="font-size: 11px; font-family: Arial, Helvetica; pointer-events: none;">Zuhra</text></g><g class="node" transform="translate(842,25)"><rect height="161.05882352941174" width="5" style="fill: rgb(102, 102, 102);"><title>
37</title></rect><text x="-6" y="80.52941176470587" dy=".35em" text-anchor="end" style="font-size: 11px; font-family: Arial, Helvetica; pointer-events: none;"></text></g><g class="node" transform="translate(842,441.9411764705882)"><rect height="4.352941176470588" width="5" style="fill: rgb(102, 102, 102);"><title>Abd al-Dar
1</title></rect><text x="-6" y="2.176470588235294" dy=".35em" text-anchor="end" style="font-size: 11px; font-family: Arial, Helvetica; pointer-events: none;">Abd al-Dar</text></g><g class="node" transform="translate(842,345.35294117647055)"><rect height="21.76470588235294" width="5" style="fill: rgb(102, 102, 102);"><title>Abd Shams
5</title></rect><text x="-6" y="10.88235294117647" dy=".35em" text-anchor="end" style="font-size: 11px; font-family: Arial, Helvetica; pointer-events: none;">Abd Shams</text></g><g class="node" transform="translate(842,404.52941176470586)"><rect height="8.705882352941176" width="5" style="fill: rgb(102, 102, 102);"><title>Asad
2</title></rect><text x="-6" y="4.352941176470588" dy=".35em" text-anchor="end" style="font-size: 11px; font-family: Arial, Helvetica; pointer-events: none;">Asad</text></g><g class="node" transform="translate(842,377.1176470588235)"><rect height="17.41176470588235" width="5" style="fill: rgb(102, 102, 102);"><title>Hashim
4</title></rect><text x="-6" y="8.705882352941176" dy=".35em" text-anchor="end" style="font-size: 11px; font-family: Arial, Helvetica; pointer-events: none;">Hashim</text></g><g class="node" transform="translate(842,456.2941176470588)"><rect height="4.352941176470588" width="5" style="fill: rgb(102, 102, 102);"><title>Kilab b. Rabi'a
1</title></rect><text x="-6" y="2.176470588235294" dy=".35em" text-anchor="end" style="font-size: 11px; font-family: Arial, Helvetica; pointer-events: none;">Kilab b. Rabi'a</text></g><g class="node" transform="translate(842,423.235294117647)"><rect height="8.705882352941176" width="5" style="fill: rgb(102, 102, 102);"><title>Malik of Ja'far of Kilab
2</title></rect><text x="-6" y="4.352941176470588" dy=".35em" text-anchor="end" style="font-size: 11px; font-family: Arial, Helvetica; pointer-events: none;">Malik of Ja'far of Kilab</text></g><g class="node" transform="translate(842,470.6470588235294)"><rect height="4.352941176470588" width="5" style="fill: rgb(102, 102, 102);"><title>Murad
1</title></rect><text x="-6" y="2.176470588235294" dy=".35em" text-anchor="end" style="font-size: 11px; font-family: Arial, Helvetica; pointer-events: none;">Murad</text></g><g class="node" transform="translate(842,196.05882352941174)"><rect height="139.2941176470588" width="5" style="fill: rgb(102, 102, 102);"><title>Umayyad
32</title></rect><text x="-6" y="69.6470588235294" dy=".35em" text-anchor="end" style="font-size: 11px; font-family: Arial, Helvetica; pointer-events: none;">Umayyad</text></g><g class="node" transform="translate(280.6666666666667,409.5294117647059)"><rect height="4.352941176470588" width="5"><title>Asad b. Khuzayma
1</title></rect><text x="11" y="2.176470588235294" dy=".35em" text-anchor="start" style="font-size: 11px; font-family: Arial, Helvetica; pointer-events: none;">Asad b. Khuzayma</text></g><g class="node" transform="translate(280.6666666666667,339.05882352941177)"><rect height="13.058823529411764" width="5"><title>Bajila
3</title></rect><text x="11" y="6.529411764705882" dy=".35em" text-anchor="start" style="font-size: 11px; font-family: Arial, Helvetica; pointer-events: none;">Bajila</text></g><g class="node" transform="translate(280.6666666666667,288.5882352941176)"><rect height="17.41176470588235" width="5"><title>Ghatafan
4</title></rect><text x="11" y="8.705882352941176" dy=".35em" text-anchor="start" style="font-size: 11px; font-family: Arial, Helvetica; pointer-events: none;">Ghatafan</text></g><g class="node" transform="translate(280.6666666666667,423.8823529411765)"><rect height="4.352941176470588" width="5"><title>Kalb
1</title></rect><text x="11" y="2.176470588235294" dy=".35em" text-anchor="start" style="font-size: 11px; font-family: Arial, Helvetica; pointer-events: none;">Kalb</text></g><g class="node" transform="translate(280.6666666666667,452.58823529411774)"><rect height="4.352941176470588" width="5"><title>Khuza'a
1</title></rect><text x="11" y="2.176470588235294" dy=".35em" text-anchor="start" style="font-size: 11px; font-family: Arial, Helvetica; pointer-events: none;">Khuza'a</text></g><g class="node" transform="translate(280.6666666666667,380.8235294117647)"><rect height="4.352941176470588" width="5"><title>Kinana
1</title></rect><text x="11" y="2.176470588235294" dy=".35em" text-anchor="start" style="font-size: 11px; font-family: Arial, Helvetica; pointer-events: none;">Kinana</text></g><g class="node" transform="translate(280.6666666666667,395.1764705882353)"><rect height="4.352941176470588" width="5"><title>Persian
1</title></rect><text x="11" y="2.176470588235294" dy=".35em" text-anchor="start" style="font-size: 11px; font-family: Arial, Helvetica; pointer-events: none;">Persian</text></g><g class="node" transform="translate(280.6666666666667,316)"><rect height="13.058823529411764" width="5"><title>Qays Aylan
3</title></rect><text x="11" y="6.529411764705882" dy=".35em" text-anchor="start" style="font-size: 11px; font-family: Arial, Helvetica; pointer-events: none;">Qays Aylan</text></g><g class="node" transform="translate(280.6666666666667,0)"><rect height="278.5882352941176" width="5"><title>Quraysh
64</title></rect><text x="11" y="139.2941176470588" dy=".35em" text-anchor="start" style="font-size: 11px; font-family: Arial, Helvetica; pointer-events: none;">Quraysh</text></g><g class="node" transform="translate(280.6666666666667,438.23529411764713)"><rect height="4.352941176470588" width="5"><title>Tamim
1</title></rect><text x="11" y="2.176470588235294" dy=".35em" text-anchor="start" style="font-size: 11px; font-family: Arial, Helvetica; pointer-events: none;">Tamim</text></g><g class="node" transform="translate(280.6666666666667,362.11764705882354)"><rect height="8.705882352941176" width="5"><title>Thaqif/Quraysh (by adoption)
2</title></rect><text x="11" y="4.352941176470588" dy=".35em" text-anchor="start" style="font-size: 11px; font-family: Arial, Helvetica; pointer-events: none;">Thaqif/Quraysh (by adoption)</text></g><g class="node" transform="translate(280.6666666666667,466.94117647058835)"><rect height="4.352941176470588" width="5"><title>Unknown
1</title></rect><text x="11" y="2.176470588235294" dy=".35em" text-anchor="start" style="font-size: 11px; font-family: Arial, Helvetica; pointer-events: none;">Unknown</text></g><g class="node" transform="translate(280.6666666666667,481.29411764705895)"><rect height="4.352941176470588" width="5"><title>Yemen
1</title></rect><text x="11" y="2.176470588235294" dy=".35em" text-anchor="start" style="font-size: 11px; font-family: Arial, Helvetica; pointer-events: none;">Yemen</text></g><g class="node" transform="translate(280.6666666666667,495.64705882352956)"><rect height="4.352941176470588" width="5"><title>Yemen 
1</title></rect><text x="11" y="2.176470588235294" dy=".35em" text-anchor="start" style="font-size: 11px; font-family: Arial, Helvetica; pointer-events: none;">Yemen </text></g></g></g></svg>