<svg width="847" height="520" xmlns="http://www.w3.org/2000/svg" version="1.1"><g transform="translate(0,10)"><g><path class="link" d="M5,250C142.83333333333334,250 142.83333333333334,250 280.6666666666667,250" style="stroke-width: 470; fill: none; stroke: rgb(191, 105, 105); stroke-opacity: 0.4;"><title>25</title></path><path class="link" d="M285.6666666666667,165.4C423.5,165.4 423.5,150.4 561.3333333333334,150.4" style="stroke-width: 300.8; fill: none; stroke: rgb(191, 191, 105); stroke-opacity: 0.4;"><title>16</title></path><path class="link" d="M566.3333333333334,65.8C704.1666666666667,65.8 704.1666666666667,65.79999999999997 842,65.79999999999997" style="stroke-width: 131.6; fill: none; stroke: rgb(105, 191, 105); stroke-opacity: 0.4;"><title>7</title></path><path class="link" d="M285.6666666666667,362.8C423.5,362.8 423.5,357.8 561.3333333333334,357.8" style="stroke-width: 94; fill: none; stroke: rgb(191, 191, 105); stroke-opacity: 0.4;"><title>5</title></path><path class="link" d="M566.3333333333334,178.6C704.1666666666667,178.6 704.1666666666667,357.79999999999995 842,357.79999999999995" style="stroke-width: 94; fill: none; stroke: rgb(105, 191, 105); stroke-opacity: 0.4;"><title>5</title></path><path class="link" d="M566.3333333333334,357.8C704.1666666666667,357.8 704.1666666666667,178.59999999999997 842,178.59999999999997" style="stroke-width: 94; fill: none; stroke: rgb(105, 191, 191); stroke-opacity: 0.4;"><title>5</title></path><path class="link" d="M566.3333333333334,253.8C704.1666666666667,253.8 704.1666666666667,442.99999999999994 842,442.99999999999994" style="stroke-width: 56.4; fill: none; stroke: rgb(105, 191, 105); stroke-opacity: 0.4;"><title>3</title></path><path class="link" d="M285.6666666666667,466.20000000000005C423.5,466.20000000000005 423.5,481.20000000000005 561.3333333333334,481.20000000000005" style="stroke-width: 37.6; fill: none; stroke: rgb(191, 191, 105); stroke-opacity: 0.4;"><title>2</title></path><path class="link" d="M285.6666666666667,428.6C423.5,428.6 423.5,433.6 561.3333333333334,433.6" style="stroke-width: 37.6; fill: none; stroke: rgb(191, 191, 105); stroke-opacity: 0.4;"><title>2</title></path><path class="link" d="M566.3333333333334,481.20000000000005C704.1666666666667,481.20000000000005 704.1666666666667,281.99999999999994 842,281.99999999999994" style="stroke-width: 37.6; fill: none; stroke: rgb(105, 105, 191); stroke-opacity: 0.4;"><title>2</title></path><path class="link" d="M566.3333333333334,433.6C704.1666666666667,433.6 704.1666666666667,244.39999999999998 842,244.39999999999998" style="stroke-width: 37.6; fill: none; stroke: rgb(191, 105, 191); stroke-opacity: 0.4;"><title>2</title></path><path class="link" d="M566.3333333333334,291.4C704.1666666666667,291.4 704.1666666666667,490.5999999999999 842,490.5999999999999" style="stroke-width: 18.8; fill: none; stroke: rgb(105, 191, 105); stroke-opacity: 0.4;"><title>1</title></path></g><g><g class="node" transform="translate(561.3333333333334,414.8)"><rect height="37.6" width="5"><title>Jumah
2</title></rect><text x="-6" y="18.8" dy=".35em" text-anchor="end" style="font-size: 11px; font-family: Arial, Helvetica; pointer-events: none;">Jumah</text></g><g class="node" transform="translate(561.3333333333334,462.40000000000003)"><rect height="37.6" width="5"><title>Makhzum
2</title></rect><text x="-6" y="18.8" dy=".35em" text-anchor="end" style="font-size: 11px; font-family: Arial, Helvetica; pointer-events: none;">Makhzum</text></g><g class="node" transform="translate(561.3333333333334,0)"><rect height="300.8" width="5"><title>Qusayy
16</title></rect><text x="-6" y="150.4" dy=".35em" text-anchor="end" style="font-size: 11px; font-family: Arial, Helvetica; pointer-events: none;">Qusayy</text></g><g class="node" transform="translate(561.3333333333334,310.8)"><rect height="94" width="5"><title>Zuhra
5</title></rect><text x="-6" y="47" dy=".35em" text-anchor="end" style="font-size: 11px; font-family: Arial, Helvetica; pointer-events: none;">Zuhra</text></g><g class="node" transform="translate(842,-2.842170943040401e-14)"><rect height="300.8" width="5" style="fill: rgb(102, 102, 102);"><title>
16</title></rect><text x="-6" y="150.4" dy=".35em" text-anchor="end" style="font-size: 11px; font-family: Arial, Helvetica; pointer-events: none;"></text></g><g class="node" transform="translate(842,414.79999999999995)"><rect height="56.400000000000006" width="5" style="fill: rgb(102, 102, 102);"><title>Asad
3</title></rect><text x="-6" y="28.200000000000003" dy=".35em" text-anchor="end" style="font-size: 11px; font-family: Arial, Helvetica; pointer-events: none;">Asad</text></g><g class="node" transform="translate(842,481.19999999999993)"><rect height="18.8" width="5" style="fill: rgb(102, 102, 102);"><title>Hashim
1</title></rect><text x="-6" y="9.4" dy=".35em" text-anchor="end" style="font-size: 11px; font-family: Arial, Helvetica; pointer-events: none;">Hashim</text></g><g class="node" transform="translate(842,310.79999999999995)"><rect height="94" width="5" style="fill: rgb(102, 102, 102);"><title>Umayyad
5</title></rect><text x="-6" y="47" dy=".35em" text-anchor="end" style="font-size: 11px; font-family: Arial, Helvetica; pointer-events: none;">Umayyad</text></g><g class="node" transform="translate(280.6666666666667,15)"><rect height="470" width="5"><title>Quraysh
25</title></rect><text x="11" y="235" dy=".35em" text-anchor="start" style="font-size: 11px; font-family: Arial, Helvetica; pointer-events: none;">Quraysh</text></g><g class="node" transform="translate(0,15)"><rect height="470" width="5"><title>Umayyad
25</title></rect><text x="11" y="235" dy=".35em" text-anchor="start" style="font-size: 11px; font-family: Arial, Helvetica; pointer-events: none;">Umayyad</text></g></g></g></svg>