<svg preserveAspectRatio="xMinYMin meet" viewBox="0 0 847 520" width="847" height="520" xmlns="http://www.w3.org/2000/svg" version="1.1"><g transform="translate(0,10)"><g><path class="link" d="M5,250C142.83333333333334,250 142.83333333333334,250 280.6666666666667,250" style="stroke-width: 460; fill: none; stroke: rgb(191, 105, 105); stroke-opacity: 0.4;"><title>20</title></path><path class="link" d="M285.6666666666667,158C423.5,158 423.5,138 561.3333333333334,138" style="stroke-width: 276; fill: none; stroke: rgb(191, 179, 105); stroke-opacity: 0.4;"><title>12</title></path><path class="link" d="M566.3333333333334,115C704.1666666666667,115 704.1666666666667,286 842,286" style="stroke-width: 184; fill: none; stroke: rgb(105, 191, 154); stroke-opacity: 0.4;"><title>8</title></path><path class="link" d="M566.3333333333334,343.5C704.1666666666667,343.5 704.1666666666667,80.5 842,80.5" style="stroke-width: 115; fill: none; stroke: rgb(130, 191, 105); stroke-opacity: 0.4;"><title>5</title></path><path class="link" d="M285.6666666666667,353.5C423.5,353.5 423.5,343.5 561.3333333333334,343.5" style="stroke-width: 115; fill: none; stroke: rgb(191, 179, 105); stroke-opacity: 0.4;"><title>5</title></path><path class="link" d="M566.3333333333334,230C704.1666666666667,230 704.1666666666667,411 842,411" style="stroke-width: 46; fill: none; stroke: rgb(105, 191, 154); stroke-opacity: 0.4;"><title>2</title></path><path class="link" d="M285.6666666666667,468.5C423.5,468.5 423.5,488.5 561.3333333333334,488.5" style="stroke-width: 23; fill: none; stroke: rgb(191, 179, 105); stroke-opacity: 0.4;"><title>1</title></path><path class="link" d="M285.6666666666667,422.5C423.5,422.5 423.5,422.5 561.3333333333334,422.5" style="stroke-width: 23; fill: none; stroke: rgb(191, 179, 105); stroke-opacity: 0.4;"><title>1</title></path><path class="link" d="M285.6666666666667,445.5C423.5,445.5 423.5,455.5 561.3333333333334,455.5" style="stroke-width: 23; fill: none; stroke: rgb(191, 179, 105); stroke-opacity: 0.4;"><title>1</title></path><path class="link" d="M566.3333333333334,11.5C704.1666666666667,11.5 704.1666666666667,11.5 842,11.5" style="stroke-width: 23; fill: none; stroke: rgb(105, 191, 154); stroke-opacity: 0.4;"><title>1</title></path><path class="link" d="M566.3333333333334,264.5C704.1666666666667,264.5 704.1666666666667,455.5 842,455.5" style="stroke-width: 23; fill: none; stroke: rgb(105, 191, 154); stroke-opacity: 0.4;"><title>1</title></path><path class="link" d="M566.3333333333334,488.5C704.1666666666667,488.5 704.1666666666667,488.5 842,488.5" style="stroke-width: 23; fill: none; stroke: rgb(105, 154, 191); stroke-opacity: 0.4;"><title>1</title></path><path class="link" d="M566.3333333333334,455.5C704.1666666666667,455.5 704.1666666666667,172.5 842,172.5" style="stroke-width: 23; fill: none; stroke: rgb(130, 105, 191); stroke-opacity: 0.4;"><title>1</title></path><path class="link" d="M566.3333333333334,422.5C704.1666666666667,422.5 704.1666666666667,149.5 842,149.5" style="stroke-width: 23; fill: none; stroke: rgb(191, 105, 179); stroke-opacity: 0.4;"><title>1</title></path></g><g><g class="node" transform="translate(561.3333333333334,411)"><rect height="23" width="5"><title>Adi b. Ka'b
1</title></rect><text x="-6" y="11.5" dy=".35em" text-anchor="end" style="font-size: 11px; font-family: Arial, Helvetica; pointer-events: none;">Adi b. Ka'b</text></g><g class="node" transform="translate(561.3333333333334,444)"><rect height="23" width="5"><title>Amir b. Lu'ayy
1</title></rect><text x="-6" y="11.5" dy=".35em" text-anchor="end" style="font-size: 11px; font-family: Arial, Helvetica; pointer-events: none;">Amir b. Lu'ayy</text></g><g class="node" transform="translate(561.3333333333334,477)"><rect height="23" width="5"><title>Asad
1</title></rect><text x="-6" y="11.5" dy=".35em" text-anchor="end" style="font-size: 11px; font-family: Arial, Helvetica; pointer-events: none;">Asad</text></g><g class="node" transform="translate(561.3333333333334,286)"><rect height="115" width="5"><title>Makhzum
5</title></rect><text x="-6" y="57.5" dy=".35em" text-anchor="end" style="font-size: 11px; font-family: Arial, Helvetica; pointer-events: none;">Makhzum</text></g><g class="node" transform="translate(561.3333333333334,0)"><rect height="276" width="5"><title>Qusayy
12</title></rect><text x="-6" y="138" dy=".35em" text-anchor="end" style="font-size: 11px; font-family: Arial, Helvetica; pointer-events: none;">Qusayy</text></g><g class="node" transform="translate(842,0)"><rect height="184" width="5" style="fill: rgb(102, 102, 102);"><title>
8</title></rect><text x="-6" y="92" dy=".35em" text-anchor="end" style="font-size: 11px; font-family: Arial, Helvetica; pointer-events: none;"></text></g><g class="node" transform="translate(842,388)"><rect height="46" width="5" style="fill: rgb(102, 102, 102);"><title>Asad
2</title></rect><text x="-6" y="23" dy=".35em" text-anchor="end" style="font-size: 11px; font-family: Arial, Helvetica; pointer-events: none;">Asad</text></g><g class="node" transform="translate(842,444)"><rect height="23" width="5" style="fill: rgb(102, 102, 102);"><title>Hashim
1</title></rect><text x="-6" y="11.5" dy=".35em" text-anchor="end" style="font-size: 11px; font-family: Arial, Helvetica; pointer-events: none;">Hashim</text></g><g class="node" transform="translate(842,194)"><rect height="184" width="5" style="fill: rgb(102, 102, 102);"><title>Umayyad
8</title></rect><text x="-6" y="92" dy=".35em" text-anchor="end" style="font-size: 11px; font-family: Arial, Helvetica; pointer-events: none;">Umayyad</text></g><g class="node" transform="translate(842,477)"><rect height="23" width="5" style="fill: rgb(102, 102, 102);"><title>Zubayrid
1</title></rect><text x="-6" y="11.5" dy=".35em" text-anchor="end" style="font-size: 11px; font-family: Arial, Helvetica; pointer-events: none;">Zubayrid</text></g><g class="node" transform="translate(280.6666666666667,20)"><rect height="460" width="5"><title>Quraysh
20</title></rect><text x="11" y="230" dy=".35em" text-anchor="start" style="font-size: 11px; font-family: Arial, Helvetica; pointer-events: none;">Quraysh</text></g><g class="node" transform="translate(0,20)"><rect height="460" width="5"><title>Umayyad
20</title></rect><text x="11" y="230" dy=".35em" text-anchor="start" style="font-size: 11px; font-family: Arial, Helvetica; pointer-events: none;">Umayyad</text></g></g></g></svg>