<svg width="847" height="520" xmlns="http://www.w3.org/2000/svg" version="1.1"><g transform="translate(0,10)"><g><path class="link" d="M5,230.71428571428572C142.83333333333334,230.71428571428572 142.83333333333334,205.7142857142857 280.6666666666667,205.7142857142857" style="stroke-width: 411.429; fill: none; stroke: rgb(191, 105, 105); stroke-opacity: 0.4;"><title>64</title></path><path class="link" d="M285.6666666666667,183.2142857142857C423.5,183.2142857142857 423.5,183.21428571428572 561.3333333333334,183.21428571428572" style="stroke-width: 366.429; fill: none; stroke: rgb(191, 184, 105); stroke-opacity: 0.4;"><title>57</title></path><path class="link" d="M566.3333333333334,147.85714285714286C704.1666666666667,147.85714285714286 704.1666666666667,152.85714285714286 842,152.85714285714286" style="stroke-width: 295.714; fill: none; stroke: rgb(105, 131, 191); stroke-opacity: 0.4;"><title>46</title></path><path class="link" d="M566.3333333333334,324.64285714285717C704.1666666666667,324.64285714285717 704.1666666666667,426.78571428571433 842,426.78571428571433" style="stroke-width: 57.8571; fill: none; stroke: rgb(105, 131, 191); stroke-opacity: 0.4;"><title>9</title></path><path class="link" d="M566.3333333333334,392.5C704.1666666666667,392.5 704.1666666666667,326.7857142857143 842,326.7857142857143" style="stroke-width: 32.1429; fill: none; stroke: rgb(158, 105, 191); stroke-opacity: 0.4;"><title>5</title></path><path class="link" d="M566.3333333333334,428.2142857142858C704.1666666666667,428.2142857142858 704.1666666666667,352.50000000000006 842,352.50000000000006" style="stroke-width: 19.2857; fill: none; stroke: rgb(118, 105, 191); stroke-opacity: 0.4;"><title>3</title></path><path class="link" d="M285.6666666666667,376.0714285714286C423.5,376.0714285714286 423.5,428.2142857142858 561.3333333333334,428.2142857142858" style="stroke-width: 19.2857; fill: none; stroke: rgb(191, 184, 105); stroke-opacity: 0.4;"><title>3</title></path><path class="link" d="M285.6666666666667,427.8571428571429C423.5,427.8571428571429 423.5,382.8571428571429 561.3333333333334,382.8571428571429" style="stroke-width: 12.8571; fill: none; stroke: rgb(158, 191, 105); stroke-opacity: 0.4;"><title>2</title></path><path class="link" d="M566.3333333333334,477.14285714285717C704.1666666666667,477.14285714285717 704.1666666666667,381.42857142857144 842,381.42857142857144" style="stroke-width: 12.8571; fill: none; stroke: rgb(191, 105, 145); stroke-opacity: 0.4;"><title>2</title></path><path class="link" d="M285.6666666666667,392.1428571428571C423.5,392.1428571428571 423.5,454.28571428571433 561.3333333333334,454.28571428571433" style="stroke-width: 12.8571; fill: none; stroke: rgb(191, 184, 105); stroke-opacity: 0.4;"><title>2</title></path><path class="link" d="M285.6666666666667,405C423.5,405 423.5,477.14285714285717 561.3333333333334,477.14285714285717" style="stroke-width: 12.8571; fill: none; stroke: rgb(191, 184, 105); stroke-opacity: 0.4;"><title>2</title></path><path class="link" d="M5,442.8571428571429C142.83333333333334,442.8571428571429 142.83333333333334,427.8571428571429 280.6666666666667,427.8571428571429" style="stroke-width: 12.8571; fill: none; stroke: rgb(191, 105, 105); stroke-opacity: 0.4;"><title>2</title></path><path class="link" d="M566.3333333333334,360C704.1666666666667,360 704.1666666666667,472.1428571428572 842,472.1428571428572" style="stroke-width: 12.8571; fill: none; stroke: rgb(105, 131, 191); stroke-opacity: 0.4;"><title>2</title></path><path class="link" d="M566.3333333333334,454.28571428571433C704.1666666666667,454.28571428571433 704.1666666666667,368.5714285714286 842,368.5714285714286" style="stroke-width: 12.8571; fill: none; stroke: rgb(191, 105, 184); stroke-opacity: 0.4;"><title>2</title></path><path class="link" d="M285.6666666666667,447.5C423.5,447.5 423.5,392.5 561.3333333333334,392.5" style="stroke-width: 6.42857; fill: none; stroke: rgb(105, 191, 171); stroke-opacity: 0.4;"><title>1</title></path><path class="link" d="M566.3333333333334,496.7857142857143C704.1666666666667,496.7857142857143 704.1666666666667,491.78571428571433 842,491.78571428571433" style="stroke-width: 6.42857; fill: none; stroke: rgb(105, 171, 191); stroke-opacity: 0.4;"><title>1</title></path><path class="link" d="M285.6666666666667,480.3571428571429C423.5,480.3571428571429 423.5,405.3571428571429 561.3333333333334,405.3571428571429" style="stroke-width: 6.42857; fill: none; stroke: rgb(105, 191, 131); stroke-opacity: 0.4;"><title>1</title></path><path class="link" d="M285.6666666666667,463.92857142857144C423.5,463.92857142857144 423.5,398.92857142857144 561.3333333333334,398.92857142857144" style="stroke-width: 6.42857; fill: none; stroke: rgb(118, 191, 105); stroke-opacity: 0.4;"><title>1</title></path><path class="link" d="M285.6666666666667,496.78571428571433C423.5,496.78571428571433 423.5,496.7857142857143 561.3333333333334,496.7857142857143" style="stroke-width: 6.42857; fill: none; stroke: rgb(191, 145, 105); stroke-opacity: 0.4;"><title>1</title></path><path class="link" d="M5,452.5C142.83333333333334,452.5 142.83333333333334,447.5 280.6666666666667,447.5" style="stroke-width: 6.42857; fill: none; stroke: rgb(191, 105, 105); stroke-opacity: 0.4;"><title>1</title></path><path class="link" d="M5,465.3571428571429C142.83333333333334,465.3571428571429 142.83333333333334,480.3571428571429 280.6666666666667,480.3571428571429" style="stroke-width: 6.42857; fill: none; stroke: rgb(191, 105, 105); stroke-opacity: 0.4;"><title>1</title></path><path class="link" d="M5,458.92857142857144C142.83333333333334,458.92857142857144 142.83333333333334,463.92857142857144 280.6666666666667,463.92857142857144" style="stroke-width: 6.42857; fill: none; stroke: rgb(191, 105, 105); stroke-opacity: 0.4;"><title>1</title></path><path class="link" d="M5,471.78571428571433C142.83333333333334,471.78571428571433 142.83333333333334,496.78571428571433 280.6666666666667,496.78571428571433" style="stroke-width: 6.42857; fill: none; stroke: rgb(191, 105, 105); stroke-opacity: 0.4;"><title>1</title></path></g><g><g class="node" transform="translate(0,25)"><rect height="450" width="5"><title>Umayyad
70</title></rect><text x="11" y="225" dy=".35em" text-anchor="start" style="font-size: 11px; font-family: Arial, Helvetica; pointer-events: none;">Umayyad</text></g><g class="node" transform="translate(561.3333333333334,376.42857142857144)"><rect height="32.142857142857146" width="5"><title>
5</title></rect><text x="-6" y="16.071428571428573" dy=".35em" text-anchor="end" style="font-size: 11px; font-family: Arial, Helvetica; pointer-events: none;"></text></g><g class="node" transform="translate(561.3333333333334,447.8571428571429)"><rect height="12.857142857142858" width="5"><title>Adi b. Ka'b
2</title></rect><text x="-6" y="6.428571428571429" dy=".35em" text-anchor="end" style="font-size: 11px; font-family: Arial, Helvetica; pointer-events: none;">Adi b. Ka'b</text></g><g class="node" transform="translate(561.3333333333334,493.57142857142856)"><rect height="6.428571428571429" width="5"><title>Madhhij
1</title></rect><text x="-6" y="3.2142857142857144" dy=".35em" text-anchor="end" style="font-size: 11px; font-family: Arial, Helvetica; pointer-events: none;">Madhhij</text></g><g class="node" transform="translate(561.3333333333334,418.5714285714286)"><rect height="19.285714285714285" width="5"><title>Makhzum
3</title></rect><text x="-6" y="9.642857142857142" dy=".35em" text-anchor="end" style="font-size: 11px; font-family: Arial, Helvetica; pointer-events: none;">Makhzum</text></g><g class="node" transform="translate(561.3333333333334,0)"><rect height="366.42857142857144" width="5"><title>Qusayy
57</title></rect><text x="-6" y="183.21428571428572" dy=".35em" text-anchor="end" style="font-size: 11px; font-family: Arial, Helvetica; pointer-events: none;">Qusayy</text></g><g class="node" transform="translate(561.3333333333334,470.7142857142857)"><rect height="12.857142857142858" width="5"><title>Taym b. Murra
2</title></rect><text x="-6" y="6.428571428571429" dy=".35em" text-anchor="end" style="font-size: 11px; font-family: Arial, Helvetica; pointer-events: none;">Taym b. Murra</text></g><g class="node" transform="translate(842,310.7142857142857)"><rect height="77.14285714285714" width="5" style="fill: rgb(102, 102, 102);"><title>
12</title></rect><text x="-6" y="38.57142857142857" dy=".35em" text-anchor="end" style="font-size: 11px; font-family: Arial, Helvetica; pointer-events: none;"></text></g><g class="node" transform="translate(842,465.7142857142858)"><rect height="12.857142857142858" width="5" style="fill: rgb(102, 102, 102);"><title>Asad
2</title></rect><text x="-6" y="6.428571428571429" dy=".35em" text-anchor="end" style="font-size: 11px; font-family: Arial, Helvetica; pointer-events: none;">Asad</text></g><g class="node" transform="translate(842,488.5714285714286)"><rect height="6.428571428571429" width="5" style="fill: rgb(102, 102, 102);"><title>Harith b. Ka'b
1</title></rect><text x="-6" y="3.2142857142857144" dy=".35em" text-anchor="end" style="font-size: 11px; font-family: Arial, Helvetica; pointer-events: none;">Harith b. Ka'b</text></g><g class="node" transform="translate(842,397.8571428571429)"><rect height="57.85714285714286" width="5" style="fill: rgb(102, 102, 102);"><title>Hashim
9</title></rect><text x="-6" y="28.92857142857143" dy=".35em" text-anchor="end" style="font-size: 11px; font-family: Arial, Helvetica; pointer-events: none;">Hashim</text></g><g class="node" transform="translate(842,5)"><rect height="295.7142857142857" width="5" style="fill: rgb(102, 102, 102);"><title>Umayyad
46</title></rect><text x="-6" y="147.85714285714286" dy=".35em" text-anchor="end" style="font-size: 11px; font-family: Arial, Helvetica; pointer-events: none;">Umayyad</text></g><g class="node" transform="translate(280.6666666666667,421.42857142857144)"><rect height="12.857142857142858" width="5"><title>Kalb
2</title></rect><text x="11" y="6.428571428571429" dy=".35em" text-anchor="start" style="font-size: 11px; font-family: Arial, Helvetica; pointer-events: none;">Kalb</text></g><g class="node" transform="translate(280.6666666666667,444.2857142857143)"><rect height="6.428571428571429" width="5"><title>Khuza'a 
1</title></rect><text x="11" y="3.2142857142857144" dy=".35em" text-anchor="start" style="font-size: 11px; font-family: Arial, Helvetica; pointer-events: none;">Khuza'a </text></g><g class="node" transform="translate(280.6666666666667,-2.842170943040401e-14)"><rect height="411.42857142857144" width="5"><title>Quraysh
64</title></rect><text x="11" y="205.71428571428572" dy=".35em" text-anchor="start" style="font-size: 11px; font-family: Arial, Helvetica; pointer-events: none;">Quraysh</text></g><g class="node" transform="translate(280.6666666666667,460.7142857142857)"><rect height="6.428571428571429" width="5"><title>Thaqif
1</title></rect><text x="11" y="3.2142857142857144" dy=".35em" text-anchor="start" style="font-size: 11px; font-family: Arial, Helvetica; pointer-events: none;">Thaqif</text></g><g class="node" transform="translate(280.6666666666667,477.14285714285717)"><rect height="6.428571428571429" width="5"><title>Udhra
1</title></rect><text x="11" y="3.2142857142857144" dy=".35em" text-anchor="start" style="font-size: 11px; font-family: Arial, Helvetica; pointer-events: none;">Udhra</text></g><g class="node" transform="translate(280.6666666666667,493.5714285714286)"><rect height="6.428571428571429" width="5"><title>Yemen
1</title></rect><text x="11" y="3.2142857142857144" dy=".35em" text-anchor="start" style="font-size: 11px; font-family: Arial, Helvetica; pointer-events: none;">Yemen</text></g></g></g></svg>