<svg preserveAspectRatio="xMinYMin meet" viewBox="0 0 847 520" width="847" height="520" xmlns="http://www.w3.org/2000/svg" version="1.1"><g transform="translate(0,10)"><g><path class="link" d="M5,250C142.83333333333334,250 142.83333333333334,250 280.6666666666667,250" style="stroke-width: 470; fill: none; stroke: rgb(191, 105, 105); stroke-opacity: 0.4;"><title>40</title></path><path class="link" d="M285.6666666666667,197.125C423.5,197.125 423.5,182.125 561.3333333333334,182.125" style="stroke-width: 364.25; fill: none; stroke: rgb(191, 191, 105); stroke-opacity: 0.4;"><title>31</title></path><path class="link" d="M566.3333333333334,146.875C704.1666666666667,146.875 704.1666666666667,146.875 842,146.875" style="stroke-width: 293.75; fill: none; stroke: rgb(105, 191, 105); stroke-opacity: 0.4;"><title>25</title></path><path class="link" d="M566.3333333333334,323.125C704.1666666666667,323.125 704.1666666666667,448.875 842,448.875" style="stroke-width: 58.75; fill: none; stroke: rgb(105, 191, 105); stroke-opacity: 0.4;"><title>5</title></path><path class="link" d="M285.6666666666667,449.75C423.5,449.75 423.5,454.75 561.3333333333334,454.75" style="stroke-width: 47; fill: none; stroke: rgb(191, 191, 105); stroke-opacity: 0.4;"><title>4</title></path><path class="link" d="M285.6666666666667,402.75C423.5,402.75 423.5,397.75 561.3333333333334,397.75" style="stroke-width: 47; fill: none; stroke: rgb(191, 191, 105); stroke-opacity: 0.4;"><title>4</title></path><path class="link" d="M566.3333333333334,397.75C704.1666666666667,397.75 704.1666666666667,327.25 842,327.25" style="stroke-width: 47; fill: none; stroke: rgb(105, 191, 191); stroke-opacity: 0.4;"><title>4</title></path><path class="link" d="M566.3333333333334,454.75C704.1666666666667,454.75 704.1666666666667,374.25 842,374.25" style="stroke-width: 47; fill: none; stroke: rgb(105, 105, 191); stroke-opacity: 0.4;"><title>4</title></path><path class="link" d="M285.6666666666667,479.125C423.5,479.125 423.5,494.125 561.3333333333334,494.125" style="stroke-width: 11.75; fill: none; stroke: rgb(191, 191, 105); stroke-opacity: 0.4;"><title>1</title></path><path class="link" d="M566.3333333333334,358.375C704.1666666666667,358.375 704.1666666666667,494.125 842,494.125" style="stroke-width: 11.75; fill: none; stroke: rgb(105, 191, 105); stroke-opacity: 0.4;"><title>1</title></path><path class="link" d="M566.3333333333334,494.125C704.1666666666667,494.125 704.1666666666667,403.625 842,403.625" style="stroke-width: 11.75; fill: none; stroke: rgb(191, 105, 191); stroke-opacity: 0.4;"><title>1</title></path></g><g><g class="node" transform="translate(0,15)"><rect height="470" width="5"><title>Umayyad
40</title></rect><text x="11" y="235" dy=".35em" text-anchor="start" style="font-size: 11px; font-family: Arial, Helvetica; pointer-events: none;">Umayyad</text></g><g class="node" transform="translate(561.3333333333334,488.25)"><rect height="11.75" width="5"><title>Adi b. Ka'b
1</title></rect><text x="-6" y="5.875" dy=".35em" text-anchor="end" style="font-size: 11px; font-family: Arial, Helvetica; pointer-events: none;">Adi b. Ka'b</text></g><g class="node" transform="translate(561.3333333333334,374.25)"><rect height="47" width="5"><title>Makhzum
4</title></rect><text x="-6" y="23.5" dy=".35em" text-anchor="end" style="font-size: 11px; font-family: Arial, Helvetica; pointer-events: none;">Makhzum</text></g><g class="node" transform="translate(561.3333333333334,0)"><rect height="364.25" width="5"><title>Qusayy
31</title></rect><text x="-6" y="182.125" dy=".35em" text-anchor="end" style="font-size: 11px; font-family: Arial, Helvetica; pointer-events: none;">Qusayy</text></g><g class="node" transform="translate(561.3333333333334,431.25)"><rect height="47" width="5"><title>Taym b. Murra
4</title></rect><text x="-6" y="23.5" dy=".35em" text-anchor="end" style="font-size: 11px; font-family: Arial, Helvetica; pointer-events: none;">Taym b. Murra</text></g><g class="node" transform="translate(842,303.75)"><rect height="105.75" width="5" style="fill: rgb(102, 102, 102);"><title>
9</title></rect><text x="-6" y="52.875" dy=".35em" text-anchor="end" style="font-size: 11px; font-family: Arial, Helvetica; pointer-events: none;"></text></g><g class="node" transform="translate(842,419.5)"><rect height="58.75" width="5" style="fill: rgb(102, 102, 102);"><title>Asad
5</title></rect><text x="-6" y="29.375" dy=".35em" text-anchor="end" style="font-size: 11px; font-family: Arial, Helvetica; pointer-events: none;">Asad</text></g><g class="node" transform="translate(842,488.25)"><rect height="11.75" width="5" style="fill: rgb(102, 102, 102);"><title>Hashim
1</title></rect><text x="-6" y="5.875" dy=".35em" text-anchor="end" style="font-size: 11px; font-family: Arial, Helvetica; pointer-events: none;">Hashim</text></g><g class="node" transform="translate(842,0)"><rect height="293.75" width="5" style="fill: rgb(102, 102, 102);"><title>Umayyad
25</title></rect><text x="-6" y="146.875" dy=".35em" text-anchor="end" style="font-size: 11px; font-family: Arial, Helvetica; pointer-events: none;">Umayyad</text></g><g class="node" transform="translate(280.6666666666667,15)"><rect height="470" width="5"><title>Quraysh
40</title></rect><text x="11" y="235" dy=".35em" text-anchor="start" style="font-size: 11px; font-family: Arial, Helvetica; pointer-events: none;">Quraysh</text></g></g></g></svg>