<svg preserveAspectRatio="xMinYMin meet" viewBox="0 0 847 520" width="847" height="520" xmlns="http://www.w3.org/2000/svg" version="1.1"><g transform="translate(0,10)"><g><path class="link" d="M5,126.25C142.83333333333334,126.25 142.83333333333334,101.25 280.6666666666667,101.25" style="stroke-width: 192.5; fill: none; stroke: rgb(191, 105, 105); stroke-opacity: 0.4;"><title>7</title></path><path class="link" d="M566.3333333333334,82.5C704.1666666666667,82.5 704.1666666666667,97.5 842,97.5" style="stroke-width: 165; fill: none; stroke: rgb(130, 105, 191); stroke-opacity: 0.4;"><title>6</title></path><path class="link" d="M285.6666666666667,262.5C423.5,262.5 423.5,55 561.3333333333334,55" style="stroke-width: 110; fill: none; stroke: rgb(191, 179, 105); stroke-opacity: 0.4;"><title>4</title></path><path class="link" d="M5,277.5C142.83333333333334,277.5 142.83333333333334,262.5 280.6666666666667,262.5" style="stroke-width: 110; fill: none; stroke: rgb(191, 105, 105); stroke-opacity: 0.4;"><title>4</title></path><path class="link" d="M285.6666666666667,46.25C423.5,46.25 423.5,216.25 561.3333333333334,216.25" style="stroke-width: 82.5; fill: none; stroke: rgb(191, 142, 105); stroke-opacity: 0.4;"><title>3</title></path><path class="link" d="M5,360C142.83333333333334,360 142.83333333333334,355 280.6666666666667,355" style="stroke-width: 55; fill: none; stroke: rgb(191, 105, 105); stroke-opacity: 0.4;"><title>2</title></path><path class="link" d="M285.6666666666667,115C423.5,115 423.5,360 561.3333333333334,360" style="stroke-width: 55; fill: none; stroke: rgb(191, 142, 105); stroke-opacity: 0.4;"><title>2</title></path><path class="link" d="M285.6666666666667,355C423.5,355 423.5,295 561.3333333333334,295" style="stroke-width: 55; fill: none; stroke: rgb(166, 191, 105); stroke-opacity: 0.4;"><title>2</title></path><path class="link" d="M566.3333333333334,295C704.1666666666667,295 704.1666666666667,207.5 842,207.5" style="stroke-width: 55; fill: none; stroke: rgb(166, 105, 191); stroke-opacity: 0.4;"><title>2</title></path><path class="link" d="M566.3333333333334,360C704.1666666666667,360 704.1666666666667,262.5 842,262.5" style="stroke-width: 55; fill: none; stroke: rgb(191, 105, 179); stroke-opacity: 0.4;"><title>2</title></path><path class="link" d="M5,401.25C142.83333333333334,401.25 142.83333333333334,406.25 280.6666666666667,406.25" style="stroke-width: 27.5; fill: none; stroke: rgb(191, 105, 105); stroke-opacity: 0.4;"><title>1</title></path><path class="link" d="M5,456.25C142.83333333333334,456.25 142.83333333333334,481.25 280.6666666666667,481.25" style="stroke-width: 27.5; fill: none; stroke: rgb(191, 105, 105); stroke-opacity: 0.4;"><title>1</title></path><path class="link" d="M285.6666666666667,156.25C423.5,156.25 423.5,411.25 561.3333333333334,411.25" style="stroke-width: 27.5; fill: none; stroke: rgb(191, 142, 105); stroke-opacity: 0.4;"><title>1</title></path><path class="link" d="M285.6666666666667,406.25C423.5,406.25 423.5,448.75 561.3333333333334,448.75" style="stroke-width: 27.5; fill: none; stroke: rgb(105, 191, 117); stroke-opacity: 0.4;"><title>1</title></path><path class="link" d="M285.6666666666667,481.25C423.5,481.25 423.5,151.25 561.3333333333334,151.25" style="stroke-width: 27.5; fill: none; stroke: rgb(105, 191, 154); stroke-opacity: 0.4;"><title>1</title></path><path class="link" d="M566.3333333333334,411.25C704.1666666666667,411.25 704.1666666666667,303.75 842,303.75" style="stroke-width: 27.5; fill: none; stroke: rgb(105, 191, 191); stroke-opacity: 0.4;"><title>1</title></path><path class="link" d="M566.3333333333334,243.75C704.1666666666667,243.75 704.1666666666667,471.25 842,471.25" style="stroke-width: 27.5; fill: none; stroke: rgb(105, 154, 191); stroke-opacity: 0.4;"><title>1</title></path><path class="link" d="M566.3333333333334,188.75C704.1666666666667,188.75 704.1666666666667,396.25 842,396.25" style="stroke-width: 27.5; fill: none; stroke: rgb(105, 154, 191); stroke-opacity: 0.4;"><title>1</title></path><path class="link" d="M566.3333333333334,216.25C704.1666666666667,216.25 704.1666666666667,433.75 842,433.75" style="stroke-width: 27.5; fill: none; stroke: rgb(105, 154, 191); stroke-opacity: 0.4;"><title>1</title></path><path class="link" d="M566.3333333333334,486.25C704.1666666666667,486.25 704.1666666666667,358.75 842,358.75" style="stroke-width: 27.5; fill: none; stroke: rgb(105, 117, 191); stroke-opacity: 0.4;"><title>1</title></path><path class="link" d="M566.3333333333334,448.75C704.1666666666667,448.75 704.1666666666667,331.25 842,331.25" style="stroke-width: 27.5; fill: none; stroke: rgb(191, 105, 142); stroke-opacity: 0.4;"><title>1</title></path><path class="link" d="M285.6666666666667,183.75C423.5,183.75 423.5,486.25 561.3333333333334,486.25" style="stroke-width: 27.5; fill: none; stroke: rgb(191, 142, 105); stroke-opacity: 0.4;"><title>1</title></path><path class="link" d="M5,428.75C142.83333333333334,428.75 142.83333333333334,443.75 280.6666666666667,443.75" style="stroke-width: 27.5; fill: none; stroke: rgb(191, 105, 105); stroke-opacity: 0.4;"><title>1</title></path><path class="link" d="M285.6666666666667,443.75C423.5,443.75 423.5,123.75 561.3333333333334,123.75" style="stroke-width: 27.5; fill: none; stroke: rgb(130, 191, 105); stroke-opacity: 0.4;"><title>1</title></path></g><g><g class="node" transform="translate(0,30)"><rect height="440" width="5"><title>Umayyad
16</title></rect><text x="11" y="220" dy=".35em" text-anchor="start" style="font-size: 11px; font-family: Arial, Helvetica; pointer-events: none;">Umayyad</text></g><g class="node" transform="translate(561.3333333333334,0)"><rect height="165" width="5"><title>
6</title></rect><text x="-6" y="82.5" dy=".35em" text-anchor="end" style="font-size: 11px; font-family: Arial, Helvetica; pointer-events: none;"></text></g><g class="node" transform="translate(561.3333333333334,397.5)"><rect height="27.5" width="5"><title>Adi b. Ka'b
1</title></rect><text x="-6" y="13.75" dy=".35em" text-anchor="end" style="font-size: 11px; font-family: Arial, Helvetica; pointer-events: none;">Adi b. Ka'b</text></g><g class="node" transform="translate(561.3333333333334,267.5)"><rect height="55" width="5"><title>Amir b. Sa'sa'a
2</title></rect><text x="-6" y="27.5" dy=".35em" text-anchor="end" style="font-size: 11px; font-family: Arial, Helvetica; pointer-events: none;">Amir b. Sa'sa'a</text></g><g class="node" transform="translate(561.3333333333334,435)"><rect height="27.5" width="5"><title>Layth
1</title></rect><text x="-6" y="13.75" dy=".35em" text-anchor="end" style="font-size: 11px; font-family: Arial, Helvetica; pointer-events: none;">Layth</text></g><g class="node" transform="translate(561.3333333333334,472.5)"><rect height="27.5" width="5"><title>Makhzum
1</title></rect><text x="-6" y="13.75" dy=".35em" text-anchor="end" style="font-size: 11px; font-family: Arial, Helvetica; pointer-events: none;">Makhzum</text></g><g class="node" transform="translate(561.3333333333334,175)"><rect height="82.5" width="5"><title>Qusayy
3</title></rect><text x="-6" y="41.25" dy=".35em" text-anchor="end" style="font-size: 11px; font-family: Arial, Helvetica; pointer-events: none;">Qusayy</text></g><g class="node" transform="translate(561.3333333333334,332.5)"><rect height="55" width="5"><title>Zuhra
2</title></rect><text x="-6" y="27.5" dy=".35em" text-anchor="end" style="font-size: 11px; font-family: Arial, Helvetica; pointer-events: none;">Zuhra</text></g><g class="node" transform="translate(842,15)"><rect height="357.5" width="5" style="fill: rgb(102, 102, 102);"><title>
13</title></rect><text x="-6" y="178.75" dy=".35em" text-anchor="end" style="font-size: 11px; font-family: Arial, Helvetica; pointer-events: none;"></text></g><g class="node" transform="translate(842,382.5)"><rect height="27.5" width="5" style="fill: rgb(102, 102, 102);"><title>Abd Shams
1</title></rect><text x="-6" y="13.75" dy=".35em" text-anchor="end" style="font-size: 11px; font-family: Arial, Helvetica; pointer-events: none;">Abd Shams</text></g><g class="node" transform="translate(842,420)"><rect height="27.5" width="5" style="fill: rgb(102, 102, 102);"><title>Asad
1</title></rect><text x="-6" y="13.75" dy=".35em" text-anchor="end" style="font-size: 11px; font-family: Arial, Helvetica; pointer-events: none;">Asad</text></g><g class="node" transform="translate(842,457.5)"><rect height="27.5" width="5" style="fill: rgb(102, 102, 102);"><title>Umayyad
1</title></rect><text x="-6" y="13.75" dy=".35em" text-anchor="end" style="font-size: 11px; font-family: Arial, Helvetica; pointer-events: none;">Umayyad</text></g><g class="node" transform="translate(280.6666666666667,392.5)"><rect height="27.5" width="5"><title>Kinana
1</title></rect><text x="11" y="13.75" dy=".35em" text-anchor="start" style="font-size: 11px; font-family: Arial, Helvetica; pointer-events: none;">Kinana</text></g><g class="node" transform="translate(280.6666666666667,327.5)"><rect height="55" width="5"><title>Qays Aylan
2</title></rect><text x="11" y="27.5" dy=".35em" text-anchor="start" style="font-size: 11px; font-family: Arial, Helvetica; pointer-events: none;">Qays Aylan</text></g><g class="node" transform="translate(280.6666666666667,5)"><rect height="192.5" width="5"><title>Quraysh
7</title></rect><text x="11" y="96.25" dy=".35em" text-anchor="start" style="font-size: 11px; font-family: Arial, Helvetica; pointer-events: none;">Quraysh</text></g><g class="node" transform="translate(280.6666666666667,430)"><rect height="27.5" width="5"><title>Tamim
1</title></rect><text x="11" y="13.75" dy=".35em" text-anchor="start" style="font-size: 11px; font-family: Arial, Helvetica; pointer-events: none;">Tamim</text></g><g class="node" transform="translate(280.6666666666667,207.5)"><rect height="110" width="5"><title>Thaqif
4</title></rect><text x="11" y="55" dy=".35em" text-anchor="start" style="font-size: 11px; font-family: Arial, Helvetica; pointer-events: none;">Thaqif</text></g><g class="node" transform="translate(280.6666666666667,467.5)"><rect height="27.5" width="5"><title>Unknown
1</title></rect><text x="11" y="13.75" dy=".35em" text-anchor="start" style="font-size: 11px; font-family: Arial, Helvetica; pointer-events: none;">Unknown</text></g></g></g></svg>