<svg preserveAspectRatio="xMinYMin meet" viewBox="0 0 847 520" width="847" height="520" xmlns="http://www.w3.org/2000/svg" version="1.1"><g transform="translate(0,10)"><g><path class="link" d="M5,250C142.83333333333334,250 142.83333333333334,250 280.6666666666667,250" style="stroke-width: 460; fill: none; stroke: rgb(191, 105, 105); stroke-opacity: 0.4;"><title>16</title></path><path class="link" d="M285.6666666666667,120.625C423.5,120.625 423.5,100.625 561.3333333333334,100.625" style="stroke-width: 201.25; fill: none; stroke: rgb(191, 179, 105); stroke-opacity: 0.4;"><title>7</title></path><path class="link" d="M285.6666666666667,307.5C423.5,307.5 423.5,297.5 561.3333333333334,297.5" style="stroke-width: 172.5; fill: none; stroke: rgb(191, 179, 105); stroke-opacity: 0.4;"><title>6</title></path><path class="link" d="M566.3333333333334,297.5C704.1666666666667,297.5 704.1666666666667,177.5 842,177.5" style="stroke-width: 172.5; fill: none; stroke: rgb(105, 191, 154); stroke-opacity: 0.4;"><title>6</title></path><path class="link" d="M566.3333333333334,43.125C704.1666666666667,43.125 704.1666666666667,48.125 842,48.125" style="stroke-width: 86.25; fill: none; stroke: rgb(130, 191, 105); stroke-opacity: 0.4;"><title>3</title></path><path class="link" d="M566.3333333333334,115C704.1666666666667,115 704.1666666666667,388.75 842,388.75" style="stroke-width: 57.5; fill: none; stroke: rgb(130, 191, 105); stroke-opacity: 0.4;"><title>2</title></path><path class="link" d="M285.6666666666667,465.625C423.5,465.625 423.5,485.625 561.3333333333334,485.625" style="stroke-width: 28.75; fill: none; stroke: rgb(191, 179, 105); stroke-opacity: 0.4;"><title>1</title></path><path class="link" d="M566.3333333333334,186.875C704.1666666666667,186.875 704.1666666666667,480.625 842,480.625" style="stroke-width: 28.75; fill: none; stroke: rgb(130, 191, 105); stroke-opacity: 0.4;"><title>1</title></path><path class="link" d="M285.6666666666667,436.875C423.5,436.875 423.5,446.875 561.3333333333334,446.875" style="stroke-width: 28.75; fill: none; stroke: rgb(191, 179, 105); stroke-opacity: 0.4;"><title>1</title></path><path class="link" d="M566.3333333333334,158.125C704.1666666666667,158.125 704.1666666666667,441.875 842,441.875" style="stroke-width: 28.75; fill: none; stroke: rgb(130, 191, 105); stroke-opacity: 0.4;"><title>1</title></path><path class="link" d="M285.6666666666667,408.125C423.5,408.125 423.5,408.125 561.3333333333334,408.125" style="stroke-width: 28.75; fill: none; stroke: rgb(191, 179, 105); stroke-opacity: 0.4;"><title>1</title></path><path class="link" d="M566.3333333333334,408.125C704.1666666666667,408.125 704.1666666666667,278.125 842,278.125" style="stroke-width: 28.75; fill: none; stroke: rgb(105, 154, 191); stroke-opacity: 0.4;"><title>1</title></path><path class="link" d="M566.3333333333334,446.875C704.1666666666667,446.875 704.1666666666667,306.875 842,306.875" style="stroke-width: 28.75; fill: none; stroke: rgb(130, 105, 191); stroke-opacity: 0.4;"><title>1</title></path><path class="link" d="M566.3333333333334,485.625C704.1666666666667,485.625 704.1666666666667,335.625 842,335.625" style="stroke-width: 28.75; fill: none; stroke: rgb(191, 105, 179); stroke-opacity: 0.4;"><title>1</title></path></g><g><g class="node" transform="translate(561.3333333333334,211.25)"><rect height="172.5" width="5"><title>Amir b. Lu'ayy
6</title></rect><text x="-6" y="86.25" dy=".35em" text-anchor="end" style="font-size: 11px; font-family: Arial, Helvetica; pointer-events: none;">Amir b. Lu'ayy</text></g><g class="node" transform="translate(561.3333333333334,393.75)"><rect height="28.75" width="5"><title>Harith b. Fihr
1</title></rect><text x="-6" y="14.375" dy=".35em" text-anchor="end" style="font-size: 11px; font-family: Arial, Helvetica; pointer-events: none;">Harith b. Fihr</text></g><g class="node" transform="translate(561.3333333333334,432.5)"><rect height="28.75" width="5"><title>Makhzum
1</title></rect><text x="-6" y="14.375" dy=".35em" text-anchor="end" style="font-size: 11px; font-family: Arial, Helvetica; pointer-events: none;">Makhzum</text></g><g class="node" transform="translate(561.3333333333334,0)"><rect height="201.25" width="5"><title>Qusayy
7</title></rect><text x="-6" y="100.625" dy=".35em" text-anchor="end" style="font-size: 11px; font-family: Arial, Helvetica; pointer-events: none;">Qusayy</text></g><g class="node" transform="translate(561.3333333333334,471.25)"><rect height="28.75" width="5"><title>Sahm
1</title></rect><text x="-6" y="14.375" dy=".35em" text-anchor="end" style="font-size: 11px; font-family: Arial, Helvetica; pointer-events: none;">Sahm</text></g><g class="node" transform="translate(842,5)"><rect height="345" width="5" style="fill: rgb(102, 102, 102);"><title>
12</title></rect><text x="-6" y="172.5" dy=".35em" text-anchor="end" style="font-size: 11px; font-family: Arial, Helvetica; pointer-events: none;"></text></g><g class="node" transform="translate(842,360)"><rect height="57.5" width="5" style="fill: rgb(102, 102, 102);"><title>Asad
2</title></rect><text x="-6" y="28.75" dy=".35em" text-anchor="end" style="font-size: 11px; font-family: Arial, Helvetica; pointer-events: none;">Asad</text></g><g class="node" transform="translate(842,427.5)"><rect height="28.75" width="5" style="fill: rgb(102, 102, 102);"><title>Hashim
1</title></rect><text x="-6" y="14.375" dy=".35em" text-anchor="end" style="font-size: 11px; font-family: Arial, Helvetica; pointer-events: none;">Hashim</text></g><g class="node" transform="translate(842,466.25)"><rect height="28.75" width="5" style="fill: rgb(102, 102, 102);"><title>Umayyad
1</title></rect><text x="-6" y="14.375" dy=".35em" text-anchor="end" style="font-size: 11px; font-family: Arial, Helvetica; pointer-events: none;">Umayyad</text></g><g class="node" transform="translate(280.6666666666667,20)"><rect height="460" width="5"><title>Quraysh
16</title></rect><text x="11" y="230" dy=".35em" text-anchor="start" style="font-size: 11px; font-family: Arial, Helvetica; pointer-events: none;">Quraysh</text></g><g class="node" transform="translate(0,20)"><rect height="460" width="5"><title>Umayyad
16</title></rect><text x="11" y="230" dy=".35em" text-anchor="start" style="font-size: 11px; font-family: Arial, Helvetica; pointer-events: none;">Umayyad</text></g></g></g></svg>