<svg width="847" height="520" xmlns="http://www.w3.org/2000/svg" version="1.1"><g transform="translate(0,10)"><g><path class="link" d="M5,250C142.83333333333334,250 142.83333333333334,250 280.6666666666667,250" style="stroke-width: 470; fill: none; stroke: rgb(191, 105, 105); stroke-opacity: 0.4;"><title>16</title></path><path class="link" d="M285.6666666666667,205.9375C423.5,205.9375 423.5,190.9375 561.3333333333334,190.9375" style="stroke-width: 381.875; fill: none; stroke: rgb(191, 191, 105); stroke-opacity: 0.4;"><title>13</title></path><path class="link" d="M566.3333333333334,132.1875C704.1666666666667,132.1875 704.1666666666667,137.1875 842,137.1875" style="stroke-width: 264.375; fill: none; stroke: rgb(105, 191, 105); stroke-opacity: 0.4;"><title>9</title></path><path class="link" d="M566.3333333333334,308.4375C704.1666666666667,308.4375 704.1666666666667,323.4375 842,323.4375" style="stroke-width: 88.125; fill: none; stroke: rgb(105, 191, 105); stroke-opacity: 0.4;"><title>3</title></path><path class="link" d="M285.6666666666667,470.3125C423.5,470.3125 423.5,485.3125 561.3333333333334,485.3125" style="stroke-width: 29.375; fill: none; stroke: rgb(191, 191, 105); stroke-opacity: 0.4;"><title>1</title></path><path class="link" d="M285.6666666666667,411.5625C423.5,411.5625 423.5,406.5625 561.3333333333334,406.5625" style="stroke-width: 29.375; fill: none; stroke: rgb(191, 191, 105); stroke-opacity: 0.4;"><title>1</title></path><path class="link" d="M566.3333333333334,367.1875C704.1666666666667,367.1875 704.1666666666667,480.3125 842,480.3125" style="stroke-width: 29.375; fill: none; stroke: rgb(105, 191, 105); stroke-opacity: 0.4;"><title>1</title></path><path class="link" d="M285.6666666666667,440.9375C423.5,440.9375 423.5,445.9375 561.3333333333334,445.9375" style="stroke-width: 29.375; fill: none; stroke: rgb(191, 191, 105); stroke-opacity: 0.4;"><title>1</title></path><path class="link" d="M566.3333333333334,445.9375C704.1666666666667,445.9375 704.1666666666667,411.5625 842,411.5625" style="stroke-width: 29.375; fill: none; stroke: rgb(105, 191, 191); stroke-opacity: 0.4;"><title>1</title></path><path class="link" d="M566.3333333333334,406.5625C704.1666666666667,406.5625 704.1666666666667,382.1875 842,382.1875" style="stroke-width: 29.375; fill: none; stroke: rgb(105, 105, 191); stroke-opacity: 0.4;"><title>1</title></path><path class="link" d="M566.3333333333334,485.3125C704.1666666666667,485.3125 704.1666666666667,440.9375 842,440.9375" style="stroke-width: 29.375; fill: none; stroke: rgb(191, 105, 191); stroke-opacity: 0.4;"><title>1</title></path></g><g><g class="node" transform="translate(561.3333333333334,391.875)"><rect height="29.375" width="5"><title>Jumah
1</title></rect><text x="-6" y="14.6875" dy=".35em" text-anchor="end" style="font-size: 11px; font-family: Arial, Helvetica; pointer-events: none;">Jumah</text></g><g class="node" transform="translate(561.3333333333334,431.25)"><rect height="29.375" width="5"><title>Makhzum
1</title></rect><text x="-6" y="14.6875" dy=".35em" text-anchor="end" style="font-size: 11px; font-family: Arial, Helvetica; pointer-events: none;">Makhzum</text></g><g class="node" transform="translate(561.3333333333334,0)"><rect height="381.875" width="5"><title>Qusayy
13</title></rect><text x="-6" y="190.9375" dy=".35em" text-anchor="end" style="font-size: 11px; font-family: Arial, Helvetica; pointer-events: none;">Qusayy</text></g><g class="node" transform="translate(561.3333333333334,470.625)"><rect height="29.375" width="5"><title>Zuhra
1</title></rect><text x="-6" y="14.6875" dy=".35em" text-anchor="end" style="font-size: 11px; font-family: Arial, Helvetica; pointer-events: none;">Zuhra</text></g><g class="node" transform="translate(842,279.375)"><rect height="176.25" width="5" style="fill: rgb(102, 102, 102);"><title>
6</title></rect><text x="-6" y="88.125" dy=".35em" text-anchor="end" style="font-size: 11px; font-family: Arial, Helvetica; pointer-events: none;"></text></g><g class="node" transform="translate(842,5)"><rect height="264.375" width="5" style="fill: rgb(102, 102, 102);"><title>Hashim
9</title></rect><text x="-6" y="132.1875" dy=".35em" text-anchor="end" style="font-size: 11px; font-family: Arial, Helvetica; pointer-events: none;">Hashim</text></g><g class="node" transform="translate(842,465.625)"><rect height="29.375" width="5" style="fill: rgb(102, 102, 102);"><title>Umayyad
1</title></rect><text x="-6" y="14.6875" dy=".35em" text-anchor="end" style="font-size: 11px; font-family: Arial, Helvetica; pointer-events: none;">Umayyad</text></g><g class="node" transform="translate(280.6666666666667,15)"><rect height="470" width="5"><title>Quraysh
16</title></rect><text x="11" y="235" dy=".35em" text-anchor="start" style="font-size: 11px; font-family: Arial, Helvetica; pointer-events: none;">Quraysh</text></g><g class="node" transform="translate(0,15)"><rect height="470" width="5"><title>Hashim
16</title></rect><text x="11" y="235" dy=".35em" text-anchor="start" style="font-size: 11px; font-family: Arial, Helvetica; pointer-events: none;">Hashim</text></g></g></g></svg>