<svg width="847" height="520" xmlns="http://www.w3.org/2000/svg" version="1.1"><g transform="translate(0,10)"><g><path class="link" d="M5,192.5C142.83333333333334,192.5 142.83333333333334,182.5 280.6666666666667,182.5" style="stroke-width: 345; fill: none; stroke: rgb(191, 105, 105); stroke-opacity: 0.4;"><title>6</title></path><path class="link" d="M285.6666666666667,125C423.5,125 423.5,115 561.3333333333334,115" style="stroke-width: 230; fill: none; stroke: rgb(191, 162, 105); stroke-opacity: 0.4;"><title>4</title></path><path class="link" d="M566.3333333333334,86.25C704.1666666666667,86.25 704.1666666666667,273.75 842,273.75" style="stroke-width: 172.5; fill: none; stroke: rgb(105, 191, 162); stroke-opacity: 0.4;"><title>3</title></path><path class="link" d="M566.3333333333334,336.25C704.1666666666667,336.25 704.1666666666667,398.75 842,398.75" style="stroke-width: 57.5; fill: none; stroke: rgb(191, 105, 162); stroke-opacity: 0.4;"><title>1</title></path><path class="link" d="M285.6666666666667,326.25C423.5,326.25 423.5,471.25 561.3333333333334,471.25" style="stroke-width: 57.5; fill: none; stroke: rgb(191, 162, 105); stroke-opacity: 0.4;"><title>1</title></path><path class="link" d="M285.6666666666667,268.75C423.5,268.75 423.5,403.75 561.3333333333334,403.75" style="stroke-width: 57.5; fill: none; stroke: rgb(191, 162, 105); stroke-opacity: 0.4;"><title>1</title></path><path class="link" d="M285.6666666666667,393.75C423.5,393.75 423.5,268.75 561.3333333333334,268.75" style="stroke-width: 57.5; fill: none; stroke: rgb(162, 191, 105); stroke-opacity: 0.4;"><title>1</title></path><path class="link" d="M5,393.75C142.83333333333334,393.75 142.83333333333334,393.75 280.6666666666667,393.75" style="stroke-width: 57.5; fill: none; stroke: rgb(191, 105, 105); stroke-opacity: 0.4;"><title>1</title></path><path class="link" d="M5,451.25C142.83333333333334,451.25 142.83333333333334,461.25 280.6666666666667,461.25" style="stroke-width: 57.5; fill: none; stroke: rgb(191, 105, 105); stroke-opacity: 0.4;"><title>1</title></path><path class="link" d="M566.3333333333334,201.25C704.1666666666667,201.25 704.1666666666667,466.25 842,466.25" style="stroke-width: 57.5; fill: none; stroke: rgb(105, 191, 162); stroke-opacity: 0.4;"><title>1</title></path><path class="link" d="M566.3333333333334,471.25C704.1666666666667,471.25 704.1666666666667,148.75 842,148.75" style="stroke-width: 57.5; fill: none; stroke: rgb(105, 162, 191); stroke-opacity: 0.4;"><title>1</title></path><path class="link" d="M566.3333333333334,268.75C704.1666666666667,268.75 704.1666666666667,33.75 842,33.75" style="stroke-width: 57.5; fill: none; stroke: rgb(105, 105, 191); stroke-opacity: 0.4;"><title>1</title></path><path class="link" d="M566.3333333333334,403.75C704.1666666666667,403.75 704.1666666666667,91.25 842,91.25" style="stroke-width: 57.5; fill: none; stroke: rgb(162, 105, 191); stroke-opacity: 0.4;"><title>1</title></path><path class="link" d="M285.6666666666667,461.25C423.5,461.25 423.5,336.25 561.3333333333334,336.25" style="stroke-width: 57.5; fill: none; stroke: rgb(105, 191, 105); stroke-opacity: 0.4;"><title>1</title></path></g><g><g class="node" transform="translate(0,20)"><rect height="460" width="5"><title>Hashim
8</title></rect><text x="11" y="230" dy=".35em" text-anchor="start" style="font-size: 11px; font-family: Arial, Helvetica; pointer-events: none;">Hashim</text></g><g class="node" transform="translate(561.3333333333334,240)"><rect height="57.5" width="5"><title>
1</title></rect><text x="-6" y="28.75" dy=".35em" text-anchor="end" style="font-size: 11px; font-family: Arial, Helvetica; pointer-events: none;"></text></g><g class="node" transform="translate(561.3333333333334,307.5)"><rect height="57.5" width="5"><title>Amir b. Sa'sa'a
1</title></rect><text x="-6" y="28.75" dy=".35em" text-anchor="end" style="font-size: 11px; font-family: Arial, Helvetica; pointer-events: none;">Amir b. Sa'sa'a</text></g><g class="node" transform="translate(561.3333333333334,375)"><rect height="57.5" width="5"><title>Harith b. Fihr
1</title></rect><text x="-6" y="28.75" dy=".35em" text-anchor="end" style="font-size: 11px; font-family: Arial, Helvetica; pointer-events: none;">Harith b. Fihr</text></g><g class="node" transform="translate(561.3333333333334,0)"><rect height="230" width="5"><title>Qusayy
4</title></rect><text x="-6" y="115" dy=".35em" text-anchor="end" style="font-size: 11px; font-family: Arial, Helvetica; pointer-events: none;">Qusayy</text></g><g class="node" transform="translate(561.3333333333334,442.5)"><rect height="57.5" width="5"><title>Zuhra
1</title></rect><text x="-6" y="28.75" dy=".35em" text-anchor="end" style="font-size: 11px; font-family: Arial, Helvetica; pointer-events: none;">Zuhra</text></g><g class="node" transform="translate(842,5)"><rect height="172.5" width="5" style="fill: rgb(102, 102, 102);"><title>
3</title></rect><text x="-6" y="86.25" dy=".35em" text-anchor="end" style="font-size: 11px; font-family: Arial, Helvetica; pointer-events: none;"></text></g><g class="node" transform="translate(842,187.5)"><rect height="172.5" width="5" style="fill: rgb(102, 102, 102);"><title>Hashim
3</title></rect><text x="-6" y="86.25" dy=".35em" text-anchor="end" style="font-size: 11px; font-family: Arial, Helvetica; pointer-events: none;">Hashim</text></g><g class="node" transform="translate(842,370)"><rect height="57.5" width="5" style="fill: rgb(102, 102, 102);"><title>Hilal
1</title></rect><text x="-6" y="28.75" dy=".35em" text-anchor="end" style="font-size: 11px; font-family: Arial, Helvetica; pointer-events: none;">Hilal</text></g><g class="node" transform="translate(842,437.5)"><rect height="57.5" width="5" style="fill: rgb(102, 102, 102);"><title>Umayyad
1</title></rect><text x="-6" y="28.75" dy=".35em" text-anchor="end" style="font-size: 11px; font-family: Arial, Helvetica; pointer-events: none;">Umayyad</text></g><g class="node" transform="translate(280.6666666666667,365)"><rect height="57.5" width="5"><title>Hudhayl
1</title></rect><text x="11" y="28.75" dy=".35em" text-anchor="start" style="font-size: 11px; font-family: Arial, Helvetica; pointer-events: none;">Hudhayl</text></g><g class="node" transform="translate(280.6666666666667,432.5)"><rect height="57.5" width="5"><title>Qays Aylan
1</title></rect><text x="11" y="28.75" dy=".35em" text-anchor="start" style="font-size: 11px; font-family: Arial, Helvetica; pointer-events: none;">Qays Aylan</text></g><g class="node" transform="translate(280.6666666666667,10)"><rect height="345" width="5"><title>Quraysh
6</title></rect><text x="11" y="172.5" dy=".35em" text-anchor="start" style="font-size: 11px; font-family: Arial, Helvetica; pointer-events: none;">Quraysh</text></g></g></g></svg>